<?xml version="1.0" encoding="UTF-8" standalone="no"?>
<!-- Created with Inkscape (http://www.inkscape.org/) -->

<svg
   xmlns:dc="http://purl.org/dc/elements/1.1/"
   xmlns:cc="http://creativecommons.org/ns#"
   xmlns:rdf="http://www.w3.org/1999/02/22-rdf-syntax-ns#"
   xmlns:svg="http://www.w3.org/2000/svg"
   xmlns="http://www.w3.org/2000/svg"
   xmlns:sodipodi="http://sodipodi.sourceforge.net/DTD/sodipodi-0.dtd"
   xmlns:inkscape="http://www.inkscape.org/namespaces/inkscape"
   width="210mm"
   height="297mm"
   viewBox="0 0 210 297"
   version="1.1"
   id="svg4995"
   inkscape:version="0.92.2 (5c3e80d, 2017-08-06)"
   sodipodi:docname="Cluster.svg"
   inkscape:export-filename="C:\Users\Laura\Documents\GitHub\LaTexSeminar\bilder\Cluster.png"
   inkscape:export-xdpi="96"
   inkscape:export-ydpi="96">
  <defs
     id="defs4989" />
  <sodipodi:namedview
     id="base"
     pagecolor="#ffffff"
     bordercolor="#666666"
     borderopacity="1.0"
     inkscape:pageopacity="0.0"
     inkscape:pageshadow="2"
     inkscape:zoom="0.66"
     inkscape:cx="-68.181818"
     inkscape:cy="620.60606"
     inkscape:document-units="mm"
     inkscape:current-layer="layer1"
     showgrid="false"
     inkscape:window-width="1920"
     inkscape:window-height="986"
     inkscape:window-x="-11"
     inkscape:window-y="-11"
     inkscape:window-maximized="1" />
  <metadata
     id="metadata4992">
    <rdf:RDF>
      <cc:Work
         rdf:about="">
        <dc:format>image/svg+xml</dc:format>
        <dc:type
           rdf:resource="http://purl.org/dc/dcmitype/StillImage" />
        <dc:title></dc:title>
      </cc:Work>
    </rdf:RDF>
  </metadata>
  <g
     inkscape:label="Ebene 1"
     inkscape:groupmode="layer"
     id="layer1">
    <path
       style="fill:none;stroke:#000000;stroke-width:0.26458332px;stroke-linecap:butt;stroke-linejoin:miter;stroke-opacity:1"
       d="M 22.449495,174.32954 C 174.38447,172.32512 174.78535,172.32512 174.78535,172.32512"
       id="path7699"
       inkscape:connector-curvature="0" />
    <path
       style="fill:none;stroke:#000000;stroke-width:0.24905956px;stroke-linecap:butt;stroke-linejoin:miter;stroke-opacity:1"
       d="m 20.863587,54.098473 c -5.624601,6.456053 -5.624601,6.025651 -5.624601,6.025651"
       id="path7701"
       inkscape:connector-curvature="0" />
    <path
       style="fill:none;stroke:#000000;stroke-width:0.26458332px;stroke-linecap:butt;stroke-linejoin:miter;stroke-opacity:1"
       d="m 174.6813,172.22759 c -6.71098,4.50726 -7.51274,4.50726 -7.51274,4.50726"
       id="path7734"
       inkscape:connector-curvature="0" />
    <path
       style="fill:none;stroke:#000000;stroke-width:0.26458332px;stroke-linecap:butt;stroke-linejoin:miter;stroke-opacity:1"
       d="m 174.6813,172.22759 c -7.51274,-3.9113 -8.31451,-4.31219 -8.31451,-4.31219"
       id="path7736"
       inkscape:connector-curvature="0" />
    <path
       style="fill:none;stroke:#000000;stroke-width:0.26458332px;stroke-linecap:butt;stroke-linejoin:miter;stroke-opacity:1"
       d="m 20.863587,54.098473 c 4.409722,6.815026 4.810606,6.815026 4.810606,6.815026"
       id="path7740"
       inkscape:connector-curvature="0" />
    <path
       sodipodi:type="star"
       style="fill:none;fill-opacity:1;stroke:#f50000;stroke-width:0.26499999;stroke-miterlimit:4;stroke-dasharray:none;stroke-opacity:1"
       id="path8293"
       sodipodi:sides="72"
       sodipodi:cx="61.655544"
       sodipodi:cy="82.289192"
       sodipodi:r1="30.909678"
       sodipodi:r2="19.443964"
       sodipodi:arg1="0.81291416"
       sodipodi:arg2="0.85654736"
       inkscape:flatsided="true"
       inkscape:rounded="0"
       inkscape:randomized="0"
       d="m 82.902387,104.73869 -2.037453,1.76635 -2.183648,1.58206 -2.313224,1.38573 -2.425196,1.17884 -2.518709,0.96298 -2.593054,0.7398 -2.647665,0.51098 -2.682125,0.27828 -2.696172,0.0435 -2.6897,-0.19169 -2.662758,-0.42539 -2.61555,-0.65584 -2.548437,-0.88131 -2.461928,-1.10007 -2.356683,-1.31045 -2.233502,-1.51086 -2.093322,-1.69977 -1.937212,-1.87575 -1.766357,-2.03746 -1.58206,-2.183646 -1.385722,-2.313224 -1.178839,-2.425196 -0.962983,-2.518709 -0.739798,-2.593054 -0.510984,-2.647665 -0.27828,-2.682125 -0.04346,-2.696172 0.191694,-2.6897 0.425387,-2.662758 0.655843,-2.61555 0.881307,-2.548437 1.100065,-2.461928 1.31045,-2.356683 1.510862,-2.233502 1.699774,-2.093322 1.875752,-1.937212 2.037453,-1.766357 2.183648,-1.58206 2.313225,-1.385722 2.425195,-1.178839 2.518709,-0.962983 2.593055,-0.739798 2.647665,-0.510984 2.682124,-0.27828 2.696173,-0.04346 2.6897,0.191694 2.662757,0.425387 2.615551,0.655843 2.548436,0.881307 2.461929,1.100065 2.356683,1.31045 2.233501,1.510862 2.093323,1.699774 1.937211,1.875752 1.766357,2.037453 1.582061,2.183648 1.385722,2.313225 1.178838,2.425195 0.962983,2.518709 0.739799,2.593055 0.510983,2.647665 0.278281,2.682124 0.04346,2.696172 -0.191693,2.689701 -0.425387,2.662757 -0.655843,2.615551 -0.881308,2.548436 -1.100065,2.461929 -1.310449,2.356682 -1.510862,2.233499 -1.699775,2.09333 z"
       transform="matrix(1.2612044,0,0,1,-8.0340107,0)" />
    <path
       sodipodi:type="star"
       style="fill:none;fill-opacity:1;stroke:#002bf5;stroke-width:0.26499999;stroke-miterlimit:4;stroke-dasharray:none;stroke-opacity:1"
       id="path8293-0"
       sodipodi:sides="72"
       sodipodi:cx="61.655544"
       sodipodi:cy="82.289192"
       sodipodi:r1="30.909678"
       sodipodi:r2="19.443964"
       sodipodi:arg1="0.81291416"
       sodipodi:arg2="0.85654736"
       inkscape:flatsided="true"
       inkscape:rounded="0"
       inkscape:randomized="0"
       d="m 82.902387,104.73869 -2.037453,1.76635 -2.183648,1.58206 -2.313224,1.38573 -2.425196,1.17884 -2.518709,0.96298 -2.593054,0.7398 -2.647665,0.51098 -2.682125,0.27828 -2.696172,0.0435 -2.6897,-0.19169 -2.662758,-0.42539 -2.61555,-0.65584 -2.548437,-0.88131 -2.461928,-1.10007 -2.356683,-1.31045 -2.233502,-1.51086 -2.093322,-1.69977 -1.937212,-1.87575 -1.766357,-2.03746 -1.58206,-2.183646 -1.385722,-2.313224 -1.178839,-2.425196 -0.962983,-2.518709 -0.739798,-2.593054 -0.510984,-2.647665 -0.27828,-2.682125 -0.04346,-2.696172 0.191694,-2.6897 0.425387,-2.662758 0.655843,-2.61555 0.881307,-2.548437 1.100065,-2.461928 1.31045,-2.356683 1.510862,-2.233502 1.699774,-2.093322 1.875752,-1.937212 2.037453,-1.766357 2.183648,-1.58206 2.313225,-1.385722 2.425195,-1.178839 2.518709,-0.962983 2.593055,-0.739798 2.647665,-0.510984 2.682124,-0.27828 2.696173,-0.04346 2.6897,0.191694 2.662757,0.425387 2.615551,0.655843 2.548436,0.881307 2.461929,1.100065 2.356683,1.31045 2.233501,1.510862 2.093323,1.699774 1.937211,1.875752 1.766357,2.037453 1.582061,2.183648 1.385722,2.313225 1.178838,2.425195 0.962983,2.518709 0.739799,2.593055 0.510983,2.647665 0.278281,2.682124 0.04346,2.696172 -0.191693,2.689701 -0.425387,2.662757 -0.655843,2.615551 -0.881308,2.548436 -1.100065,2.461929 -1.310449,2.356682 -1.510862,2.233499 -1.699775,2.09333 z"
       transform="matrix(1.0755472,0,0,1.397121,70.111113,9.8091579)" />
    <path
       sodipodi:type="star"
       style="fill:none;fill-opacity:1;stroke:#17ba19;stroke-width:0.26499999;stroke-miterlimit:4;stroke-dasharray:none;stroke-opacity:1"
       id="path8293-7"
       sodipodi:sides="72"
       sodipodi:cx="61.655544"
       sodipodi:cy="82.289192"
       sodipodi:r1="30.909678"
       sodipodi:r2="19.443964"
       sodipodi:arg1="0.81291416"
       sodipodi:arg2="0.85654736"
       inkscape:flatsided="true"
       inkscape:rounded="0"
       inkscape:randomized="0"
       d="m 82.902387,104.73869 -2.037453,1.76635 -2.183648,1.58206 -2.313224,1.38573 -2.425196,1.17884 -2.518709,0.96298 -2.593054,0.7398 -2.647665,0.51098 -2.682125,0.27828 -2.696172,0.0435 -2.6897,-0.19169 -2.662758,-0.42539 -2.61555,-0.65584 -2.548437,-0.88131 -2.461928,-1.10007 -2.356683,-1.31045 -2.233502,-1.51086 -2.093322,-1.69977 -1.937212,-1.87575 -1.766357,-2.03746 -1.58206,-2.183646 -1.385722,-2.313224 -1.178839,-2.425196 -0.962983,-2.518709 -0.739798,-2.593054 -0.510984,-2.647665 -0.27828,-2.682125 -0.04346,-2.696172 0.191694,-2.6897 0.425387,-2.662758 0.655843,-2.61555 0.881307,-2.548437 1.100065,-2.461928 1.31045,-2.356683 1.510862,-2.233502 1.699774,-2.093322 1.875752,-1.937212 2.037453,-1.766357 2.183648,-1.58206 2.313225,-1.385722 2.425195,-1.178839 2.518709,-0.962983 2.593055,-0.739798 2.647665,-0.510984 2.682124,-0.27828 2.696173,-0.04346 2.6897,0.191694 2.662757,0.425387 2.615551,0.655843 2.548436,0.881307 2.461929,1.100065 2.356683,1.31045 2.233501,1.510862 2.093323,1.699774 1.937211,1.875752 1.766357,2.037453 1.582061,2.183648 1.385722,2.313225 1.178838,2.425195 0.962983,2.518709 0.739799,2.593055 0.510983,2.647665 0.278281,2.682124 0.04346,2.696172 -0.191693,2.689701 -0.425387,2.662757 -0.655843,2.615551 -0.881308,2.548436 -1.100065,2.461929 -1.310449,2.356682 -1.510862,2.233499 -1.699775,2.09333 z"
       transform="matrix(1.0819008,0.46102481,-0.31724019,0.7444771,20.924321,57.393928)"
       inkscape:transform-center-x="-6.8150253"
       inkscape:transform-center-y="-3.2070707" />
    <rect
       style="fill:#17ba19;fill-opacity:1;stroke:#17ba19;stroke-width:0.26499999;stroke-miterlimit:4;stroke-dasharray:none;stroke-opacity:1"
       id="rect8343"
       width="4.4097219"
       height="5.2114897"
       x="37.282196"
       y="134.24117" />
    <rect
       style="fill:#17ba19;fill-opacity:1;stroke:#17ba19;stroke-width:0.26499999;stroke-miterlimit:4;stroke-dasharray:none;stroke-opacity:1"
       id="rect8343-3"
       width="4.4097219"
       height="5.2114902"
       x="57.125946"
       y="134.04073" />
    <rect
       style="fill:#17ba19;fill-opacity:1;stroke:#17ba19;stroke-width:0.26499999;stroke-miterlimit:4;stroke-dasharray:none;stroke-opacity:1"
       id="rect8343-2"
       width="4.4097219"
       height="5.2114902"
       x="68.350693"
       y="156.08932" />
    <rect
       style="fill:#17ba19;fill-opacity:1;stroke:#17ba19;stroke-width:0.26499999;stroke-miterlimit:4;stroke-dasharray:none;stroke-opacity:1"
       id="rect8343-8"
       width="4.4097219"
       height="5.2114902"
       x="43.896782"
       y="147.67078" />
    <rect
       style="fill:#17ba19;fill-opacity:1;stroke:#17ba19;stroke-width:0.26499999;stroke-miterlimit:4;stroke-dasharray:none;stroke-opacity:1"
       id="rect8343-9"
       width="4.4097219"
       height="5.2114902"
       x="74.363953"
       y="142.45927" />
    <rect
       style="fill:#17ba19;fill-opacity:1;stroke:#17ba19;stroke-width:0.26499999;stroke-miterlimit:4;stroke-dasharray:none;stroke-opacity:1"
       id="rect8343-1"
       width="4.4097219"
       height="5.2114902"
       x="56.324181"
       y="148.87343" />
    <rect
       style="fill:#17ba19;fill-opacity:1;stroke:#17ba19;stroke-width:0.26499999;stroke-miterlimit:4;stroke-dasharray:none;stroke-opacity:1"
       id="rect8343-6"
       width="4.4097219"
       height="5.2114902"
       x="86.390465"
       y="151.67961" />
    <rect
       style="fill:#17ba19;fill-opacity:1;stroke:#17ba19;stroke-width:0.26499999;stroke-miterlimit:4;stroke-dasharray:none;stroke-opacity:1"
       id="rect8343-5"
       width="4.4097219"
       height="5.2114902"
       x="55.121529"
       y="163.70613" />
    <rect
       style="fill:#17ba19;fill-opacity:1;stroke:#17ba19;stroke-width:0.26499999;stroke-miterlimit:4;stroke-dasharray:none;stroke-opacity:1"
       id="rect8343-99"
       width="4.4097219"
       height="5.2114902"
       x="45.901199"
       y="123.61774" />
    <path
       style="fill:#0000ff;fill-opacity:1;stroke:none;stroke-width:0.26499999;stroke-miterlimit:4;stroke-dasharray:none;stroke-opacity:1"
       id="path8411"
       sodipodi:type="arc"
       sodipodi:cx="121.39372"
       sodipodi:cy="91.844421"
       sodipodi:rx="3.2811508"
       sodipodi:ry="3.110117"
       sodipodi:start="1.6210164"
       sodipodi:end="1.6031512"
       d="m 121.22901,94.950617 a 3.2811508,3.110117 0 0 1 -3.113,-3.248446 3.2811508,3.110117 0 0 1 3.41314,-2.965216 3.2811508,3.110117 0 0 1 3.1435,3.221959 3.2811508,3.110117 0 0 1 -3.38507,2.993997 l 0.10614,-3.10849 z" />
    <path
       style="fill:#0000ff;fill-opacity:1;stroke:none;stroke-width:0.26499999;stroke-miterlimit:4;stroke-dasharray:none;stroke-opacity:1"
       id="path8411-0"
       sodipodi:type="arc"
       sodipodi:cx="131.48991"
       sodipodi:cy="135.44273"
       sodipodi:rx="3.2811508"
       sodipodi:ry="3.110117"
       sodipodi:start="1.6210164"
       sodipodi:end="1.6031512"
       d="m 131.3252,138.54893 a 3.2811508,3.110117 0 0 1 -3.113,-3.24845 3.2811508,3.110117 0 0 1 3.41315,-2.96521 3.2811508,3.110117 0 0 1 3.14349,3.22196 3.2811508,3.110117 0 0 1 -3.38507,2.99399 l 0.10614,-3.10849 z" />
    <path
       style="fill:#0000ff;fill-opacity:1;stroke:none;stroke-width:0.26499999;stroke-miterlimit:4;stroke-dasharray:none;stroke-opacity:1"
       id="path8411-4"
       sodipodi:type="arc"
       sodipodi:cx="116.25632"
       sodipodi:cy="-138.65196"
       sodipodi:rx="3.2811508"
       sodipodi:ry="3.110117"
       sodipodi:start="1.6210164"
       sodipodi:end="1.6031512"
       d="m 116.09161,-135.54577 a 3.2811508,3.110117 0 0 1 -3.11301,-3.24844 3.2811508,3.110117 0 0 1 3.41315,-2.96522 3.2811508,3.110117 0 0 1 3.14349,3.22196 3.2811508,3.110117 0 0 1 -3.38507,2.994 l 0.10615,-3.10849 z"
       transform="scale(1,-1)" />
    <path
       style="fill:#0000ff;fill-opacity:1;stroke:none;stroke-width:0.26499999;stroke-miterlimit:4;stroke-dasharray:none;stroke-opacity:1"
       id="path8411-1"
       sodipodi:type="arc"
       sodipodi:cx="145.92172"
       sodipodi:cy="149.07278"
       sodipodi:rx="3.2811508"
       sodipodi:ry="3.110117"
       sodipodi:start="1.6210164"
       sodipodi:end="1.6031512"
       d="m 145.75701,152.17898 a 3.2811508,3.110117 0 0 1 -3.113,-3.24845 3.2811508,3.110117 0 0 1 3.41314,-2.96521 3.2811508,3.110117 0 0 1 3.1435,3.22196 3.2811508,3.110117 0 0 1 -3.38507,2.99399 l 0.10614,-3.10849 z" />
    <path
       style="fill:#0000ff;fill-opacity:1;stroke:none;stroke-width:0.26499999;stroke-miterlimit:4;stroke-dasharray:none;stroke-opacity:1"
       id="path8411-3"
       sodipodi:type="arc"
       sodipodi:cx="155.14206"
       sodipodi:cy="133.03743"
       sodipodi:rx="3.2811508"
       sodipodi:ry="3.110117"
       sodipodi:start="1.6210164"
       sodipodi:end="1.6031512"
       d="m 154.97735,136.14363 a 3.2811508,3.110117 0 0 1 -3.11301,-3.24845 3.2811508,3.110117 0 0 1 3.41315,-2.96522 3.2811508,3.110117 0 0 1 3.1435,3.22196 3.2811508,3.110117 0 0 1 -3.38507,2.994 l 0.10614,-3.10849 z" />
    <path
       style="fill:#0000ff;fill-opacity:1;stroke:none;stroke-width:0.26499999;stroke-miterlimit:4;stroke-dasharray:none;stroke-opacity:1"
       id="path8411-5"
       sodipodi:type="arc"
       sodipodi:cx="141.51201"
       sodipodi:cy="112.19147"
       sodipodi:rx="3.2811508"
       sodipodi:ry="3.110117"
       sodipodi:start="1.6210164"
       sodipodi:end="1.6031512"
       d="m 141.3473,115.29766 a 3.2811508,3.110117 0 0 1 -3.11301,-3.24844 3.2811508,3.110117 0 0 1 3.41315,-2.96522 3.2811508,3.110117 0 0 1 3.1435,3.22196 3.2811508,3.110117 0 0 1 -3.38507,2.994 l 0.10614,-3.10849 z" />
    <path
       style="fill:#0000ff;fill-opacity:1;stroke:none;stroke-width:0.26499999;stroke-miterlimit:4;stroke-dasharray:none;stroke-opacity:1"
       id="path8411-58"
       sodipodi:type="arc"
       sodipodi:cx="117.85986"
       sodipodi:cy="120.61003"
       sodipodi:rx="3.2811508"
       sodipodi:ry="3.110117"
       sodipodi:start="1.6210164"
       sodipodi:end="1.6031512"
       d="m 117.69515,123.71623 a 3.2811508,3.110117 0 0 1 -3.113,-3.24845 3.2811508,3.110117 0 0 1 3.41315,-2.96522 3.2811508,3.110117 0 0 1 3.14349,3.22196 3.2811508,3.110117 0 0 1 -3.38507,2.994 l 0.10614,-3.10849 z" />
    <path
       style="fill:#0000ff;fill-opacity:1;stroke:none;stroke-width:0.26499999;stroke-miterlimit:4;stroke-dasharray:none;stroke-opacity:1"
       id="path8411-2"
       sodipodi:type="arc"
       sodipodi:cx="129.88637"
       sodipodi:cy="160.29753"
       sodipodi:rx="3.2811508"
       sodipodi:ry="3.110117"
       sodipodi:start="1.6210164"
       sodipodi:end="1.6031512"
       d="m 129.72166,163.40373 a 3.2811508,3.110117 0 0 1 -3.11301,-3.24845 3.2811508,3.110117 0 0 1 3.41315,-2.96522 3.2811508,3.110117 0 0 1 3.14349,3.22196 3.2811508,3.110117 0 0 1 -3.38506,2.994 l 0.10614,-3.10849 z" />
    <path
       style="fill:#0000ff;fill-opacity:1;stroke:none;stroke-width:0.26499999;stroke-miterlimit:4;stroke-dasharray:none;stroke-opacity:1"
       id="path8411-9"
       sodipodi:type="arc"
       sodipodi:cx="129.48549"
       sodipodi:cy="102.97115"
       sodipodi:rx="3.2811508"
       sodipodi:ry="3.110117"
       sodipodi:start="1.6210164"
       sodipodi:end="1.6031512"
       d="m 129.32078,106.07735 a 3.2811508,3.110117 0 0 1 -3.11301,-3.24845 3.2811508,3.110117 0 0 1 3.41315,-2.965213 3.2811508,3.110117 0 0 1 3.1435,3.221963 3.2811508,3.110117 0 0 1 -3.38507,2.99399 l 0.10614,-3.10849 z" />
    <path
       style="fill:#0000ff;fill-opacity:1;stroke:none;stroke-width:0.26499999;stroke-miterlimit:4;stroke-dasharray:none;stroke-opacity:1"
       id="path8411-6"
       sodipodi:type="arc"
       sodipodi:cx="155.14206"
       sodipodi:cy="108.58352"
       sodipodi:rx="3.2811508"
       sodipodi:ry="3.110117"
       sodipodi:start="1.6210164"
       sodipodi:end="1.6031512"
       d="m 154.97735,111.68971 a 3.2811508,3.110117 0 0 1 -3.11301,-3.24844 3.2811508,3.110117 0 0 1 3.41315,-2.96522 3.2811508,3.110117 0 0 1 3.1435,3.22196 3.2811508,3.110117 0 0 1 -3.38507,2.994 l 0.10614,-3.10849 z" />
    <path
       style="fill:#0000ff;fill-opacity:1;stroke:none;stroke-width:0.26499999;stroke-miterlimit:4;stroke-dasharray:none;stroke-opacity:1"
       id="path8411-32"
       sodipodi:type="arc"
       sodipodi:cx="140.30936"
       sodipodi:cy="88.138443"
       sodipodi:rx="3.2811508"
       sodipodi:ry="3.110117"
       sodipodi:start="1.6210164"
       sodipodi:end="1.6031512"
       d="m 140.14465,91.244639 a 3.2811508,3.110117 0 0 1 -3.11301,-3.248446 3.2811508,3.110117 0 0 1 3.41315,-2.965217 3.2811508,3.110117 0 0 1 3.14349,3.221959 3.2811508,3.110117 0 0 1 -3.38507,2.993997 l 0.10615,-3.108489 z" />
    <path
       sodipodi:type="star"
       style="fill:#ff0000;fill-opacity:1;stroke:none;stroke-width:0.26499999;stroke-miterlimit:4;stroke-dasharray:none;stroke-opacity:1"
       id="path8485"
       sodipodi:sides="3"
       sodipodi:cx="46.101639"
       sodipodi:cy="73.306824"
       sodipodi:r1="3.9685476"
       sodipodi:r2="1.9842738"
       sodipodi:arg1="0.78539816"
       sodipodi:arg2="1.8325957"
       inkscape:flatsided="true"
       inkscape:rounded="0"
       inkscape:randomized="0"
       d="m 48.907826,76.113011 -6.63951,-1.779052 4.860458,-4.860458 z"
       inkscape:transform-center-x="0.51356842"
       inkscape:transform-center-y="-0.51356876" />
    <path
       sodipodi:type="star"
       style="fill:#ff0000;fill-opacity:1;stroke:none;stroke-width:0.26499999;stroke-miterlimit:4;stroke-dasharray:none;stroke-opacity:1"
       id="path8485-1"
       sodipodi:sides="3"
       sodipodi:cx="59.443492"
       sodipodi:cy="102.68402"
       sodipodi:r1="3.9685476"
       sodipodi:r2="1.9842738"
       sodipodi:arg1="0.78539816"
       sodipodi:arg2="1.8325957"
       inkscape:flatsided="true"
       inkscape:rounded="0"
       inkscape:randomized="0"
       d="m 62.24968,105.49021 -6.63951,-1.77905 4.860459,-4.860462 z"
       inkscape:transform-center-x="0.51356842"
       inkscape:transform-center-y="-0.51356876" />
    <path
       sodipodi:type="star"
       style="fill:#ff0000;fill-opacity:1;stroke:none;stroke-width:0.26499999;stroke-miterlimit:4;stroke-dasharray:none;stroke-opacity:1"
       id="path8485-3"
       sodipodi:sides="3"
       sodipodi:cx="81.492103"
       sodipodi:cy="87.450437"
       sodipodi:r1="3.9685476"
       sodipodi:r2="1.9842738"
       sodipodi:arg1="0.78539816"
       sodipodi:arg2="1.8325957"
       inkscape:flatsided="true"
       inkscape:rounded="0"
       inkscape:randomized="0"
       d="m 84.29829,90.256626 -6.639509,-1.779051 4.860458,-4.860458 z"
       inkscape:transform-center-x="0.51356842"
       inkscape:transform-center-y="-0.51356876" />
    <path
       sodipodi:type="star"
       style="fill:#ff0000;fill-opacity:1;stroke:none;stroke-width:0.26499999;stroke-miterlimit:4;stroke-dasharray:none;stroke-opacity:1"
       id="path8485-5"
       sodipodi:sides="3"
       sodipodi:cx="81.492103"
       sodipodi:cy="87.450437"
       sodipodi:r1="3.9685476"
       sodipodi:r2="1.9842738"
       sodipodi:arg1="0.78539816"
       sodipodi:arg2="1.8325957"
       inkscape:flatsided="true"
       inkscape:rounded="0"
       inkscape:randomized="0"
       d="m 84.29829,90.256626 -6.639509,-1.779051 4.860458,-4.860458 z"
       inkscape:transform-center-x="0.51356842"
       inkscape:transform-center-y="-0.51356876" />
    <path
       sodipodi:type="star"
       style="fill:#ff0000;fill-opacity:1;stroke:none;stroke-width:0.26499999;stroke-miterlimit:4;stroke-dasharray:none;stroke-opacity:1"
       id="path8485-9"
       sodipodi:sides="3"
       sodipodi:cx="78.685916"
       sodipodi:cy="75.023038"
       sodipodi:r1="3.9685476"
       sodipodi:r2="1.9842738"
       sodipodi:arg1="0.78539816"
       sodipodi:arg2="1.8325957"
       inkscape:flatsided="true"
       inkscape:rounded="0"
       inkscape:randomized="0"
       d="m 81.4921,77.829228 -6.63951,-1.779052 4.860459,-4.860458 z"
       inkscape:transform-center-x="0.51356842"
       inkscape:transform-center-y="-0.51356876" />
    <path
       sodipodi:type="star"
       style="fill:#ff0000;fill-opacity:1;stroke:none;stroke-width:0.26499999;stroke-miterlimit:4;stroke-dasharray:none;stroke-opacity:1"
       id="path8485-99"
       sodipodi:sides="3"
       sodipodi:cx="71.470007"
       sodipodi:cy="94.666346"
       sodipodi:r1="3.9685476"
       sodipodi:r2="1.9842738"
       sodipodi:arg1="0.78539816"
       sodipodi:arg2="1.8325957"
       inkscape:flatsided="true"
       inkscape:rounded="0"
       inkscape:randomized="0"
       d="m 74.276196,97.472531 -6.63951,-1.779052 4.860459,-4.860458 z"
       inkscape:transform-center-x="0.51356842"
       inkscape:transform-center-y="-0.51356876" />
    <path
       sodipodi:type="star"
       style="fill:#ff0000;fill-opacity:1;stroke:none;stroke-width:0.26499999;stroke-miterlimit:4;stroke-dasharray:none;stroke-opacity:1"
       id="path8485-37"
       sodipodi:sides="3"
       sodipodi:cx="57.038189"
       sodipodi:cy="84.64425"
       sodipodi:r1="3.9685476"
       sodipodi:r2="1.9842738"
       sodipodi:arg1="0.78539816"
       sodipodi:arg2="1.8325957"
       inkscape:flatsided="true"
       inkscape:rounded="0"
       inkscape:randomized="0"
       d="m 59.844376,87.450436 -6.63951,-1.779051 4.860459,-4.860459 z"
       inkscape:transform-center-x="0.51356842"
       inkscape:transform-center-y="-0.51356876" />
    <path
       sodipodi:type="star"
       style="fill:#ff0000;fill-opacity:1;stroke:none;stroke-width:0.26499999;stroke-miterlimit:4;stroke-dasharray:none;stroke-opacity:1"
       id="path8485-6"
       sodipodi:sides="3"
       sodipodi:cx="60.24526"
       sodipodi:cy="63.79829"
       sodipodi:r1="3.9685476"
       sodipodi:r2="1.9842738"
       sodipodi:arg1="0.78539816"
       sodipodi:arg2="1.8325957"
       inkscape:flatsided="true"
       inkscape:rounded="0"
       inkscape:randomized="0"
       d="m 63.051445,66.604477 -6.639509,-1.779051 4.860458,-4.860458 z"
       inkscape:transform-center-x="0.51356842"
       inkscape:transform-center-y="-0.51356876" />
    <path
       sodipodi:type="star"
       style="fill:#ff0000;fill-opacity:1;stroke:none;stroke-width:0.26499999;stroke-miterlimit:4;stroke-dasharray:none;stroke-opacity:1"
       id="path8485-66"
       sodipodi:sides="3"
       sodipodi:cx="101.13541"
       sodipodi:cy="84.243366"
       sodipodi:r1="3.9685476"
       sodipodi:r2="1.9842738"
       sodipodi:arg1="0.78539816"
       sodipodi:arg2="1.8325957"
       inkscape:flatsided="true"
       inkscape:rounded="0"
       inkscape:randomized="0"
       d="M 103.94159,87.049549 97.302084,85.270498 102.16254,80.41004 Z"
       inkscape:transform-center-x="0.51356842"
       inkscape:transform-center-y="-0.51356876" />
    <path
       sodipodi:type="star"
       style="fill:#ff0000;fill-opacity:1;stroke:none;stroke-width:0.26499999;stroke-miterlimit:4;stroke-dasharray:none;stroke-opacity:1"
       id="path8485-95"
       sodipodi:sides="3"
       sodipodi:cx="85.100058"
       sodipodi:cy="98.675184"
       sodipodi:r1="3.9685476"
       sodipodi:r2="1.9842738"
       sodipodi:arg1="0.78539816"
       sodipodi:arg2="1.8325957"
       inkscape:flatsided="true"
       inkscape:rounded="0"
       inkscape:randomized="0"
       d="m 87.906246,101.48137 -6.639509,-1.779048 4.860458,-4.860458 z"
       inkscape:transform-center-x="0.51356842"
       inkscape:transform-center-y="-0.51356876" />
    <path
       style="fill:none;stroke:#000000;stroke-width:0.3204796px;stroke-linecap:butt;stroke-linejoin:miter;stroke-opacity:1"
       d="M 22.432137,174.35394 C 21.647862,54.699749 20.863587,54.098473 20.863587,54.098473"
       id="path8550"
       inkscape:connector-curvature="0" />
  </g>
</svg>
