<?xml version="1.0" encoding="UTF-8" standalone="no"?>
<!-- Created with Inkscape (http://www.inkscape.org/) -->

<svg
   xmlns:dc="http://purl.org/dc/elements/1.1/"
   xmlns:cc="http://creativecommons.org/ns#"
   xmlns:rdf="http://www.w3.org/1999/02/22-rdf-syntax-ns#"
   xmlns:svg="http://www.w3.org/2000/svg"
   xmlns="http://www.w3.org/2000/svg"
   xmlns:sodipodi="http://sodipodi.sourceforge.net/DTD/sodipodi-0.dtd"
   xmlns:inkscape="http://www.inkscape.org/namespaces/inkscape"
   width="210mm"
   height="193mm"
   viewBox="0 0 210 193"
   version="1.1"
   id="svg4995"
   inkscape:version="0.92.2 (5c3e80d, 2017-08-06)"
   sodipodi:docname="Cluster.svg"
   inkscape:export-filename="C:\Users\Laura\Documents\GitHub\LaTexSeminar\bilder\Cluster.pdf.png"
   inkscape:export-xdpi="96"
   inkscape:export-ydpi="96">
  <defs
     id="defs4989" />
  <sodipodi:namedview
     id="base"
     pagecolor="#ffffff"
     bordercolor="#666666"
     borderopacity="1.0"
     inkscape:pageopacity="0.0"
     inkscape:pageshadow="2"
     inkscape:zoom="0.66"
     inkscape:cx="415.85823"
     inkscape:cy="560"
     inkscape:document-units="mm"
     inkscape:current-layer="layer1"
     showgrid="false"
     inkscape:window-width="1920"
     inkscape:window-height="986"
     inkscape:window-x="-11"
     inkscape:window-y="-11"
     inkscape:window-maximized="1" />
  <metadata
     id="metadata4992">
    <rdf:RDF>
      <cc:Work
         rdf:about="">
        <dc:format>image/svg+xml</dc:format>
        <dc:type
           rdf:resource="http://purl.org/dc/dcmitype/StillImage" />
        <dc:title></dc:title>
      </cc:Work>
    </rdf:RDF>
  </metadata>
  <g
     inkscape:label="Ebene 1"
     inkscape:groupmode="layer"
     id="layer1"
     transform="translate(0,-104)">
    <path
       style="fill:none;stroke:#000000;stroke-width:0.35596862px;stroke-linecap:butt;stroke-linejoin:miter;stroke-opacity:1"
       d="M 5.8761932,292.02265 C 204.72464,289.25047 205.2493,289.25047 205.2493,289.25047"
       id="path7699"
       inkscape:connector-curvature="0"
       inkscape:export-xdpi="96"
       inkscape:export-ydpi="96" />
    <path
       sodipodi:type="star"
       style="fill:none;fill-opacity:1;stroke:#f50000;stroke-width:0.26499999;stroke-miterlimit:4;stroke-dasharray:none;stroke-opacity:1"
       id="path8293"
       sodipodi:sides="72"
       sodipodi:cx="61.655544"
       sodipodi:cy="82.289192"
       sodipodi:r1="30.909678"
       sodipodi:r2="19.443964"
       sodipodi:arg1="0.81291416"
       sodipodi:arg2="0.85654736"
       inkscape:flatsided="true"
       inkscape:rounded="0"
       inkscape:randomized="0"
       d="m 82.902387,104.73869 -2.037453,1.76635 -2.183648,1.58206 -2.313224,1.38573 -2.425196,1.17884 -2.518709,0.96298 -2.593054,0.7398 -2.647665,0.51098 -2.682125,0.27828 -2.696172,0.0435 -2.6897,-0.19169 -2.662758,-0.42539 -2.61555,-0.65584 -2.548437,-0.88131 -2.461928,-1.10007 -2.356683,-1.31045 -2.233502,-1.51086 -2.093322,-1.69977 -1.937212,-1.87575 -1.766357,-2.03746 -1.58206,-2.183646 -1.385722,-2.313224 -1.178839,-2.425196 -0.962983,-2.518709 -0.739798,-2.593054 -0.510984,-2.647665 -0.27828,-2.682125 -0.04346,-2.696172 0.191694,-2.6897 0.425387,-2.662758 0.655843,-2.61555 0.881307,-2.548437 1.100065,-2.461928 1.31045,-2.356683 1.510862,-2.233502 1.699774,-2.093322 1.875752,-1.937212 2.037453,-1.766357 2.183648,-1.58206 2.313225,-1.385722 2.425195,-1.178839 2.518709,-0.962983 2.593055,-0.739798 2.647665,-0.510984 2.682124,-0.27828 2.696173,-0.04346 2.6897,0.191694 2.662757,0.425387 2.615551,0.655843 2.548436,0.881307 2.461929,1.100065 2.356683,1.31045 2.233501,1.510862 2.093323,1.699774 1.937211,1.875752 1.766357,2.037453 1.582061,2.183648 1.385722,2.313225 1.178838,2.425195 0.962983,2.518709 0.739799,2.593055 0.510983,2.647665 0.278281,2.682124 0.04346,2.696172 -0.191693,2.689701 -0.425387,2.662757 -0.655843,2.615551 -0.881308,2.548436 -1.100065,2.461929 -1.310449,2.356682 -1.510862,2.233499 -1.699775,2.09333 z"
       transform="matrix(1.6506308,0,0,1.383038,-34.019808,50.918292)"
       inkscape:export-xdpi="96"
       inkscape:export-ydpi="96" />
    <path
       sodipodi:type="star"
       style="fill:none;fill-opacity:1;stroke:#002bf5;stroke-width:0.26499999;stroke-miterlimit:4;stroke-dasharray:none;stroke-opacity:1"
       id="path8293-0"
       sodipodi:sides="72"
       sodipodi:cx="61.655544"
       sodipodi:cy="82.289192"
       sodipodi:r1="30.909678"
       sodipodi:r2="19.443964"
       sodipodi:arg1="0.81291416"
       sodipodi:arg2="0.85654736"
       inkscape:flatsided="true"
       inkscape:rounded="0"
       inkscape:randomized="0"
       d="m 82.902387,104.73869 -2.037453,1.76635 -2.183648,1.58206 -2.313224,1.38573 -2.425196,1.17884 -2.518709,0.96298 -2.593054,0.7398 -2.647665,0.51098 -2.682125,0.27828 -2.696172,0.0435 -2.6897,-0.19169 -2.662758,-0.42539 -2.61555,-0.65584 -2.548437,-0.88131 -2.461928,-1.10007 -2.356683,-1.31045 -2.233502,-1.51086 -2.093322,-1.69977 -1.937212,-1.87575 -1.766357,-2.03746 -1.58206,-2.183646 -1.385722,-2.313224 -1.178839,-2.425196 -0.962983,-2.518709 -0.739798,-2.593054 -0.510984,-2.647665 -0.27828,-2.682125 -0.04346,-2.696172 0.191694,-2.6897 0.425387,-2.662758 0.655843,-2.61555 0.881307,-2.548437 1.100065,-2.461928 1.31045,-2.356683 1.510862,-2.233502 1.699774,-2.093322 1.875752,-1.937212 2.037453,-1.766357 2.183648,-1.58206 2.313225,-1.385722 2.425195,-1.178839 2.518709,-0.962983 2.593055,-0.739798 2.647665,-0.510984 2.682124,-0.27828 2.696173,-0.04346 2.6897,0.191694 2.662757,0.425387 2.615551,0.655843 2.548436,0.881307 2.461929,1.100065 2.356683,1.31045 2.233501,1.510862 2.093323,1.699774 1.937211,1.875752 1.766357,2.037453 1.582061,2.183648 1.385722,2.313225 1.178838,2.425195 0.962983,2.518709 0.739799,2.593055 0.510983,2.647665 0.278281,2.682124 0.04346,2.696172 -0.191693,2.689701 -0.425387,2.662757 -0.655843,2.615551 -0.881308,2.548436 -1.100065,2.461929 -1.310449,2.356682 -1.510862,2.233499 -1.699775,2.09333 z"
       transform="matrix(1.4076476,0,0,1.9322713,68.254451,64.484729)"
       inkscape:export-xdpi="96"
       inkscape:export-ydpi="96" />
    <path
       sodipodi:type="star"
       style="fill:none;fill-opacity:1;stroke:#17ba19;stroke-width:0.26499999;stroke-miterlimit:4;stroke-dasharray:none;stroke-opacity:1"
       id="path8293-7"
       sodipodi:sides="72"
       sodipodi:cx="61.655544"
       sodipodi:cy="82.289192"
       sodipodi:r1="30.909678"
       sodipodi:r2="19.443964"
       sodipodi:arg1="0.81291416"
       sodipodi:arg2="0.85654736"
       inkscape:flatsided="true"
       inkscape:rounded="0"
       inkscape:randomized="0"
       d="m 82.902387,104.73869 -2.037453,1.76635 -2.183648,1.58206 -2.313224,1.38573 -2.425196,1.17884 -2.518709,0.96298 -2.593054,0.7398 -2.647665,0.51098 -2.682125,0.27828 -2.696172,0.0435 -2.6897,-0.19169 -2.662758,-0.42539 -2.61555,-0.65584 -2.548437,-0.88131 -2.461928,-1.10007 -2.356683,-1.31045 -2.233502,-1.51086 -2.093322,-1.69977 -1.937212,-1.87575 -1.766357,-2.03746 -1.58206,-2.183646 -1.385722,-2.313224 -1.178839,-2.425196 -0.962983,-2.518709 -0.739798,-2.593054 -0.510984,-2.647665 -0.27828,-2.682125 -0.04346,-2.696172 0.191694,-2.6897 0.425387,-2.662758 0.655843,-2.61555 0.881307,-2.548437 1.100065,-2.461928 1.31045,-2.356683 1.510862,-2.233502 1.699774,-2.093322 1.875752,-1.937212 2.037453,-1.766357 2.183648,-1.58206 2.313225,-1.385722 2.425195,-1.178839 2.518709,-0.962983 2.593055,-0.739798 2.647665,-0.510984 2.682124,-0.27828 2.696173,-0.04346 2.6897,0.191694 2.662757,0.425387 2.615551,0.655843 2.548436,0.881307 2.461929,1.100065 2.356683,1.31045 2.233501,1.510862 2.093323,1.699774 1.937211,1.875752 1.766357,2.037453 1.582061,2.183648 1.385722,2.313225 1.178838,2.425195 0.962983,2.518709 0.739799,2.593055 0.510983,2.647665 0.278281,2.682124 0.04346,2.696172 -0.191693,2.689701 -0.425387,2.662757 -0.655843,2.615551 -0.881308,2.548436 -1.100065,2.461929 -1.310449,2.356682 -1.510862,2.233499 -1.699775,2.09333 z"
       transform="matrix(1.4159629,0.6376148,-0.41519552,1.0296401,3.8800866,130.29627)"
       inkscape:transform-center-x="-8.9193192"
       inkscape:transform-center-y="-4.435497"
       inkscape:export-xdpi="96"
       inkscape:export-ydpi="96" />
    <rect
       style="fill:#17ba19;fill-opacity:1;stroke:#17ba19;stroke-width:0.35652924;stroke-miterlimit:4;stroke-dasharray:none;stroke-opacity:1"
       id="rect8343"
       width="5.7713265"
       height="7.2076883"
       x="25.288836"
       y="236.5789"
       inkscape:export-xdpi="96"
       inkscape:export-ydpi="96" />
    <rect
       style="fill:#17ba19;fill-opacity:1;stroke:#17ba19;stroke-width:0.35652924;stroke-miterlimit:4;stroke-dasharray:none;stroke-opacity:1"
       id="rect8343-3"
       width="5.7713265"
       height="7.2076888"
       x="51.259811"
       y="236.3017"
       inkscape:export-xdpi="96"
       inkscape:export-ydpi="96" />
    <rect
       style="fill:#17ba19;fill-opacity:1;stroke:#17ba19;stroke-width:0.35652924;stroke-miterlimit:4;stroke-dasharray:none;stroke-opacity:1"
       id="rect8343-2"
       width="5.7713265"
       height="7.2076888"
       x="65.950462"
       y="266.79575"
       inkscape:export-xdpi="96"
       inkscape:export-ydpi="96" />
    <rect
       style="fill:#17ba19;fill-opacity:1;stroke:#17ba19;stroke-width:0.35652924;stroke-miterlimit:4;stroke-dasharray:none;stroke-opacity:1"
       id="rect8343-8"
       width="5.7713265"
       height="7.2076888"
       x="33.945835"
       y="255.15257"
       inkscape:export-xdpi="96"
       inkscape:export-ydpi="96" />
    <rect
       style="fill:#17ba19;fill-opacity:1;stroke:#17ba19;stroke-width:0.35652924;stroke-miterlimit:4;stroke-dasharray:none;stroke-opacity:1"
       id="rect8343-9"
       width="5.7713265"
       height="7.2076888"
       x="73.82045"
       y="247.94489"
       inkscape:export-xdpi="96"
       inkscape:export-ydpi="96" />
    <rect
       style="fill:#17ba19;fill-opacity:1;stroke:#17ba19;stroke-width:0.35652924;stroke-miterlimit:4;stroke-dasharray:none;stroke-opacity:1"
       id="rect8343-1"
       width="5.7713265"
       height="7.2076888"
       x="50.210484"
       y="256.81589"
       inkscape:export-xdpi="96"
       inkscape:export-ydpi="96" />
    <rect
       style="fill:#17ba19;fill-opacity:1;stroke:#17ba19;stroke-width:0.35652924;stroke-miterlimit:4;stroke-dasharray:none;stroke-opacity:1"
       id="rect8343-6"
       width="5.7713265"
       height="7.2076888"
       x="89.560432"
       y="260.69696"
       inkscape:export-xdpi="96"
       inkscape:export-ydpi="96" />
    <rect
       style="fill:#17ba19;fill-opacity:1;stroke:#17ba19;stroke-width:0.35652924;stroke-miterlimit:4;stroke-dasharray:none;stroke-opacity:1"
       id="rect8343-5"
       width="5.7713265"
       height="7.2076888"
       x="48.636482"
       y="277.33008"
       inkscape:export-xdpi="96"
       inkscape:export-ydpi="96" />
    <rect
       style="fill:#17ba19;fill-opacity:1;stroke:#17ba19;stroke-width:0.35652924;stroke-miterlimit:4;stroke-dasharray:none;stroke-opacity:1"
       id="rect8343-99"
       width="5.7713265"
       height="7.2076888"
       x="36.56916"
       y="221.88631"
       inkscape:export-xdpi="96"
       inkscape:export-ydpi="96" />
    <path
       style="fill:#0000ff;fill-opacity:1;stroke:none;stroke-width:0.35652924;stroke-miterlimit:4;stroke-dasharray:none;stroke-opacity:1"
       id="path8411"
       sodipodi:type="arc"
       sodipodi:cx="135.37175"
       sodipodi:cy="177.94261"
       sodipodi:rx="4.2942829"
       sodipodi:ry="4.3014097"
       sodipodi:start="1.6210164"
       sodipodi:end="1.6031512"
       d="m 135.15618,182.2386 a 4.2942829,4.3014097 0 0 1 -4.07422,-4.49273 4.2942829,4.3014097 0 0 1 4.46704,-4.101 4.2942829,4.3014097 0 0 1 4.11412,4.45609 4.2942829,4.3014097 0 0 1 -4.43029,4.14081 l 0.13892,-4.29916 z"
       inkscape:export-xdpi="96"
       inkscape:export-ydpi="96" />
    <path
       style="fill:#0000ff;fill-opacity:1;stroke:none;stroke-width:0.35652924;stroke-miterlimit:4;stroke-dasharray:none;stroke-opacity:1"
       id="path8411-0"
       sodipodi:type="arc"
       sodipodi:cx="148.58539"
       sodipodi:cy="238.24074"
       sodipodi:rx="4.2942829"
       sodipodi:ry="4.3014097"
       sodipodi:start="1.6210164"
       sodipodi:end="1.6031512"
       d="m 148.36982,242.53672 a 4.2942829,4.3014097 0 0 1 -4.07422,-4.49272 4.2942829,4.3014097 0 0 1 4.46704,-4.10101 4.2942829,4.3014097 0 0 1 4.11412,4.4561 4.2942829,4.3014097 0 0 1 -4.43029,4.14081 l 0.13892,-4.29916 z"
       inkscape:export-xdpi="96"
       inkscape:export-ydpi="96" />
    <path
       style="fill:#0000ff;fill-opacity:1;stroke:none;stroke-width:0.35652924;stroke-miterlimit:4;stroke-dasharray:none;stroke-opacity:1"
       id="path8411-4"
       sodipodi:type="arc"
       sodipodi:cx="128.64806"
       sodipodi:cy="-242.67921"
       sodipodi:rx="4.2942829"
       sodipodi:ry="4.3014097"
       sodipodi:start="1.6210164"
       sodipodi:end="1.6031512"
       d="m 128.43249,-238.38323 a 4.2942829,4.3014097 0 0 1 -4.07422,-4.49272 4.2942829,4.3014097 0 0 1 4.46704,-4.10101 4.2942829,4.3014097 0 0 1 4.11412,4.45609 4.2942829,4.3014097 0 0 1 -4.43029,4.14081 l 0.13892,-4.29915 z"
       transform="scale(1,-1)"
       inkscape:export-xdpi="96"
       inkscape:export-ydpi="96" />
    <path
       style="fill:#0000ff;fill-opacity:1;stroke:none;stroke-width:0.35652924;stroke-miterlimit:4;stroke-dasharray:none;stroke-opacity:1"
       id="path8411-1"
       sodipodi:type="arc"
       sodipodi:cx="167.47336"
       sodipodi:cy="257.09161"
       sodipodi:rx="4.2942829"
       sodipodi:ry="4.3014097"
       sodipodi:start="1.6210164"
       sodipodi:end="1.6031512"
       d="m 167.25779,261.3876 a 4.2942829,4.3014097 0 0 1 -4.07422,-4.49272 4.2942829,4.3014097 0 0 1 4.46704,-4.10101 4.2942829,4.3014097 0 0 1 4.11412,4.45609 4.2942829,4.3014097 0 0 1 -4.43029,4.14081 l 0.13892,-4.29916 z"
       inkscape:export-xdpi="96"
       inkscape:export-ydpi="96" />
    <path
       style="fill:#0000ff;fill-opacity:1;stroke:none;stroke-width:0.35652924;stroke-miterlimit:4;stroke-dasharray:none;stroke-opacity:1"
       id="path8411-3"
       sodipodi:type="arc"
       sodipodi:cx="179.5407"
       sodipodi:cy="234.91411"
       sodipodi:rx="4.2942829"
       sodipodi:ry="4.3014097"
       sodipodi:start="1.6210164"
       sodipodi:end="1.6031512"
       d="m 179.32513,239.21009 a 4.2942829,4.3014097 0 0 1 -4.07422,-4.49272 4.2942829,4.3014097 0 0 1 4.46703,-4.10101 4.2942829,4.3014097 0 0 1 4.11413,4.4561 4.2942829,4.3014097 0 0 1 -4.43029,4.14081 l 0.13892,-4.29916 z"
       inkscape:export-xdpi="96"
       inkscape:export-ydpi="96" />
    <path
       style="fill:#0000ff;fill-opacity:1;stroke:none;stroke-width:0.35652924;stroke-miterlimit:4;stroke-dasharray:none;stroke-opacity:1"
       id="path8411-5"
       sodipodi:type="arc"
       sodipodi:cx="161.70203"
       sodipodi:cy="206.08334"
       sodipodi:rx="4.2942829"
       sodipodi:ry="4.3014097"
       sodipodi:start="1.6210164"
       sodipodi:end="1.6031512"
       d="m 161.48646,210.37933 a 4.2942829,4.3014097 0 0 1 -4.07422,-4.49272 4.2942829,4.3014097 0 0 1 4.46704,-4.10101 4.2942829,4.3014097 0 0 1 4.11412,4.45609 4.2942829,4.3014097 0 0 1 -4.43029,4.14081 l 0.13892,-4.29916 z"
       inkscape:export-xdpi="96"
       inkscape:export-ydpi="96" />
    <path
       style="fill:#0000ff;fill-opacity:1;stroke:none;stroke-width:0.35652924;stroke-miterlimit:4;stroke-dasharray:none;stroke-opacity:1"
       id="path8411-58"
       sodipodi:type="arc"
       sodipodi:cx="130.74673"
       sodipodi:cy="217.72655"
       sodipodi:rx="4.2942829"
       sodipodi:ry="4.3014097"
       sodipodi:start="1.6210164"
       sodipodi:end="1.6031512"
       d="m 130.53117,222.02253 a 4.2942829,4.3014097 0 0 1 -4.07422,-4.49272 4.2942829,4.3014097 0 0 1 4.46703,-4.10101 4.2942829,4.3014097 0 0 1 4.11413,4.45609 4.2942829,4.3014097 0 0 1 -4.43029,4.14082 l 0.13891,-4.29916 z"
       inkscape:export-xdpi="96"
       inkscape:export-ydpi="96" />
    <path
       style="fill:#0000ff;fill-opacity:1;stroke:none;stroke-width:0.35652924;stroke-miterlimit:4;stroke-dasharray:none;stroke-opacity:1"
       id="path8411-2"
       sodipodi:type="arc"
       sodipodi:cx="146.48669"
       sodipodi:cy="272.61588"
       sodipodi:rx="4.2942829"
       sodipodi:ry="4.3014097"
       sodipodi:start="1.6210164"
       sodipodi:end="1.6031512"
       d="m 146.27113,276.91186 a 4.2942829,4.3014097 0 0 1 -4.07422,-4.49272 4.2942829,4.3014097 0 0 1 4.46703,-4.10101 4.2942829,4.3014097 0 0 1 4.11413,4.45609 4.2942829,4.3014097 0 0 1 -4.43029,4.14081 l 0.13891,-4.29915 z"
       inkscape:export-xdpi="96"
       inkscape:export-ydpi="96" />
    <path
       style="fill:#0000ff;fill-opacity:1;stroke:none;stroke-width:0.35652924;stroke-miterlimit:4;stroke-dasharray:none;stroke-opacity:1"
       id="path8411-9"
       sodipodi:type="arc"
       sodipodi:cx="145.96205"
       sodipodi:cy="193.33131"
       sodipodi:rx="4.2942829"
       sodipodi:ry="4.3014097"
       sodipodi:start="1.6210164"
       sodipodi:end="1.6031512"
       d="m 145.74648,197.6273 a 4.2942829,4.3014097 0 0 1 -4.07422,-4.49272 4.2942829,4.3014097 0 0 1 4.46704,-4.10101 4.2942829,4.3014097 0 0 1 4.11412,4.45609 4.2942829,4.3014097 0 0 1 -4.43029,4.14081 l 0.13892,-4.29916 z"
       inkscape:export-xdpi="96"
       inkscape:export-ydpi="96" />
    <path
       style="fill:#0000ff;fill-opacity:1;stroke:none;stroke-width:0.35652924;stroke-miterlimit:4;stroke-dasharray:none;stroke-opacity:1"
       id="path8411-6"
       sodipodi:type="arc"
       sodipodi:cx="179.5407"
       sodipodi:cy="201.09341"
       sodipodi:rx="4.2942829"
       sodipodi:ry="4.3014097"
       sodipodi:start="1.6210164"
       sodipodi:end="1.6031512"
       d="m 179.32513,205.3894 a 4.2942829,4.3014097 0 0 1 -4.07422,-4.49272 4.2942829,4.3014097 0 0 1 4.46703,-4.10101 4.2942829,4.3014097 0 0 1 4.11413,4.45609 4.2942829,4.3014097 0 0 1 -4.43029,4.14081 l 0.13892,-4.29916 z"
       inkscape:export-xdpi="96"
       inkscape:export-ydpi="96" />
    <path
       style="fill:#0000ff;fill-opacity:1;stroke:none;stroke-width:0.35652924;stroke-miterlimit:4;stroke-dasharray:none;stroke-opacity:1"
       id="path8411-32"
       sodipodi:type="arc"
       sodipodi:cx="160.12804"
       sodipodi:cy="172.81711"
       sodipodi:rx="4.2942829"
       sodipodi:ry="4.3014097"
       sodipodi:start="1.6210164"
       sodipodi:end="1.6031512"
       d="m 159.91247,177.11309 a 4.2942829,4.3014097 0 0 1 -4.07422,-4.49272 4.2942829,4.3014097 0 0 1 4.46704,-4.10101 4.2942829,4.3014097 0 0 1 4.11412,4.4561 4.2942829,4.3014097 0 0 1 -4.43029,4.14081 l 0.13892,-4.29916 z"
       inkscape:export-xdpi="96"
       inkscape:export-ydpi="96" />
    <path
       sodipodi:type="star"
       style="fill:#ff0000;fill-opacity:1;stroke:none;stroke-width:0.26499999;stroke-miterlimit:4;stroke-dasharray:none;stroke-opacity:1"
       id="path8485"
       sodipodi:sides="3"
       sodipodi:cx="46.101639"
       sodipodi:cy="73.306824"
       sodipodi:r1="3.9685476"
       sodipodi:r2="1.9842738"
       sodipodi:arg1="0.78539816"
       sodipodi:arg2="1.8325957"
       inkscape:flatsided="true"
       inkscape:rounded="0"
       inkscape:randomized="0"
       d="m 48.907826,76.113011 -6.63951,-1.779052 4.860458,-4.860458 z"
       inkscape:transform-center-x="0.67214462"
       inkscape:transform-center-y="-0.71027919"
       transform="matrix(1.3087734,0,0,1.383038,-23.505109,50.918292)"
       inkscape:export-xdpi="96"
       inkscape:export-ydpi="96" />
    <path
       sodipodi:type="star"
       style="fill:#ff0000;fill-opacity:1;stroke:none;stroke-width:0.26499999;stroke-miterlimit:4;stroke-dasharray:none;stroke-opacity:1"
       id="path8485-1"
       sodipodi:sides="3"
       sodipodi:cx="59.443493"
       sodipodi:cy="102.68402"
       sodipodi:r1="3.9685476"
       sodipodi:r2="1.9842738"
       sodipodi:arg1="0.78539816"
       sodipodi:arg2="1.8325957"
       inkscape:flatsided="true"
       inkscape:rounded="0"
       inkscape:randomized="0"
       d="m 62.24968,105.49021 -6.63951,-1.77905 4.860459,-4.860462 z"
       inkscape:transform-center-x="0.67214445"
       inkscape:transform-center-y="-0.71027703"
       transform="matrix(1.3087734,0,0,1.383038,-23.505109,50.918292)"
       inkscape:export-xdpi="96"
       inkscape:export-ydpi="96" />
    <path
       sodipodi:type="star"
       style="fill:#ff0000;fill-opacity:1;stroke:none;stroke-width:0.26499999;stroke-miterlimit:4;stroke-dasharray:none;stroke-opacity:1"
       id="path8485-3"
       sodipodi:sides="3"
       sodipodi:cx="81.492104"
       sodipodi:cy="87.450439"
       sodipodi:r1="3.9685476"
       sodipodi:r2="1.9842738"
       sodipodi:arg1="0.78539816"
       sodipodi:arg2="1.8325957"
       inkscape:flatsided="true"
       inkscape:rounded="0"
       inkscape:randomized="0"
       d="m 84.29829,90.256626 -6.639509,-1.779051 4.860458,-4.860458 z"
       inkscape:transform-center-x="0.67214417"
       inkscape:transform-center-y="-0.71027815"
       transform="matrix(1.3087734,0,0,1.383038,-23.505109,50.918292)"
       inkscape:export-xdpi="96"
       inkscape:export-ydpi="96" />
    <path
       sodipodi:type="star"
       style="fill:#ff0000;fill-opacity:1;stroke:none;stroke-width:0.26499999;stroke-miterlimit:4;stroke-dasharray:none;stroke-opacity:1"
       id="path8485-5"
       sodipodi:sides="3"
       sodipodi:cx="81.492104"
       sodipodi:cy="87.450439"
       sodipodi:r1="3.9685476"
       sodipodi:r2="1.9842738"
       sodipodi:arg1="0.78539816"
       sodipodi:arg2="1.8325957"
       inkscape:flatsided="true"
       inkscape:rounded="0"
       inkscape:randomized="0"
       d="m 84.29829,90.256626 -6.639509,-1.779051 4.860458,-4.860458 z"
       inkscape:transform-center-x="0.67214417"
       inkscape:transform-center-y="-0.71027815"
       transform="matrix(1.3087734,0,0,1.383038,-23.505109,50.918292)"
       inkscape:export-xdpi="96"
       inkscape:export-ydpi="96" />
    <path
       sodipodi:type="star"
       style="fill:#ff0000;fill-opacity:1;stroke:none;stroke-width:0.26499999;stroke-miterlimit:4;stroke-dasharray:none;stroke-opacity:1"
       id="path8485-9"
       sodipodi:sides="3"
       sodipodi:cx="78.685913"
       sodipodi:cy="75.023041"
       sodipodi:r1="3.9685476"
       sodipodi:r2="1.9842738"
       sodipodi:arg1="0.78539816"
       sodipodi:arg2="1.8325957"
       inkscape:flatsided="true"
       inkscape:rounded="0"
       inkscape:randomized="0"
       d="m 81.4921,77.829228 -6.63951,-1.779052 4.860459,-4.860458 z"
       inkscape:transform-center-x="0.6721442"
       inkscape:transform-center-y="-0.71027906"
       transform="matrix(1.3087734,0,0,1.383038,-23.505109,50.918292)"
       inkscape:export-xdpi="96"
       inkscape:export-ydpi="96" />
    <path
       sodipodi:type="star"
       style="fill:#ff0000;fill-opacity:1;stroke:none;stroke-width:0.26499999;stroke-miterlimit:4;stroke-dasharray:none;stroke-opacity:1"
       id="path8485-99"
       sodipodi:sides="3"
       sodipodi:cx="71.470009"
       sodipodi:cy="94.666344"
       sodipodi:r1="3.9685476"
       sodipodi:r2="1.9842738"
       sodipodi:arg1="0.78539816"
       sodipodi:arg2="1.8325957"
       inkscape:flatsided="true"
       inkscape:rounded="0"
       inkscape:randomized="0"
       d="m 74.276196,97.472531 -6.63951,-1.779052 4.860459,-4.860458 z"
       inkscape:transform-center-x="0.6721443"
       inkscape:transform-center-y="-0.71027762"
       transform="matrix(1.3087734,0,0,1.383038,-23.505109,50.918292)"
       inkscape:export-xdpi="96"
       inkscape:export-ydpi="96" />
    <path
       sodipodi:type="star"
       style="fill:#ff0000;fill-opacity:1;stroke:none;stroke-width:0.26499999;stroke-miterlimit:4;stroke-dasharray:none;stroke-opacity:1"
       id="path8485-37"
       sodipodi:sides="3"
       sodipodi:cx="57.038189"
       sodipodi:cy="84.644249"
       sodipodi:r1="3.9685476"
       sodipodi:r2="1.9842738"
       sodipodi:arg1="0.78539816"
       sodipodi:arg2="1.8325957"
       inkscape:flatsided="true"
       inkscape:rounded="0"
       inkscape:randomized="0"
       d="m 59.844376,87.450436 -6.63951,-1.779051 4.860459,-4.860459 z"
       inkscape:transform-center-x="0.67214449"
       inkscape:transform-center-y="-0.71027836"
       transform="matrix(1.3087734,0,0,1.383038,-23.505109,50.918292)"
       inkscape:export-xdpi="96"
       inkscape:export-ydpi="96" />
    <path
       sodipodi:type="star"
       style="fill:#ff0000;fill-opacity:1;stroke:none;stroke-width:0.26499999;stroke-miterlimit:4;stroke-dasharray:none;stroke-opacity:1"
       id="path8485-6"
       sodipodi:sides="3"
       sodipodi:cx="60.245258"
       sodipodi:cy="63.79829"
       sodipodi:r1="3.9685476"
       sodipodi:r2="1.9842738"
       sodipodi:arg1="0.78539816"
       sodipodi:arg2="1.8325957"
       inkscape:flatsided="true"
       inkscape:rounded="0"
       inkscape:randomized="0"
       d="m 63.051445,66.604477 -6.639509,-1.779051 4.860458,-4.860458 z"
       inkscape:transform-center-x="0.67214444"
       inkscape:transform-center-y="-0.71027989"
       transform="matrix(1.3087734,0,0,1.383038,-23.505109,50.918292)"
       inkscape:export-xdpi="96"
       inkscape:export-ydpi="96" />
    <path
       sodipodi:type="star"
       style="fill:#ff0000;fill-opacity:1;stroke:none;stroke-width:0.26499999;stroke-miterlimit:4;stroke-dasharray:none;stroke-opacity:1"
       id="path8485-66"
       sodipodi:sides="3"
       sodipodi:cx="101.13541"
       sodipodi:cy="84.243362"
       sodipodi:r1="3.9685476"
       sodipodi:r2="1.9842738"
       sodipodi:arg1="0.78539816"
       sodipodi:arg2="1.8325957"
       inkscape:flatsided="true"
       inkscape:rounded="0"
       inkscape:randomized="0"
       d="M 103.94159,87.049549 97.302084,85.270498 102.16254,80.41004 Z"
       inkscape:transform-center-x="0.67214392"
       inkscape:transform-center-y="-0.71027839"
       transform="matrix(1.3087734,0,0,1.383038,-23.505109,50.918292)"
       inkscape:export-xdpi="96"
       inkscape:export-ydpi="96" />
    <path
       sodipodi:type="star"
       style="fill:#ff0000;fill-opacity:1;stroke:none;stroke-width:0.26499999;stroke-miterlimit:4;stroke-dasharray:none;stroke-opacity:1"
       id="path8485-95"
       sodipodi:sides="3"
       sodipodi:cx="85.10006"
       sodipodi:cy="98.675186"
       sodipodi:r1="3.9685476"
       sodipodi:r2="1.9842738"
       sodipodi:arg1="0.78539816"
       sodipodi:arg2="1.8325957"
       inkscape:flatsided="true"
       inkscape:rounded="0"
       inkscape:randomized="0"
       d="m 87.906246,101.48137 -6.639509,-1.779048 4.860458,-4.860458 z"
       inkscape:transform-center-x="0.67214413"
       inkscape:transform-center-y="-0.71027733"
       transform="matrix(1.3087734,0,0,1.383038,-23.505109,50.918292)"
       inkscape:export-xdpi="96"
       inkscape:export-ydpi="96" />
    <path
       style="fill:none;stroke:#000000;stroke-width:0.43117112px;stroke-linecap:butt;stroke-linejoin:miter;stroke-opacity:1"
       d="M 5.853476,292.0564 C 4.8270375,126.57012 3.8005991,125.73853 3.8005991,125.73853"
       id="path8550"
       inkscape:connector-curvature="0"
       inkscape:export-xdpi="96"
       inkscape:export-ydpi="96" />
    <path
       sodipodi:type="star"
       style="fill:#000000;fill-opacity:1;stroke:none;stroke-width:0.26458332;stroke-miterlimit:4;stroke-dasharray:2.11666651, 1.05833326;stroke-dashoffset:0;stroke-opacity:1"
       id="path9479"
       sodipodi:sides="3"
       sodipodi:cx="3.7612822"
       sodipodi:cy="128.07573"
       sodipodi:r1="2.3375344"
       sodipodi:r2="1.1687672"
       sodipodi:arg1="0.5404195"
       sodipodi:arg2="1.5876171"
       inkscape:flatsided="false"
       inkscape:rounded="0"
       inkscape:randomized="0"
       d="m 5.7657014,129.27838 -2.0240778,-0.0341 -2.0240778,-0.034 1.0415268,-1.73588 1.0415268,-1.73587 0.982551,1.76992 z"
       inkscape:transform-center-x="0.019659493"
       inkscape:transform-center-y="-0.56727634" />
    <path
       sodipodi:type="star"
       style="fill:#000000;fill-opacity:1;stroke:none;stroke-width:0.26458332;stroke-miterlimit:4;stroke-dasharray:2.11666653, 1.05833327;stroke-dashoffset:0;stroke-opacity:1"
       id="path9479-9"
       sodipodi:sides="3"
       sodipodi:cx="177.21033"
       sodipodi:cy="223.40376"
       sodipodi:r1="2.3375344"
       sodipodi:r2="1.1687672"
       sodipodi:arg1="0.5404195"
       sodipodi:arg2="1.5876171"
       inkscape:flatsided="false"
       inkscape:rounded="0"
       inkscape:randomized="0"
       d="m 179.21475,224.60641 -2.02408,-0.0341 -2.02408,-0.034 1.04153,-1.73588 1.04152,-1.73588 0.98256,1.76993 z"
       inkscape:transform-center-x="20.794161"
       inkscape:transform-center-y="10.56971"
       transform="rotate(81.823892,151.90922,271.31355)" />
  </g>
</svg>
