<?xml version="1.0" encoding="UTF-8" standalone="no"?>
<!-- Created with Inkscape (http://www.inkscape.org/) -->

<svg
   xmlns:dc="http://purl.org/dc/elements/1.1/"
   xmlns:cc="http://creativecommons.org/ns#"
   xmlns:rdf="http://www.w3.org/1999/02/22-rdf-syntax-ns#"
   xmlns:svg="http://www.w3.org/2000/svg"
   xmlns="http://www.w3.org/2000/svg"
   xmlns:sodipodi="http://sodipodi.sourceforge.net/DTD/sodipodi-0.dtd"
   xmlns:inkscape="http://www.inkscape.org/namespaces/inkscape"
   width="210mm"
   height="297mm"
   viewBox="0 0 210 297"
   version="1.1"
   id="svg4995"
   inkscape:version="0.92.2 (5c3e80d, 2017-08-06)"
   sodipodi:docname="Cluster.svg"
   inkscape:export-filename="C:\Users\Laura\Documents\GitHub\LaTexSeminar\bilder\Cluster.pdf.png"
   inkscape:export-xdpi="96"
   inkscape:export-ydpi="96">
  <defs
     id="defs4989" />
  <sodipodi:namedview
     id="base"
     pagecolor="#ffffff"
     bordercolor="#666666"
     borderopacity="1.0"
     inkscape:pageopacity="0.0"
     inkscape:pageshadow="2"
     inkscape:zoom="0.66"
     inkscape:cx="67.09212"
     inkscape:cy="560"
     inkscape:document-units="mm"
     inkscape:current-layer="layer1"
     showgrid="false"
     inkscape:window-width="1920"
     inkscape:window-height="986"
     inkscape:window-x="-11"
     inkscape:window-y="-11"
     inkscape:window-maximized="1" />
  <metadata
     id="metadata4992">
    <rdf:RDF>
      <cc:Work
         rdf:about="">
        <dc:format>image/svg+xml</dc:format>
        <dc:type
           rdf:resource="http://purl.org/dc/dcmitype/StillImage" />
        <dc:title></dc:title>
      </cc:Work>
    </rdf:RDF>
  </metadata>
  <g
     inkscape:label="Ebene 1"
     inkscape:groupmode="layer"
     id="layer1">
    <path
       style="fill:none;stroke:#000000;stroke-width:0.35596862px;stroke-linecap:butt;stroke-linejoin:miter;stroke-opacity:1"
       d="M 9.0832639,203.82821 C 207.93171,201.05603 208.45637,201.05603 208.45637,201.05603"
       id="path7699"
       inkscape:connector-curvature="0"
       inkscape:export-xdpi="96"
       inkscape:export-ydpi="96" />
    <path
       sodipodi:type="star"
       style="fill:none;fill-opacity:1;stroke:#f50000;stroke-width:0.26499999;stroke-miterlimit:4;stroke-dasharray:none;stroke-opacity:1"
       id="path8293"
       sodipodi:sides="72"
       sodipodi:cx="61.655544"
       sodipodi:cy="82.289192"
       sodipodi:r1="30.909678"
       sodipodi:r2="19.443964"
       sodipodi:arg1="0.81291416"
       sodipodi:arg2="0.85654736"
       inkscape:flatsided="true"
       inkscape:rounded="0"
       inkscape:randomized="0"
       d="m 82.902387,104.73869 -2.037453,1.76635 -2.183648,1.58206 -2.313224,1.38573 -2.425196,1.17884 -2.518709,0.96298 -2.593054,0.7398 -2.647665,0.51098 -2.682125,0.27828 -2.696172,0.0435 -2.6897,-0.19169 -2.662758,-0.42539 -2.61555,-0.65584 -2.548437,-0.88131 -2.461928,-1.10007 -2.356683,-1.31045 -2.233502,-1.51086 -2.093322,-1.69977 -1.937212,-1.87575 -1.766357,-2.03746 -1.58206,-2.183646 -1.385722,-2.313224 -1.178839,-2.425196 -0.962983,-2.518709 -0.739798,-2.593054 -0.510984,-2.647665 -0.27828,-2.682125 -0.04346,-2.696172 0.191694,-2.6897 0.425387,-2.662758 0.655843,-2.61555 0.881307,-2.548437 1.100065,-2.461928 1.31045,-2.356683 1.510862,-2.233502 1.699774,-2.093322 1.875752,-1.937212 2.037453,-1.766357 2.183648,-1.58206 2.313225,-1.385722 2.425195,-1.178839 2.518709,-0.962983 2.593055,-0.739798 2.647665,-0.510984 2.682124,-0.27828 2.696173,-0.04346 2.6897,0.191694 2.662757,0.425387 2.615551,0.655843 2.548436,0.881307 2.461929,1.100065 2.356683,1.31045 2.233501,1.510862 2.093323,1.699774 1.937211,1.875752 1.766357,2.037453 1.582061,2.183648 1.385722,2.313225 1.178838,2.425195 0.962983,2.518709 0.739799,2.593055 0.510983,2.647665 0.278281,2.682124 0.04346,2.696172 -0.191693,2.689701 -0.425387,2.662757 -0.655843,2.615551 -0.881308,2.548436 -1.100065,2.461929 -1.310449,2.356682 -1.510862,2.233499 -1.699775,2.09333 z"
       transform="matrix(1.6506308,0,0,1.383038,-30.812737,-37.276152)"
       inkscape:export-xdpi="96"
       inkscape:export-ydpi="96" />
    <path
       sodipodi:type="star"
       style="fill:none;fill-opacity:1;stroke:#002bf5;stroke-width:0.26499999;stroke-miterlimit:4;stroke-dasharray:none;stroke-opacity:1"
       id="path8293-0"
       sodipodi:sides="72"
       sodipodi:cx="61.655544"
       sodipodi:cy="82.289192"
       sodipodi:r1="30.909678"
       sodipodi:r2="19.443964"
       sodipodi:arg1="0.81291416"
       sodipodi:arg2="0.85654736"
       inkscape:flatsided="true"
       inkscape:rounded="0"
       inkscape:randomized="0"
       d="m 82.902387,104.73869 -2.037453,1.76635 -2.183648,1.58206 -2.313224,1.38573 -2.425196,1.17884 -2.518709,0.96298 -2.593054,0.7398 -2.647665,0.51098 -2.682125,0.27828 -2.696172,0.0435 -2.6897,-0.19169 -2.662758,-0.42539 -2.61555,-0.65584 -2.548437,-0.88131 -2.461928,-1.10007 -2.356683,-1.31045 -2.233502,-1.51086 -2.093322,-1.69977 -1.937212,-1.87575 -1.766357,-2.03746 -1.58206,-2.183646 -1.385722,-2.313224 -1.178839,-2.425196 -0.962983,-2.518709 -0.739798,-2.593054 -0.510984,-2.647665 -0.27828,-2.682125 -0.04346,-2.696172 0.191694,-2.6897 0.425387,-2.662758 0.655843,-2.61555 0.881307,-2.548437 1.100065,-2.461928 1.31045,-2.356683 1.510862,-2.233502 1.699774,-2.093322 1.875752,-1.937212 2.037453,-1.766357 2.183648,-1.58206 2.313225,-1.385722 2.425195,-1.178839 2.518709,-0.962983 2.593055,-0.739798 2.647665,-0.510984 2.682124,-0.27828 2.696173,-0.04346 2.6897,0.191694 2.662757,0.425387 2.615551,0.655843 2.548436,0.881307 2.461929,1.100065 2.356683,1.31045 2.233501,1.510862 2.093323,1.699774 1.937211,1.875752 1.766357,2.037453 1.582061,2.183648 1.385722,2.313225 1.178838,2.425195 0.962983,2.518709 0.739799,2.593055 0.510983,2.647665 0.278281,2.682124 0.04346,2.696172 -0.191693,2.689701 -0.425387,2.662757 -0.655843,2.615551 -0.881308,2.548436 -1.100065,2.461929 -1.310449,2.356682 -1.510862,2.233499 -1.699775,2.09333 z"
       transform="matrix(1.4076476,0,0,1.9322713,71.461522,-23.709715)"
       inkscape:export-xdpi="96"
       inkscape:export-ydpi="96" />
    <path
       sodipodi:type="star"
       style="fill:none;fill-opacity:1;stroke:#17ba19;stroke-width:0.26499999;stroke-miterlimit:4;stroke-dasharray:none;stroke-opacity:1"
       id="path8293-7"
       sodipodi:sides="72"
       sodipodi:cx="61.655544"
       sodipodi:cy="82.289192"
       sodipodi:r1="30.909678"
       sodipodi:r2="19.443964"
       sodipodi:arg1="0.81291416"
       sodipodi:arg2="0.85654736"
       inkscape:flatsided="true"
       inkscape:rounded="0"
       inkscape:randomized="0"
       d="m 82.902387,104.73869 -2.037453,1.76635 -2.183648,1.58206 -2.313224,1.38573 -2.425196,1.17884 -2.518709,0.96298 -2.593054,0.7398 -2.647665,0.51098 -2.682125,0.27828 -2.696172,0.0435 -2.6897,-0.19169 -2.662758,-0.42539 -2.61555,-0.65584 -2.548437,-0.88131 -2.461928,-1.10007 -2.356683,-1.31045 -2.233502,-1.51086 -2.093322,-1.69977 -1.937212,-1.87575 -1.766357,-2.03746 -1.58206,-2.183646 -1.385722,-2.313224 -1.178839,-2.425196 -0.962983,-2.518709 -0.739798,-2.593054 -0.510984,-2.647665 -0.27828,-2.682125 -0.04346,-2.696172 0.191694,-2.6897 0.425387,-2.662758 0.655843,-2.61555 0.881307,-2.548437 1.100065,-2.461928 1.31045,-2.356683 1.510862,-2.233502 1.699774,-2.093322 1.875752,-1.937212 2.037453,-1.766357 2.183648,-1.58206 2.313225,-1.385722 2.425195,-1.178839 2.518709,-0.962983 2.593055,-0.739798 2.647665,-0.510984 2.682124,-0.27828 2.696173,-0.04346 2.6897,0.191694 2.662757,0.425387 2.615551,0.655843 2.548436,0.881307 2.461929,1.100065 2.356683,1.31045 2.233501,1.510862 2.093323,1.699774 1.937211,1.875752 1.766357,2.037453 1.582061,2.183648 1.385722,2.313225 1.178838,2.425195 0.962983,2.518709 0.739799,2.593055 0.510983,2.647665 0.278281,2.682124 0.04346,2.696172 -0.191693,2.689701 -0.425387,2.662757 -0.655843,2.615551 -0.881308,2.548436 -1.100065,2.461929 -1.310449,2.356682 -1.510862,2.233499 -1.699775,2.09333 z"
       transform="matrix(1.4159629,0.6376148,-0.41519552,1.0296401,7.0871573,42.101827)"
       inkscape:transform-center-x="-8.9193192"
       inkscape:transform-center-y="-4.435497"
       inkscape:export-xdpi="96"
       inkscape:export-ydpi="96" />
    <rect
       style="fill:#17ba19;fill-opacity:1;stroke:#17ba19;stroke-width:0.35652924;stroke-miterlimit:4;stroke-dasharray:none;stroke-opacity:1"
       id="rect8343"
       width="5.7713265"
       height="7.2076883"
       x="28.495907"
       y="148.38446"
       inkscape:export-xdpi="96"
       inkscape:export-ydpi="96" />
    <rect
       style="fill:#17ba19;fill-opacity:1;stroke:#17ba19;stroke-width:0.35652924;stroke-miterlimit:4;stroke-dasharray:none;stroke-opacity:1"
       id="rect8343-3"
       width="5.7713265"
       height="7.2076888"
       x="54.466881"
       y="148.10725"
       inkscape:export-xdpi="96"
       inkscape:export-ydpi="96" />
    <rect
       style="fill:#17ba19;fill-opacity:1;stroke:#17ba19;stroke-width:0.35652924;stroke-miterlimit:4;stroke-dasharray:none;stroke-opacity:1"
       id="rect8343-2"
       width="5.7713265"
       height="7.2076888"
       x="69.157532"
       y="178.6013"
       inkscape:export-xdpi="96"
       inkscape:export-ydpi="96" />
    <rect
       style="fill:#17ba19;fill-opacity:1;stroke:#17ba19;stroke-width:0.35652924;stroke-miterlimit:4;stroke-dasharray:none;stroke-opacity:1"
       id="rect8343-8"
       width="5.7713265"
       height="7.2076888"
       x="37.152905"
       y="166.95813"
       inkscape:export-xdpi="96"
       inkscape:export-ydpi="96" />
    <rect
       style="fill:#17ba19;fill-opacity:1;stroke:#17ba19;stroke-width:0.35652924;stroke-miterlimit:4;stroke-dasharray:none;stroke-opacity:1"
       id="rect8343-9"
       width="5.7713265"
       height="7.2076888"
       x="77.027519"
       y="159.75044"
       inkscape:export-xdpi="96"
       inkscape:export-ydpi="96" />
    <rect
       style="fill:#17ba19;fill-opacity:1;stroke:#17ba19;stroke-width:0.35652924;stroke-miterlimit:4;stroke-dasharray:none;stroke-opacity:1"
       id="rect8343-1"
       width="5.7713265"
       height="7.2076888"
       x="53.417553"
       y="168.62144"
       inkscape:export-xdpi="96"
       inkscape:export-ydpi="96" />
    <rect
       style="fill:#17ba19;fill-opacity:1;stroke:#17ba19;stroke-width:0.35652924;stroke-miterlimit:4;stroke-dasharray:none;stroke-opacity:1"
       id="rect8343-6"
       width="5.7713265"
       height="7.2076888"
       x="92.767502"
       y="172.5025"
       inkscape:export-xdpi="96"
       inkscape:export-ydpi="96" />
    <rect
       style="fill:#17ba19;fill-opacity:1;stroke:#17ba19;stroke-width:0.35652924;stroke-miterlimit:4;stroke-dasharray:none;stroke-opacity:1"
       id="rect8343-5"
       width="5.7713265"
       height="7.2076888"
       x="51.843552"
       y="189.13564"
       inkscape:export-xdpi="96"
       inkscape:export-ydpi="96" />
    <rect
       style="fill:#17ba19;fill-opacity:1;stroke:#17ba19;stroke-width:0.35652924;stroke-miterlimit:4;stroke-dasharray:none;stroke-opacity:1"
       id="rect8343-99"
       width="5.7713265"
       height="7.2076888"
       x="39.77623"
       y="133.69186"
       inkscape:export-xdpi="96"
       inkscape:export-ydpi="96" />
    <path
       style="fill:#0000ff;fill-opacity:1;stroke:none;stroke-width:0.35652924;stroke-miterlimit:4;stroke-dasharray:none;stroke-opacity:1"
       id="path8411"
       sodipodi:type="arc"
       sodipodi:cx="138.57883"
       sodipodi:cy="89.748169"
       sodipodi:rx="4.2942829"
       sodipodi:ry="4.3014097"
       sodipodi:start="1.6210164"
       sodipodi:end="1.6031512"
       d="m 138.36326,94.044156 a 4.2942829,4.3014097 0 0 1 -4.07422,-4.492724 4.2942829,4.3014097 0 0 1 4.46704,-4.101007 4.2942829,4.3014097 0 0 1 4.11412,4.456091 4.2942829,4.3014097 0 0 1 -4.43029,4.140811 l 0.13892,-4.299158 z"
       inkscape:export-xdpi="96"
       inkscape:export-ydpi="96" />
    <path
       style="fill:#0000ff;fill-opacity:1;stroke:none;stroke-width:0.35652924;stroke-miterlimit:4;stroke-dasharray:none;stroke-opacity:1"
       id="path8411-0"
       sodipodi:type="arc"
       sodipodi:cx="151.79247"
       sodipodi:cy="150.0463"
       sodipodi:rx="4.2942829"
       sodipodi:ry="4.3014097"
       sodipodi:start="1.6210164"
       sodipodi:end="1.6031512"
       d="m 151.5769,154.34228 a 4.2942829,4.3014097 0 0 1 -4.07422,-4.49272 4.2942829,4.3014097 0 0 1 4.46703,-4.10101 4.2942829,4.3014097 0 0 1 4.11413,4.45609 4.2942829,4.3014097 0 0 1 -4.43029,4.14081 l 0.13892,-4.29915 z"
       inkscape:export-xdpi="96"
       inkscape:export-ydpi="96" />
    <path
       style="fill:#0000ff;fill-opacity:1;stroke:none;stroke-width:0.35652924;stroke-miterlimit:4;stroke-dasharray:none;stroke-opacity:1"
       id="path8411-4"
       sodipodi:type="arc"
       sodipodi:cx="131.85513"
       sodipodi:cy="-154.48477"
       sodipodi:rx="4.2942829"
       sodipodi:ry="4.3014097"
       sodipodi:start="1.6210164"
       sodipodi:end="1.6031512"
       d="m 131.63956,-150.18879 a 4.2942829,4.3014097 0 0 1 -4.07422,-4.49272 4.2942829,4.3014097 0 0 1 4.46704,-4.10101 4.2942829,4.3014097 0 0 1 4.11413,4.4561 4.2942829,4.3014097 0 0 1 -4.43029,4.14081 l 0.13891,-4.29916 z"
       transform="scale(1,-1)"
       inkscape:export-xdpi="96"
       inkscape:export-ydpi="96" />
    <path
       style="fill:#0000ff;fill-opacity:1;stroke:none;stroke-width:0.35652924;stroke-miterlimit:4;stroke-dasharray:none;stroke-opacity:1"
       id="path8411-1"
       sodipodi:type="arc"
       sodipodi:cx="170.68044"
       sodipodi:cy="168.89716"
       sodipodi:rx="4.2942829"
       sodipodi:ry="4.3014097"
       sodipodi:start="1.6210164"
       sodipodi:end="1.6031512"
       d="m 170.46487,173.19314 a 4.2942829,4.3014097 0 0 1 -4.07422,-4.49272 4.2942829,4.3014097 0 0 1 4.46703,-4.10101 4.2942829,4.3014097 0 0 1 4.11413,4.45609 4.2942829,4.3014097 0 0 1 -4.43029,4.14081 l 0.13892,-4.29915 z"
       inkscape:export-xdpi="96"
       inkscape:export-ydpi="96" />
    <path
       style="fill:#0000ff;fill-opacity:1;stroke:none;stroke-width:0.35652924;stroke-miterlimit:4;stroke-dasharray:none;stroke-opacity:1"
       id="path8411-3"
       sodipodi:type="arc"
       sodipodi:cx="182.74777"
       sodipodi:cy="146.71967"
       sodipodi:rx="4.2942829"
       sodipodi:ry="4.3014097"
       sodipodi:start="1.6210164"
       sodipodi:end="1.6031512"
       d="m 182.5322,151.01565 a 4.2942829,4.3014097 0 0 1 -4.07422,-4.49272 4.2942829,4.3014097 0 0 1 4.46704,-4.10101 4.2942829,4.3014097 0 0 1 4.11412,4.45609 4.2942829,4.3014097 0 0 1 -4.43028,4.14081 l 0.13891,-4.29915 z"
       inkscape:export-xdpi="96"
       inkscape:export-ydpi="96" />
    <path
       style="fill:#0000ff;fill-opacity:1;stroke:none;stroke-width:0.35652924;stroke-miterlimit:4;stroke-dasharray:none;stroke-opacity:1"
       id="path8411-5"
       sodipodi:type="arc"
       sodipodi:cx="164.9091"
       sodipodi:cy="117.88889"
       sodipodi:rx="4.2942829"
       sodipodi:ry="4.3014097"
       sodipodi:start="1.6210164"
       sodipodi:end="1.6031512"
       d="m 164.69353,122.18488 a 4.2942829,4.3014097 0 0 1 -4.07422,-4.49272 4.2942829,4.3014097 0 0 1 4.46704,-4.10101 4.2942829,4.3014097 0 0 1 4.11413,4.45609 4.2942829,4.3014097 0 0 1 -4.43029,4.14081 l 0.13891,-4.29916 z"
       inkscape:export-xdpi="96"
       inkscape:export-ydpi="96" />
    <path
       style="fill:#0000ff;fill-opacity:1;stroke:none;stroke-width:0.35652924;stroke-miterlimit:4;stroke-dasharray:none;stroke-opacity:1"
       id="path8411-58"
       sodipodi:type="arc"
       sodipodi:cx="133.95381"
       sodipodi:cy="129.5321"
       sodipodi:rx="4.2942829"
       sodipodi:ry="4.3014097"
       sodipodi:start="1.6210164"
       sodipodi:end="1.6031512"
       d="m 133.73824,133.82809 a 4.2942829,4.3014097 0 0 1 -4.07422,-4.49272 4.2942829,4.3014097 0 0 1 4.46704,-4.10101 4.2942829,4.3014097 0 0 1 4.11412,4.45609 4.2942829,4.3014097 0 0 1 -4.43029,4.14081 l 0.13892,-4.29916 z"
       inkscape:export-xdpi="96"
       inkscape:export-ydpi="96" />
    <path
       style="fill:#0000ff;fill-opacity:1;stroke:none;stroke-width:0.35652924;stroke-miterlimit:4;stroke-dasharray:none;stroke-opacity:1"
       id="path8411-2"
       sodipodi:type="arc"
       sodipodi:cx="149.69377"
       sodipodi:cy="184.42142"
       sodipodi:rx="4.2942829"
       sodipodi:ry="4.3014097"
       sodipodi:start="1.6210164"
       sodipodi:end="1.6031512"
       d="m 149.4782,188.7174 a 4.2942829,4.3014097 0 0 1 -4.07422,-4.49272 4.2942829,4.3014097 0 0 1 4.46704,-4.10101 4.2942829,4.3014097 0 0 1 4.11412,4.45609 4.2942829,4.3014097 0 0 1 -4.43029,4.14082 l 0.13892,-4.29916 z"
       inkscape:export-xdpi="96"
       inkscape:export-ydpi="96" />
    <path
       style="fill:#0000ff;fill-opacity:1;stroke:none;stroke-width:0.35652924;stroke-miterlimit:4;stroke-dasharray:none;stroke-opacity:1"
       id="path8411-9"
       sodipodi:type="arc"
       sodipodi:cx="149.16913"
       sodipodi:cy="105.13686"
       sodipodi:rx="4.2942829"
       sodipodi:ry="4.3014097"
       sodipodi:start="1.6210164"
       sodipodi:end="1.6031512"
       d="m 148.95356,109.43285 a 4.2942829,4.3014097 0 0 1 -4.07422,-4.49272 4.2942829,4.3014097 0 0 1 4.46704,-4.10101 4.2942829,4.3014097 0 0 1 4.11412,4.45609 4.2942829,4.3014097 0 0 1 -4.43029,4.14081 l 0.13892,-4.29916 z"
       inkscape:export-xdpi="96"
       inkscape:export-ydpi="96" />
    <path
       style="fill:#0000ff;fill-opacity:1;stroke:none;stroke-width:0.35652924;stroke-miterlimit:4;stroke-dasharray:none;stroke-opacity:1"
       id="path8411-6"
       sodipodi:type="arc"
       sodipodi:cx="182.74777"
       sodipodi:cy="112.89897"
       sodipodi:rx="4.2942829"
       sodipodi:ry="4.3014097"
       sodipodi:start="1.6210164"
       sodipodi:end="1.6031512"
       d="m 182.5322,117.19496 a 4.2942829,4.3014097 0 0 1 -4.07422,-4.49273 4.2942829,4.3014097 0 0 1 4.46704,-4.101 4.2942829,4.3014097 0 0 1 4.11412,4.45609 4.2942829,4.3014097 0 0 1 -4.43028,4.14081 l 0.13891,-4.29916 z"
       inkscape:export-xdpi="96"
       inkscape:export-ydpi="96" />
    <path
       style="fill:#0000ff;fill-opacity:1;stroke:none;stroke-width:0.35652924;stroke-miterlimit:4;stroke-dasharray:none;stroke-opacity:1"
       id="path8411-32"
       sodipodi:type="arc"
       sodipodi:cx="163.33511"
       sodipodi:cy="84.622658"
       sodipodi:rx="4.2942829"
       sodipodi:ry="4.3014097"
       sodipodi:start="1.6210164"
       sodipodi:end="1.6031512"
       d="m 163.11954,88.918644 a 4.2942829,4.3014097 0 0 1 -4.07422,-4.492723 4.2942829,4.3014097 0 0 1 4.46704,-4.101007 4.2942829,4.3014097 0 0 1 4.11413,4.456091 4.2942829,4.3014097 0 0 1 -4.43029,4.140811 l 0.13891,-4.299158 z"
       inkscape:export-xdpi="96"
       inkscape:export-ydpi="96" />
    <path
       sodipodi:type="star"
       style="fill:#ff0000;fill-opacity:1;stroke:none;stroke-width:0.26499999;stroke-miterlimit:4;stroke-dasharray:none;stroke-opacity:1"
       id="path8485"
       sodipodi:sides="3"
       sodipodi:cx="46.101639"
       sodipodi:cy="73.306824"
       sodipodi:r1="3.9685476"
       sodipodi:r2="1.9842738"
       sodipodi:arg1="0.78539816"
       sodipodi:arg2="1.8325957"
       inkscape:flatsided="true"
       inkscape:rounded="0"
       inkscape:randomized="0"
       d="m 48.907826,76.113011 -6.63951,-1.779052 4.860458,-4.860458 z"
       inkscape:transform-center-x="0.67214462"
       inkscape:transform-center-y="-0.71027919"
       transform="matrix(1.3087734,0,0,1.383038,-20.298038,-37.276152)"
       inkscape:export-xdpi="96"
       inkscape:export-ydpi="96" />
    <path
       sodipodi:type="star"
       style="fill:#ff0000;fill-opacity:1;stroke:none;stroke-width:0.26499999;stroke-miterlimit:4;stroke-dasharray:none;stroke-opacity:1"
       id="path8485-1"
       sodipodi:sides="3"
       sodipodi:cx="59.443493"
       sodipodi:cy="102.68402"
       sodipodi:r1="3.9685476"
       sodipodi:r2="1.9842738"
       sodipodi:arg1="0.78539816"
       sodipodi:arg2="1.8325957"
       inkscape:flatsided="true"
       inkscape:rounded="0"
       inkscape:randomized="0"
       d="m 62.24968,105.49021 -6.63951,-1.77905 4.860459,-4.860462 z"
       inkscape:transform-center-x="0.67214445"
       inkscape:transform-center-y="-0.71027703"
       transform="matrix(1.3087734,0,0,1.383038,-20.298038,-37.276152)"
       inkscape:export-xdpi="96"
       inkscape:export-ydpi="96" />
    <path
       sodipodi:type="star"
       style="fill:#ff0000;fill-opacity:1;stroke:none;stroke-width:0.26499999;stroke-miterlimit:4;stroke-dasharray:none;stroke-opacity:1"
       id="path8485-3"
       sodipodi:sides="3"
       sodipodi:cx="81.492104"
       sodipodi:cy="87.450439"
       sodipodi:r1="3.9685476"
       sodipodi:r2="1.9842738"
       sodipodi:arg1="0.78539816"
       sodipodi:arg2="1.8325957"
       inkscape:flatsided="true"
       inkscape:rounded="0"
       inkscape:randomized="0"
       d="m 84.29829,90.256626 -6.639509,-1.779051 4.860458,-4.860458 z"
       inkscape:transform-center-x="0.67214417"
       inkscape:transform-center-y="-0.71027815"
       transform="matrix(1.3087734,0,0,1.383038,-20.298038,-37.276152)"
       inkscape:export-xdpi="96"
       inkscape:export-ydpi="96" />
    <path
       sodipodi:type="star"
       style="fill:#ff0000;fill-opacity:1;stroke:none;stroke-width:0.26499999;stroke-miterlimit:4;stroke-dasharray:none;stroke-opacity:1"
       id="path8485-5"
       sodipodi:sides="3"
       sodipodi:cx="81.492104"
       sodipodi:cy="87.450439"
       sodipodi:r1="3.9685476"
       sodipodi:r2="1.9842738"
       sodipodi:arg1="0.78539816"
       sodipodi:arg2="1.8325957"
       inkscape:flatsided="true"
       inkscape:rounded="0"
       inkscape:randomized="0"
       d="m 84.29829,90.256626 -6.639509,-1.779051 4.860458,-4.860458 z"
       inkscape:transform-center-x="0.67214417"
       inkscape:transform-center-y="-0.71027815"
       transform="matrix(1.3087734,0,0,1.383038,-20.298038,-37.276152)"
       inkscape:export-xdpi="96"
       inkscape:export-ydpi="96" />
    <path
       sodipodi:type="star"
       style="fill:#ff0000;fill-opacity:1;stroke:none;stroke-width:0.26499999;stroke-miterlimit:4;stroke-dasharray:none;stroke-opacity:1"
       id="path8485-9"
       sodipodi:sides="3"
       sodipodi:cx="78.685913"
       sodipodi:cy="75.023041"
       sodipodi:r1="3.9685476"
       sodipodi:r2="1.9842738"
       sodipodi:arg1="0.78539816"
       sodipodi:arg2="1.8325957"
       inkscape:flatsided="true"
       inkscape:rounded="0"
       inkscape:randomized="0"
       d="m 81.4921,77.829228 -6.63951,-1.779052 4.860459,-4.860458 z"
       inkscape:transform-center-x="0.6721442"
       inkscape:transform-center-y="-0.71027906"
       transform="matrix(1.3087734,0,0,1.383038,-20.298038,-37.276152)"
       inkscape:export-xdpi="96"
       inkscape:export-ydpi="96" />
    <path
       sodipodi:type="star"
       style="fill:#ff0000;fill-opacity:1;stroke:none;stroke-width:0.26499999;stroke-miterlimit:4;stroke-dasharray:none;stroke-opacity:1"
       id="path8485-99"
       sodipodi:sides="3"
       sodipodi:cx="71.470009"
       sodipodi:cy="94.666344"
       sodipodi:r1="3.9685476"
       sodipodi:r2="1.9842738"
       sodipodi:arg1="0.78539816"
       sodipodi:arg2="1.8325957"
       inkscape:flatsided="true"
       inkscape:rounded="0"
       inkscape:randomized="0"
       d="m 74.276196,97.472531 -6.63951,-1.779052 4.860459,-4.860458 z"
       inkscape:transform-center-x="0.6721443"
       inkscape:transform-center-y="-0.71027762"
       transform="matrix(1.3087734,0,0,1.383038,-20.298038,-37.276152)"
       inkscape:export-xdpi="96"
       inkscape:export-ydpi="96" />
    <path
       sodipodi:type="star"
       style="fill:#ff0000;fill-opacity:1;stroke:none;stroke-width:0.26499999;stroke-miterlimit:4;stroke-dasharray:none;stroke-opacity:1"
       id="path8485-37"
       sodipodi:sides="3"
       sodipodi:cx="57.038189"
       sodipodi:cy="84.644249"
       sodipodi:r1="3.9685476"
       sodipodi:r2="1.9842738"
       sodipodi:arg1="0.78539816"
       sodipodi:arg2="1.8325957"
       inkscape:flatsided="true"
       inkscape:rounded="0"
       inkscape:randomized="0"
       d="m 59.844376,87.450436 -6.63951,-1.779051 4.860459,-4.860459 z"
       inkscape:transform-center-x="0.67214449"
       inkscape:transform-center-y="-0.71027836"
       transform="matrix(1.3087734,0,0,1.383038,-20.298038,-37.276152)"
       inkscape:export-xdpi="96"
       inkscape:export-ydpi="96" />
    <path
       sodipodi:type="star"
       style="fill:#ff0000;fill-opacity:1;stroke:none;stroke-width:0.26499999;stroke-miterlimit:4;stroke-dasharray:none;stroke-opacity:1"
       id="path8485-6"
       sodipodi:sides="3"
       sodipodi:cx="60.245258"
       sodipodi:cy="63.79829"
       sodipodi:r1="3.9685476"
       sodipodi:r2="1.9842738"
       sodipodi:arg1="0.78539816"
       sodipodi:arg2="1.8325957"
       inkscape:flatsided="true"
       inkscape:rounded="0"
       inkscape:randomized="0"
       d="m 63.051445,66.604477 -6.639509,-1.779051 4.860458,-4.860458 z"
       inkscape:transform-center-x="0.67214444"
       inkscape:transform-center-y="-0.71027989"
       transform="matrix(1.3087734,0,0,1.383038,-20.298038,-37.276152)"
       inkscape:export-xdpi="96"
       inkscape:export-ydpi="96" />
    <path
       sodipodi:type="star"
       style="fill:#ff0000;fill-opacity:1;stroke:none;stroke-width:0.26499999;stroke-miterlimit:4;stroke-dasharray:none;stroke-opacity:1"
       id="path8485-66"
       sodipodi:sides="3"
       sodipodi:cx="101.13541"
       sodipodi:cy="84.243362"
       sodipodi:r1="3.9685476"
       sodipodi:r2="1.9842738"
       sodipodi:arg1="0.78539816"
       sodipodi:arg2="1.8325957"
       inkscape:flatsided="true"
       inkscape:rounded="0"
       inkscape:randomized="0"
       d="M 103.94159,87.049549 97.302084,85.270498 102.16254,80.41004 Z"
       inkscape:transform-center-x="0.67214392"
       inkscape:transform-center-y="-0.71027839"
       transform="matrix(1.3087734,0,0,1.383038,-20.298038,-37.276152)"
       inkscape:export-xdpi="96"
       inkscape:export-ydpi="96" />
    <path
       sodipodi:type="star"
       style="fill:#ff0000;fill-opacity:1;stroke:none;stroke-width:0.26499999;stroke-miterlimit:4;stroke-dasharray:none;stroke-opacity:1"
       id="path8485-95"
       sodipodi:sides="3"
       sodipodi:cx="85.10006"
       sodipodi:cy="98.675186"
       sodipodi:r1="3.9685476"
       sodipodi:r2="1.9842738"
       sodipodi:arg1="0.78539816"
       sodipodi:arg2="1.8325957"
       inkscape:flatsided="true"
       inkscape:rounded="0"
       inkscape:randomized="0"
       d="m 87.906246,101.48137 -6.639509,-1.779048 4.860458,-4.860458 z"
       inkscape:transform-center-x="0.67214413"
       inkscape:transform-center-y="-0.71027733"
       transform="matrix(1.3087734,0,0,1.383038,-20.298038,-37.276152)"
       inkscape:export-xdpi="96"
       inkscape:export-ydpi="96" />
    <path
       style="fill:none;stroke:#000000;stroke-width:0.43117112px;stroke-linecap:butt;stroke-linejoin:miter;stroke-opacity:1"
       d="M 9.0605467,203.86196 C 8.0341082,38.375675 7.0076698,37.544087 7.0076698,37.544087"
       id="path8550"
       inkscape:connector-curvature="0"
       inkscape:export-xdpi="96"
       inkscape:export-ydpi="96" />
    <path
       sodipodi:type="star"
       style="fill:#000000;fill-opacity:1;stroke:none;stroke-width:0.26458332;stroke-miterlimit:4;stroke-dasharray:2.11666651, 1.05833326;stroke-dashoffset:0;stroke-opacity:1"
       id="path9479"
       sodipodi:sides="3"
       sodipodi:cx="6.9683526"
       sodipodi:cy="39.881291"
       sodipodi:r1="2.3375344"
       sodipodi:r2="1.1687672"
       sodipodi:arg1="0.5404195"
       sodipodi:arg2="1.5876171"
       inkscape:flatsided="false"
       inkscape:rounded="0"
       inkscape:randomized="0"
       d="M 8.972772,41.083942 6.9486942,41.049892 4.9246164,41.015843 5.9661432,39.279965 7.00767,37.544087 7.990221,39.314014 Z"
       inkscape:transform-center-x="0.019659493"
       inkscape:transform-center-y="-0.56727634" />
    <path
       sodipodi:type="star"
       style="fill:#000000;fill-opacity:1;stroke:none;stroke-width:0.26458332;stroke-miterlimit:4;stroke-dasharray:2.11666653, 1.05833327;stroke-dashoffset:0;stroke-opacity:1"
       id="path9479-9"
       sodipodi:sides="3"
       sodipodi:cx="177.21033"
       sodipodi:cy="223.40376"
       sodipodi:r1="2.3375344"
       sodipodi:r2="1.1687672"
       sodipodi:arg1="0.5404195"
       sodipodi:arg2="1.5876171"
       inkscape:flatsided="false"
       inkscape:rounded="0"
       inkscape:randomized="0"
       d="m 179.21475,224.60641 -2.02408,-0.0341 -2.02408,-0.034 1.04153,-1.73588 1.04152,-1.73588 0.98256,1.76993 z"
       inkscape:transform-center-x="20.794161"
       inkscape:transform-center-y="10.56971"
       transform="rotate(81.823892,204.39854,229.06672)" />
  </g>
</svg>
