<?xml version="1.0" encoding="UTF-8" standalone="no"?>
<!-- Created with Inkscape (http://www.inkscape.org/) -->

<svg
   xmlns:dc="http://purl.org/dc/elements/1.1/"
   xmlns:cc="http://creativecommons.org/ns#"
   xmlns:rdf="http://www.w3.org/1999/02/22-rdf-syntax-ns#"
   xmlns:svg="http://www.w3.org/2000/svg"
   xmlns="http://www.w3.org/2000/svg"
   xmlns:sodipodi="http://sodipodi.sourceforge.net/DTD/sodipodi-0.dtd"
   xmlns:inkscape="http://www.inkscape.org/namespaces/inkscape"
   width="210mm"
   height="297mm"
   viewBox="0 0 210 297"
   version="1.1"
   id="svg8"
   inkscape:version="0.92.2 (5c3e80d, 2017-08-06)"
   sodipodi:docname="Regression.svg"
   inkscape:export-filename="C:\Users\Laura\Documents\GitHub\LaTexSeminar\bilder\Regression.png"
   inkscape:export-xdpi="96"
   inkscape:export-ydpi="96">
  <defs
     id="defs2" />
  <sodipodi:namedview
     id="base"
     pagecolor="#ffffff"
     bordercolor="#666666"
     borderopacity="1.0"
     inkscape:pageopacity="0.0"
     inkscape:pageshadow="2"
     inkscape:zoom="0.76"
     inkscape:cx="99.901575"
     inkscape:cy="603.592"
     inkscape:document-units="mm"
     inkscape:current-layer="layer1"
     showgrid="false"
     inkscape:window-width="1920"
     inkscape:window-height="986"
     inkscape:window-x="-11"
     inkscape:window-y="-11"
     inkscape:window-maximized="1" />
  <metadata
     id="metadata5">
    <rdf:RDF>
      <cc:Work
         rdf:about="">
        <dc:format>image/svg+xml</dc:format>
        <dc:type
           rdf:resource="http://purl.org/dc/dcmitype/StillImage" />
        <dc:title></dc:title>
      </cc:Work>
    </rdf:RDF>
  </metadata>
  <g
     inkscape:label="Ebene 1"
     inkscape:groupmode="layer"
     id="layer1">
    <path
       style="fill:none;stroke:#000000;stroke-width:0.31544277px;stroke-linecap:butt;stroke-linejoin:miter;stroke-opacity:1"
       d="m 14.253258,44.457792 c 0.935644,158.871228 0,158.871228 0,158.871228 H 205.12478"
       id="path10"
       inkscape:connector-curvature="0" />
    <path
       style="fill:none;stroke:#000000;stroke-width:0.31544277px;stroke-linecap:butt;stroke-linejoin:miter;stroke-opacity:1"
       d="M 14.253258,44.457792 Z"
       id="path16"
       inkscape:connector-curvature="0" />
    <path
       style="fill:none;stroke:#000000;stroke-width:0.26458332px;stroke-linecap:butt;stroke-linejoin:miter;stroke-opacity:1"
       d="m 23.434524,65.67857 v 0 0 0 0"
       id="path18"
       inkscape:connector-curvature="0" />
    <path
       style="fill:none;stroke:#000000;stroke-width:0.26458332px;stroke-linecap:butt;stroke-linejoin:miter;stroke-opacity:1"
       d="m 23.434524,65.67857 v 0 0"
       id="path20"
       inkscape:connector-curvature="0" />
    <path
       style="fill:none;stroke:#000000;stroke-width:0.31544277px;stroke-linecap:butt;stroke-linejoin:miter;stroke-opacity:1"
       d="M 14.253258,44.457792 Z"
       id="path22"
       inkscape:connector-curvature="0" />
    <flowRoot
       xml:space="preserve"
       id="flowRoot7472"
       style="font-style:normal;font-weight:normal;font-size:40px;line-height:1.25;font-family:sans-serif;letter-spacing:0px;word-spacing:0px;fill:#000000;fill-opacity:1;stroke:none"
       transform="scale(0.26458333)"><flowRegion
         id="flowRegion7474"><rect
           id="rect7476"
           width="18.421053"
           height="155.26315"
           x="32.894737"
           y="434.36179" /></flowRegion><flowPara
         id="flowPara7478">Eis</flowPara></flowRoot>    <text
       xml:space="preserve"
       style="font-style:normal;font-weight:normal;font-size:12.61771107px;line-height:1.25;font-family:sans-serif;letter-spacing:0px;word-spacing:0px;fill:#000000;fill-opacity:1;stroke:none;stroke-width:0.31544277"
       x="-169.80322"
       y="9.6996822"
       id="text7482"
       transform="matrix(3.575435e-4,-0.96325566,1.0381459,3.3175088e-4,0,0)"><tspan
         sodipodi:role="line"
         id="tspan7480"
         x="-169.80322"
         y="9.6996822"
         style="font-style:normal;font-variant:normal;font-weight:normal;font-stretch:normal;font-size:7.57062721px;font-family:sans-serif;-inkscape-font-specification:'sans-serif, Normal';font-variant-ligatures:normal;font-variant-caps:normal;font-variant-numeric:normal;font-feature-settings:normal;text-align:start;writing-mode:lr-tb;text-anchor:start;stroke-width:0.31544277">Eisverkäufe pro Minute</tspan></text>
    <flowRoot
       xml:space="preserve"
       id="flowRoot7488"
       style="font-style:normal;font-weight:normal;font-size:40px;line-height:1.25;font-family:sans-serif;letter-spacing:0px;word-spacing:0px;fill:#000000;fill-opacity:1;stroke:none"
       transform="scale(0.26458333)"><flowRegion
         id="flowRegion7490"><rect
           id="rect7492"
           width="503.94736"
           height="40.789474"
           x="131.57895"
           y="779.09863" /></flowRegion><flowPara
         id="flowPara7494">Temperarur</flowPara></flowRoot>    <text
       xml:space="preserve"
       style="font-style:normal;font-weight:normal;font-size:12.61771107px;line-height:1.25;font-family:sans-serif;letter-spacing:0px;word-spacing:0px;fill:#000000;fill-opacity:1;stroke:none;stroke-width:0.31544277"
       x="79.593033"
       y="220.66707"
       id="text7498"
       transform="scale(1.0381459,0.96325574)"><tspan
         sodipodi:role="line"
         id="tspan7496"
         x="79.593033"
         y="220.66707"
         style="font-style:normal;font-variant:normal;font-weight:normal;font-stretch:normal;font-size:7.57062721px;font-family:sans-serif;-inkscape-font-specification:'sans-serif, Normal';font-variant-ligatures:normal;font-variant-caps:normal;font-variant-numeric:normal;font-feature-settings:normal;text-align:start;writing-mode:lr-tb;text-anchor:start;stroke-width:0.31544277">Temperatur</tspan></text>
    <path
       style="fill:none;stroke:#d62424;stroke-width:0.31593955;stroke-linecap:butt;stroke-linejoin:miter;stroke-miterlimit:4;stroke-dasharray:none;stroke-opacity:1"
       d="M 14.979613,177.77575 C 197.24566,72.227133 198.10744,71.827327 198.10744,71.827327"
       id="path7500"
       inkscape:connector-curvature="0" />
    <path
       style="fill:#362aff;fill-opacity:1;stroke:none;stroke-width:0.31593955;stroke-miterlimit:4;stroke-dasharray:none;stroke-opacity:1"
       id="path7512"
       sodipodi:type="arc"
       sodipodi:cx="27.044506"
       sodipodi:cy="162.98294"
       sodipodi:rx="2.5853338"
       sodipodi:ry="2.3988321"
       sodipodi:start="1.6210164"
       sodipodi:end="1.6199745"
       d="m 26.914725,165.37875 a 2.5853338,2.3988321 0 0 1 -2.452327,-2.5156 2.5853338,2.3988321 0 0 1 2.710544,-2.27608 2.5853338,2.3988321 0 0 1 2.453739,2.51442 2.5853338,2.3988321 0 0 1 -2.709266,2.27738 l 0.127091,-2.39593 z" />
    <path
       style="fill:#362aff;fill-opacity:1;stroke:none;stroke-width:0.31593955;stroke-miterlimit:4;stroke-dasharray:none;stroke-opacity:1"
       id="path7512-6"
       sodipodi:type="arc"
       sodipodi:cx="58.930294"
       sodipodi:cy="165.78159"
       sodipodi:rx="2.5853338"
       sodipodi:ry="2.3988321"
       sodipodi:start="1.6210164"
       sodipodi:end="1.6199745"
       d="m 58.800513,168.17739 a 2.5853338,2.3988321 0 0 1 -2.452327,-2.5156 2.5853338,2.3988321 0 0 1 2.710544,-2.27607 2.5853338,2.3988321 0 0 1 2.453739,2.51441 2.5853338,2.3988321 0 0 1 -2.709266,2.27739 l 0.127091,-2.39593 z" />
    <path
       style="fill:#362aff;fill-opacity:1;stroke:none;stroke-width:0.31593955;stroke-miterlimit:4;stroke-dasharray:none;stroke-opacity:1"
       id="path7512-7"
       sodipodi:type="arc"
       sodipodi:cx="52.036068"
       sodipodi:cy="148.98976"
       sodipodi:rx="2.5853338"
       sodipodi:ry="2.3988321"
       sodipodi:start="1.6210164"
       sodipodi:end="1.6199745"
       d="m 51.906287,151.38557 a 2.5853338,2.3988321 0 0 1 -2.452327,-2.5156 2.5853338,2.3988321 0 0 1 2.710544,-2.27608 2.5853338,2.3988321 0 0 1 2.453739,2.51442 2.5853338,2.3988321 0 0 1 -2.709266,2.27738 l 0.127091,-2.39593 z" />
    <path
       style="fill:#362aff;fill-opacity:1;stroke:none;stroke-width:0.31593955;stroke-miterlimit:4;stroke-dasharray:none;stroke-opacity:1"
       id="path7512-1"
       sodipodi:type="arc"
       sodipodi:cx="76.165855"
       sodipodi:cy="132.99756"
       sodipodi:rx="2.5853338"
       sodipodi:ry="2.3988321"
       sodipodi:start="1.6210164"
       sodipodi:end="1.6199745"
       d="m 76.036074,135.39337 a 2.5853338,2.3988321 0 0 1 -2.452327,-2.51561 2.5853338,2.3988321 0 0 1 2.710544,-2.27607 2.5853338,2.3988321 0 0 1 2.453739,2.51442 2.5853338,2.3988321 0 0 1 -2.709265,2.27738 l 0.12709,-2.39593 z" />
    <path
       style="fill:#362aff;fill-opacity:1;stroke:none;stroke-width:0.31593955;stroke-miterlimit:4;stroke-dasharray:none;stroke-opacity:1"
       id="path7512-4"
       sodipodi:type="arc"
       sodipodi:cx="99.00296"
       sodipodi:cy="132.59773"
       sodipodi:rx="2.5853338"
       sodipodi:ry="2.3988321"
       sodipodi:start="1.6210164"
       sodipodi:end="1.6199745"
       d="m 98.873179,134.99354 a 2.5853338,2.3988321 0 0 1 -2.452327,-2.5156 2.5853338,2.3988321 0 0 1 2.710544,-2.27608 2.5853338,2.3988321 0 0 1 2.453744,2.51442 2.5853338,2.3988321 0 0 1 -2.709271,2.27738 l 0.127091,-2.39593 z" />
    <path
       style="fill:#362aff;fill-opacity:1;stroke:none;stroke-width:0.31593955;stroke-miterlimit:4;stroke-dasharray:none;stroke-opacity:1"
       id="path7512-6-8"
       sodipodi:type="arc"
       sodipodi:cx="130.02698"
       sodipodi:cy="105.41098"
       sodipodi:rx="2.5853338"
       sodipodi:ry="2.3988321"
       sodipodi:start="1.6210164"
       sodipodi:end="1.6199745"
       d="m 129.8972,107.80679 a 2.5853338,2.3988321 0 0 1 -2.45233,-2.5156 2.5853338,2.3988321 0 0 1 2.71054,-2.27608 2.5853338,2.3988321 0 0 1 2.45374,2.51442 2.5853338,2.3988321 0 0 1 -2.70926,2.27738 l 0.12709,-2.39593 z" />
    <path
       style="fill:#362aff;fill-opacity:1;stroke:none;stroke-width:0.31593955;stroke-miterlimit:4;stroke-dasharray:none;stroke-opacity:1"
       id="path7512-6-7"
       sodipodi:type="arc"
       sodipodi:cx="172.2541"
       sodipodi:cy="93.416824"
       sodipodi:rx="2.5853338"
       sodipodi:ry="2.3988321"
       sodipodi:start="1.6210164"
       sodipodi:end="1.6199745"
       d="m 172.12432,95.812632 a 2.5853338,2.3988321 0 0 1 -2.45232,-2.515602 2.5853338,2.3988321 0 0 1 2.71054,-2.276076 2.5853338,2.3988321 0 0 1 2.45374,2.514417 2.5853338,2.3988321 0 0 1 -2.70927,2.277385 l 0.12709,-2.395932 z" />
    <path
       style="fill:#362aff;fill-opacity:1;stroke:none;stroke-width:0.31593955;stroke-miterlimit:4;stroke-dasharray:none;stroke-opacity:1"
       id="path7512-6-1"
       sodipodi:type="arc"
       sodipodi:cx="150.27876"
       sodipodi:cy="103.81177"
       sodipodi:rx="2.5853338"
       sodipodi:ry="2.3988321"
       sodipodi:start="1.6210164"
       sodipodi:end="1.6199745"
       d="m 150.14898,106.20758 a 2.5853338,2.3988321 0 0 1 -2.45233,-2.51561 2.5853338,2.3988321 0 0 1 2.71055,-2.27607 2.5853338,2.3988321 0 0 1 2.45374,2.51441 2.5853338,2.3988321 0 0 1 -2.70927,2.27739 l 0.12709,-2.39593 z" />
    <path
       style="fill:#362aff;fill-opacity:1;stroke:none;stroke-width:0.31593955;stroke-miterlimit:4;stroke-dasharray:none;stroke-opacity:1"
       id="path7512-6-9"
       sodipodi:type="arc"
       sodipodi:cx="116.66943"
       sodipodi:cy="123.00243"
       sodipodi:rx="2.5853338"
       sodipodi:ry="2.3988321"
       sodipodi:start="1.6210164"
       sodipodi:end="1.6199745"
       d="m 116.53965,125.39824 a 2.5853338,2.3988321 0 0 1 -2.45232,-2.5156 2.5853338,2.3988321 0 0 1 2.71054,-2.27608 2.5853338,2.3988321 0 0 1 2.45374,2.51442 2.5853338,2.3988321 0 0 1 -2.70927,2.27739 l 0.12709,-2.39594 z" />
    <path
       style="fill:#362aff;fill-opacity:1;stroke:none;stroke-width:0.31593955;stroke-miterlimit:4;stroke-dasharray:none;stroke-opacity:1"
       id="path7512-6-97"
       sodipodi:type="arc"
       sodipodi:cx="31.784285"
       sodipodi:cy="172.97809"
       sodipodi:rx="2.5853338"
       sodipodi:ry="2.3988321"
       sodipodi:start="1.6210164"
       sodipodi:end="1.6199745"
       d="m 31.654504,175.3739 a 2.5853338,2.3988321 0 0 1 -2.452327,-2.51561 2.5853338,2.3988321 0 0 1 2.710544,-2.27607 2.5853338,2.3988321 0 0 1 2.453739,2.51442 2.5853338,2.3988321 0 0 1 -2.709266,2.27738 l 0.127091,-2.39593 z" />
    <path
       style="fill:#362aff;fill-opacity:1;stroke:none;stroke-width:0.31593955;stroke-miterlimit:4;stroke-dasharray:none;stroke-opacity:1"
       id="path7512-6-4"
       sodipodi:type="arc"
       sodipodi:cx="67.117188"
       sodipodi:cy="144.19211"
       sodipodi:rx="2.5853338"
       sodipodi:ry="2.3988321"
       sodipodi:start="1.6210164"
       sodipodi:end="1.6199745"
       d="m 66.987406,146.58792 a 2.5853338,2.3988321 0 0 1 -2.452327,-2.51561 2.5853338,2.3988321 0 0 1 2.710544,-2.27607 2.5853338,2.3988321 0 0 1 2.453739,2.51441 2.5853338,2.3988321 0 0 1 -2.709265,2.27739 l 0.12709,-2.39593 z" />
    <path
       style="fill:#362aff;fill-opacity:1;stroke:none;stroke-width:0.31593955;stroke-miterlimit:4;stroke-dasharray:none;stroke-opacity:1"
       id="path7512-6-0"
       sodipodi:type="arc"
       sodipodi:cx="151.57143"
       sodipodi:cy="90.218376"
       sodipodi:rx="2.5853338"
       sodipodi:ry="2.3988321"
       sodipodi:start="1.6210164"
       sodipodi:end="1.6199745"
       d="m 151.44165,92.614184 a 2.5853338,2.3988321 0 0 1 -2.45233,-2.515603 2.5853338,2.3988321 0 0 1 2.71054,-2.276075 2.5853338,2.3988321 0 0 1 2.45374,2.514417 2.5853338,2.3988321 0 0 1 -2.70926,2.277385 l 0.12709,-2.395932 z" />
    <path
       style="fill:#362aff;fill-opacity:1;stroke:none;stroke-width:0.31593955;stroke-miterlimit:4;stroke-dasharray:none;stroke-opacity:1"
       id="path7512-6-08"
       sodipodi:type="arc"
       sodipodi:cx="136.05942"
       sodipodi:cy="119.40418"
       sodipodi:rx="2.5853338"
       sodipodi:ry="2.3988321"
       sodipodi:start="1.6210164"
       sodipodi:end="1.6199745"
       d="m 135.92964,121.79999 a 2.5853338,2.3988321 0 0 1 -2.45233,-2.5156 2.5853338,2.3988321 0 0 1 2.71054,-2.27608 2.5853338,2.3988321 0 0 1 2.45374,2.51442 2.5853338,2.3988321 0 0 1 -2.70926,2.27738 l 0.12709,-2.39593 z" />
    <path
       style="fill:#362aff;fill-opacity:1;stroke:none;stroke-width:0.31593955;stroke-miterlimit:4;stroke-dasharray:none;stroke-opacity:1"
       id="path7512-6-5"
       sodipodi:type="arc"
       sodipodi:cx="95.98674"
       sodipodi:cy="114.6065"
       sodipodi:rx="2.5853338"
       sodipodi:ry="2.3988321"
       sodipodi:start="1.6210164"
       sodipodi:end="1.6199745"
       d="m 95.856959,117.00231 a 2.5853338,2.3988321 0 0 1 -2.452327,-2.51561 2.5853338,2.3988321 0 0 1 2.710544,-2.27607 2.5853338,2.3988321 0 0 1 2.453739,2.51442 2.5853338,2.3988321 0 0 1 -2.709266,2.27738 l 0.127091,-2.39593 z" />
    <path
       style="fill:#362aff;fill-opacity:1;stroke:none;stroke-width:0.31593955;stroke-miterlimit:4;stroke-dasharray:none;stroke-opacity:1"
       id="path7512-6-3"
       sodipodi:type="arc"
       sodipodi:cx="195.52211"
       sodipodi:cy="85.420708"
       sodipodi:rx="2.5853338"
       sodipodi:ry="2.3988321"
       sodipodi:start="1.6210164"
       sodipodi:end="1.6199745"
       d="m 195.39233,87.816515 a 2.5853338,2.3988321 0 0 1 -2.45233,-2.515602 2.5853338,2.3988321 0 0 1 2.71055,-2.276075 2.5853338,2.3988321 0 0 1 2.45373,2.514416 2.5853338,2.3988321 0 0 1 -2.70926,2.277386 l 0.12709,-2.395932 z" />
    <path
       style="fill:#362aff;fill-opacity:1;stroke:none;stroke-width:0.31593955;stroke-miterlimit:4;stroke-dasharray:none;stroke-opacity:1"
       id="path7512-6-07"
       sodipodi:type="arc"
       sodipodi:cx="178.71744"
       sodipodi:cy="78.224213"
       sodipodi:rx="2.5853338"
       sodipodi:ry="2.3988321"
       sodipodi:start="1.6210164"
       sodipodi:end="1.6199745"
       d="m 178.58766,80.62002 a 2.5853338,2.3988321 0 0 1 -2.45233,-2.515602 2.5853338,2.3988321 0 0 1 2.71054,-2.276075 2.5853338,2.3988321 0 0 1 2.45374,2.514416 2.5853338,2.3988321 0 0 1 -2.70926,2.277386 l 0.12709,-2.395932 z" />
    <path
       style="fill:#362aff;fill-opacity:1;stroke:none;stroke-width:0.31593955;stroke-miterlimit:4;stroke-dasharray:none;stroke-opacity:1"
       id="path7512-6-32"
       sodipodi:type="arc"
       sodipodi:cx="82.629189"
       sodipodi:cy="145.79134"
       sodipodi:rx="2.5853338"
       sodipodi:ry="2.3988321"
       sodipodi:start="1.6210164"
       sodipodi:end="1.6199745"
       d="m 82.499407,148.18714 a 2.5853338,2.3988321 0 0 1 -2.452327,-2.5156 2.5853338,2.3988321 0 0 1 2.710544,-2.27607 2.5853338,2.3988321 0 0 1 2.453739,2.51441 2.5853338,2.3988321 0 0 1 -2.709265,2.27739 l 0.127091,-2.39593 z" />
    <path
       style="fill:#362aff;fill-opacity:1;stroke:none;stroke-width:0.31593955;stroke-miterlimit:4;stroke-dasharray:none;stroke-opacity:1"
       id="path7512-6-84"
       sodipodi:type="arc"
       sodipodi:cx="117.96209"
       sodipodi:cy="92.61721"
       sodipodi:rx="2.5853338"
       sodipodi:ry="2.3988321"
       sodipodi:start="1.6210164"
       sodipodi:end="1.6199745"
       d="m 117.83231,95.013018 a 2.5853338,2.3988321 0 0 1 -2.45233,-2.515602 2.5853338,2.3988321 0 0 1 2.71055,-2.276076 2.5853338,2.3988321 0 0 1 2.45373,2.514417 2.5853338,2.3988321 0 0 1 -2.70926,2.277385 l 0.12709,-2.395932 z" />
    <path
       style="fill:#362aff;fill-opacity:1;stroke:none;stroke-width:0.31593955;stroke-miterlimit:4;stroke-dasharray:none;stroke-opacity:1"
       id="path7512-6-85"
       sodipodi:type="arc"
       sodipodi:cx="168.80699"
       sodipodi:cy="138.99463"
       sodipodi:rx="2.5853338"
       sodipodi:ry="2.3988321"
       sodipodi:start="1.6210164"
       sodipodi:end="1.6199745"
       d="m 168.67721,141.39044 a 2.5853338,2.3988321 0 0 1 -2.45233,-2.51561 2.5853338,2.3988321 0 0 1 2.71055,-2.27607 2.5853338,2.3988321 0 0 1 2.45374,2.51442 2.5853338,2.3988321 0 0 1 -2.70927,2.27738 l 0.12709,-2.39593 z" />
    <path
       style="fill:#362aff;fill-opacity:1;stroke:none;stroke-width:0.31593955;stroke-miterlimit:4;stroke-dasharray:none;stroke-opacity:1"
       id="path7512-6-35"
       sodipodi:type="arc"
       sodipodi:cx="49.450733"
       sodipodi:cy="130.59872"
       sodipodi:rx="2.5853338"
       sodipodi:ry="2.3988321"
       sodipodi:start="1.6210164"
       sodipodi:end="1.6199745"
       d="m 49.320952,132.99453 a 2.5853338,2.3988321 0 0 1 -2.452327,-2.5156 2.5853338,2.3988321 0 0 1 2.710544,-2.27608 2.5853338,2.3988321 0 0 1 2.453739,2.51442 2.5853338,2.3988321 0 0 1 -2.709266,2.27739 l 0.127091,-2.39594 z" />
    <path
       style="fill:#362aff;fill-opacity:1;stroke:none;stroke-width:0.31593955;stroke-miterlimit:4;stroke-dasharray:none;stroke-opacity:1"
       id="path7512-6-73"
       sodipodi:type="arc"
       sodipodi:cx="156.74211"
       sodipodi:cy="104.21157"
       sodipodi:rx="2.5853338"
       sodipodi:ry="2.3988321"
       sodipodi:start="1.6210164"
       sodipodi:end="1.6199745"
       d="m 156.61233,106.60738 a 2.5853338,2.3988321 0 0 1 -2.45233,-2.5156 2.5853338,2.3988321 0 0 1 2.71055,-2.27608 2.5853338,2.3988321 0 0 1 2.45374,2.51442 2.5853338,2.3988321 0 0 1 -2.70927,2.27738 l 0.12709,-2.39593 z" />
    <path
       style="fill:#362aff;fill-opacity:1;stroke:none;stroke-width:0.31593955;stroke-miterlimit:4;stroke-dasharray:none;stroke-opacity:1"
       id="path7512-6-56"
       sodipodi:type="arc"
       sodipodi:cx="14.979615"
       sodipodi:cy="228.15125"
       sodipodi:rx="2.5853338"
       sodipodi:ry="2.3988321"
       sodipodi:start="1.6210164"
       sodipodi:end="1.6199745"
       d="m 14.849834,230.54705 a 2.5853338,2.3988321 0 0 1 -2.452327,-2.5156 2.5853338,2.3988321 0 0 1 2.710544,-2.27608 2.5853338,2.3988321 0 0 1 2.453739,2.51442 2.5853338,2.3988321 0 0 1 -2.709266,2.27739 l 0.127091,-2.39593 z" />
    <text
       xml:space="preserve"
       style="font-style:normal;font-weight:normal;font-size:12.61771107px;line-height:1.25;font-family:sans-serif;letter-spacing:0px;word-spacing:0px;fill:#000000;fill-opacity:1;stroke:none;stroke-width:0.31544277"
       x="22.315268"
       y="238.92955"
       id="text7689"
       transform="scale(1.0381459,0.96325574)"><tspan
         sodipodi:role="line"
         id="tspan7687"
         x="22.315268"
         y="238.92955"
         style="font-style:normal;font-variant:normal;font-weight:normal;font-stretch:normal;font-size:7.57062721px;font-family:sans-serif;-inkscape-font-specification:'sans-serif, Normal';font-variant-ligatures:normal;font-variant-caps:normal;font-variant-numeric:normal;font-feature-settings:normal;text-align:start;writing-mode:lr-tb;text-anchor:start;stroke-width:0.31544277">Datensatz</tspan></text>
    <text
       xml:space="preserve"
       style="font-style:normal;font-weight:normal;font-size:12.61771107px;line-height:1.25;font-family:sans-serif;letter-spacing:0px;word-spacing:0px;fill:#000000;fill-opacity:1;stroke:none;stroke-width:0.31544277"
       x="21.485149"
       y="251.38123"
       id="text7693"
       transform="scale(1.0381459,0.96325574)"><tspan
         sodipodi:role="line"
         id="tspan7691"
         x="21.485149"
         y="251.38123"
         style="font-style:normal;font-variant:normal;font-weight:normal;font-stretch:normal;font-size:7.57062721px;font-family:sans-serif;-inkscape-font-specification:'sans-serif, Normal';font-variant-ligatures:normal;font-variant-caps:normal;font-variant-numeric:normal;font-feature-settings:normal;text-align:start;writing-mode:lr-tb;text-anchor:start;stroke-width:0.31544277">Ergebnis des Regressionsmdells</tspan></text>
    <path
       style="fill:none;stroke:#ec0000;stroke-width:0.31544277px;stroke-linecap:butt;stroke-linejoin:miter;stroke-opacity:1"
       d="m 11.101613,242.94402 c 8.18689,-4.39786 7.325112,-4.79766 7.325112,-4.79766"
       id="path7695"
       inkscape:connector-curvature="0" />
    <path
       sodipodi:type="star"
       style="fill:#000000;fill-opacity:1;stroke:none;stroke-width:0.26458332;stroke-miterlimit:4;stroke-dasharray:2.11666653, 1.05833327;stroke-dashoffset:0;stroke-opacity:1"
       id="path9479"
       sodipodi:sides="3"
       sodipodi:cx="14.213941"
       sodipodi:cy="46.794996"
       sodipodi:r1="2.3375344"
       sodipodi:r2="1.1687672"
       sodipodi:arg1="0.5404195"
       sodipodi:arg2="1.5876171"
       inkscape:flatsided="false"
       inkscape:rounded="0"
       inkscape:randomized="0"
       d="m 16.21836,47.997646 -2.024078,-0.03405 -2.024078,-0.03405 1.041527,-1.735878 1.041527,-1.735878 0.982551,1.769927 z"
       inkscape:transform-center-x="-11.468827"
       inkscape:transform-center-y="5.0028991" />
    <path
       sodipodi:type="star"
       style="fill:#000000;fill-opacity:1;stroke:none;stroke-width:0.26458332;stroke-miterlimit:4;stroke-dasharray:2.11666655, 1.05833328;stroke-dashoffset:0;stroke-opacity:1"
       id="path9479-6"
       sodipodi:sides="3"
       sodipodi:cx="174.43578"
       sodipodi:cy="180.5936"
       sodipodi:r1="2.3375344"
       sodipodi:r2="1.1687672"
       sodipodi:arg1="0.5404195"
       sodipodi:arg2="1.5876171"
       inkscape:flatsided="false"
       inkscape:rounded="0"
       inkscape:randomized="0"
       d="m 176.44019,181.79625 -2.02407,-0.034 -2.02408,-0.0341 1.04153,-1.73588 1.04152,-1.73588 0.98255,1.76993 z"
       inkscape:transform-center-x="5.0029015"
       inkscape:transform-center-y="11.468825"
       transform="rotate(90,177.26362,206.11755)" />
  </g>
</svg>
