<?xml version="1.0" encoding="UTF-8" standalone="no"?>
<!-- Created with Inkscape (http://www.inkscape.org/) -->

<svg
   xmlns:dc="http://purl.org/dc/elements/1.1/"
   xmlns:cc="http://creativecommons.org/ns#"
   xmlns:rdf="http://www.w3.org/1999/02/22-rdf-syntax-ns#"
   xmlns:svg="http://www.w3.org/2000/svg"
   xmlns="http://www.w3.org/2000/svg"
   xmlns:sodipodi="http://sodipodi.sourceforge.net/DTD/sodipodi-0.dtd"
   xmlns:inkscape="http://www.inkscape.org/namespaces/inkscape"
   width="210mm"
   height="297mm"
   viewBox="0 0 210 297"
   version="1.1"
   id="svg8"
   inkscape:version="0.92.2 (5c3e80d, 2017-08-06)"
   sodipodi:docname="Regression.svg">
  <defs
     id="defs2" />
  <sodipodi:namedview
     id="base"
     pagecolor="#ffffff"
     bordercolor="#666666"
     borderopacity="1.0"
     inkscape:pageopacity="0.0"
     inkscape:pageshadow="2"
     inkscape:zoom="0.76"
     inkscape:cx="230.76889"
     inkscape:cy="550.96042"
     inkscape:document-units="mm"
     inkscape:current-layer="layer1"
     showgrid="false"
     inkscape:window-width="1920"
     inkscape:window-height="986"
     inkscape:window-x="-11"
     inkscape:window-y="-11"
     inkscape:window-maximized="1" />
  <metadata
     id="metadata5">
    <rdf:RDF>
      <cc:Work
         rdf:about="">
        <dc:format>image/svg+xml</dc:format>
        <dc:type
           rdf:resource="http://purl.org/dc/dcmitype/StillImage" />
        <dc:title></dc:title>
      </cc:Work>
    </rdf:RDF>
  </metadata>
  <g
     inkscape:label="Ebene 1"
     inkscape:groupmode="layer"
     id="layer1">
    <path
       style="fill:none;stroke:#000000;stroke-width:0.26458332px;stroke-linecap:butt;stroke-linejoin:miter;stroke-opacity:1"
       d="m 23.434524,65.67857 c 0.755952,138.33928 0,138.33928 0,138.33928 H 177.64881"
       id="path10"
       inkscape:connector-curvature="0" />
    <path
       style="fill:none;stroke:#000000;stroke-width:0.26458332px;stroke-linecap:butt;stroke-linejoin:miter;stroke-opacity:1"
       d="m 23.434524,65.67857 c -4.592984,7.227364 0,0 0,0 z"
       id="path14"
       inkscape:connector-curvature="0" />
    <path
       style="fill:none;stroke:#000000;stroke-width:0.26458332px;stroke-linecap:butt;stroke-linejoin:miter;stroke-opacity:1"
       d="M 23.434524,65.67857 Z"
       id="path16"
       inkscape:connector-curvature="0" />
    <path
       style="fill:none;stroke:#000000;stroke-width:0.26458332px;stroke-linecap:butt;stroke-linejoin:miter;stroke-opacity:1"
       d="m 23.434524,65.67857 v 0 0 0 0"
       id="path18"
       inkscape:connector-curvature="0" />
    <path
       style="fill:none;stroke:#000000;stroke-width:0.26458332px;stroke-linecap:butt;stroke-linejoin:miter;stroke-opacity:1"
       d="m 23.434524,65.67857 v 0 0"
       id="path20"
       inkscape:connector-curvature="0" />
    <path
       style="fill:none;stroke:#000000;stroke-width:0.26458332px;stroke-linecap:butt;stroke-linejoin:miter;stroke-opacity:1"
       d="M 23.434524,65.67857 Z"
       id="path22"
       inkscape:connector-curvature="0" />
    <path
       style="fill:none;stroke:#000000;stroke-width:0.28342366px;stroke-linecap:butt;stroke-linejoin:miter;stroke-opacity:1"
       d="m 23.426763,65.671952 c 5.290712,7.199594 0,0 0,0 z"
       id="path14-9"
       inkscape:connector-curvature="0" />
    <path
       style="fill:none;stroke:#000000;stroke-width:0.26458332px;stroke-linecap:butt;stroke-linejoin:miter;stroke-opacity:1"
       d="m 177.64881,204.01785 c -7.06219,-5.1922 0,0 0,0 z"
       id="path57"
       inkscape:connector-curvature="0" />
    <path
       inkscape:connector-curvature="0"
       id="path59"
       d="m 177.64881,204.01785 c -7.06219,7.71573 0,0 0,0 z"
       style="fill:none;stroke:#000000;stroke-width:0.3225337px;stroke-linecap:butt;stroke-linejoin:miter;stroke-opacity:1" />
    <flowRoot
       xml:space="preserve"
       id="flowRoot7472"
       style="font-style:normal;font-weight:normal;font-size:40px;line-height:1.25;font-family:sans-serif;letter-spacing:0px;word-spacing:0px;fill:#000000;fill-opacity:1;stroke:none"
       transform="scale(0.26458333)"><flowRegion
         id="flowRegion7474"><rect
           id="rect7476"
           width="18.421053"
           height="155.26315"
           x="32.894737"
           y="434.36179" /></flowRegion><flowPara
         id="flowPara7478">Eis</flowPara></flowRoot>    <text
       xml:space="preserve"
       style="font-style:normal;font-weight:normal;font-size:10.58333302px;line-height:1.25;font-family:sans-serif;letter-spacing:0px;word-spacing:0px;fill:#000000;fill-opacity:1;stroke:none;stroke-width:0.26458332"
       x="-169.38776"
       y="20.063702"
       id="text7482"
       transform="rotate(-89.980267)"><tspan
         sodipodi:role="line"
         id="tspan7480"
         x="-169.38776"
         y="20.063702"
         style="font-style:normal;font-variant:normal;font-weight:normal;font-stretch:normal;font-size:6.3499999px;font-family:sans-serif;-inkscape-font-specification:'sans-serif, Normal';font-variant-ligatures:normal;font-variant-caps:normal;font-variant-numeric:normal;font-feature-settings:normal;text-align:start;writing-mode:lr-tb;text-anchor:start;stroke-width:0.26458332">Eisverkäufe pro Minute</tspan></text>
    <flowRoot
       xml:space="preserve"
       id="flowRoot7488"
       style="font-style:normal;font-weight:normal;font-size:40px;line-height:1.25;font-family:sans-serif;letter-spacing:0px;word-spacing:0px;fill:#000000;fill-opacity:1;stroke:none"
       transform="scale(0.26458333)"><flowRegion
         id="flowRegion7490"><rect
           id="rect7492"
           width="503.94736"
           height="40.789474"
           x="131.57895"
           y="779.09863" /></flowRegion><flowPara
         id="flowPara7494">Temperarur</flowPara></flowRoot>    <text
       xml:space="preserve"
       style="font-style:normal;font-weight:normal;font-size:10.58333302px;line-height:1.25;font-family:sans-serif;letter-spacing:0px;word-spacing:0px;fill:#000000;fill-opacity:1;stroke:none;stroke-width:0.26458332"
       x="78.678726"
       y="212.05482"
       id="text7498"><tspan
         sodipodi:role="line"
         id="tspan7496"
         x="78.678726"
         y="212.05482"
         style="font-style:normal;font-variant:normal;font-weight:normal;font-stretch:normal;font-size:6.3499999px;font-family:sans-serif;-inkscape-font-specification:'sans-serif, Normal';font-variant-ligatures:normal;font-variant-caps:normal;font-variant-numeric:normal;font-feature-settings:normal;text-align:start;writing-mode:lr-tb;text-anchor:start;stroke-width:0.26458332">Temperatur</tspan></text>
    <path
       style="fill:none;stroke:#d62424;stroke-width:0.265;stroke-linecap:butt;stroke-linejoin:miter;stroke-opacity:1;stroke-miterlimit:4;stroke-dasharray:none"
       d="M 24.021381,181.76699 C 171.28289,89.8591 171.97916,89.510964 171.97916,89.510964"
       id="path7500"
       inkscape:connector-curvature="0" />
    <path
       style="fill:#362aff;fill-opacity:1;stroke:none;stroke-width:0.26499999;stroke-miterlimit:4;stroke-dasharray:none;stroke-opacity:1"
       id="path7512"
       sodipodi:type="arc"
       sodipodi:cx="33.769188"
       sodipodi:cy="168.88596"
       sodipodi:rx="2.0888157"
       sodipodi:ry="2.0888157"
       sodipodi:start="1.6210164"
       sodipodi:end="1.6199745"
       d="m 33.664332,170.97214 a 2.0888157,2.0888157 0 0 1 -1.981354,-2.1905 2.0888157,2.0888157 0 0 1 2.18998,-1.98192 2.0888157,2.0888157 0 0 1 1.982493,2.18946 2.0888157,2.0888157 0 0 1 -2.188946,1.98307 l 0.102683,-2.08629 z" />
    <path
       style="fill:#362aff;fill-opacity:1;stroke:none;stroke-width:0.26499999;stroke-miterlimit:4;stroke-dasharray:none;stroke-opacity:1"
       id="path7512-6"
       sodipodi:type="arc"
       sodipodi:cx="59.53125"
       sodipodi:cy="171.32292"
       sodipodi:rx="2.0888157"
       sodipodi:ry="2.0888157"
       sodipodi:start="1.6210164"
       sodipodi:end="1.6199745"
       d="m 59.426394,173.4091 a 2.0888157,2.0888157 0 0 1 -1.981353,-2.19049 2.0888157,2.0888157 0 0 1 2.189979,-1.98192 2.0888157,2.0888157 0 0 1 1.982493,2.18946 2.0888157,2.0888157 0 0 1 -2.188946,1.98306 l 0.102683,-2.08629 z" />
    <path
       style="fill:#362aff;fill-opacity:1;stroke:none;stroke-width:0.26499999;stroke-miterlimit:4;stroke-dasharray:none;stroke-opacity:1"
       id="path7512-7"
       sodipodi:type="arc"
       sodipodi:cx="53.961075"
       sodipodi:cy="156.7012"
       sodipodi:rx="2.0888157"
       sodipodi:ry="2.0888157"
       sodipodi:start="1.6210164"
       sodipodi:end="1.6199745"
       d="m 53.856218,158.78738 a 2.0888157,2.0888157 0 0 1 -1.981353,-2.19049 2.0888157,2.0888157 0 0 1 2.189979,-1.98192 2.0888157,2.0888157 0 0 1 1.982494,2.18946 2.0888157,2.0888157 0 0 1 -2.188946,1.98306 l 0.102683,-2.08629 z" />
    <path
       style="fill:#362aff;fill-opacity:1;stroke:none;stroke-width:0.26499999;stroke-miterlimit:4;stroke-dasharray:none;stroke-opacity:1"
       id="path7512-1"
       sodipodi:type="arc"
       sodipodi:cx="73.456688"
       sodipodi:cy="142.77577"
       sodipodi:rx="2.0888157"
       sodipodi:ry="2.0888157"
       sodipodi:start="1.6210164"
       sodipodi:end="1.6199745"
       d="m 73.351832,144.86195 a 2.0888157,2.0888157 0 0 1 -1.981354,-2.19049 2.0888157,2.0888157 0 0 1 2.18998,-1.98192 2.0888157,2.0888157 0 0 1 1.982493,2.18946 2.0888157,2.0888157 0 0 1 -2.188946,1.98306 l 0.102683,-2.08629 z" />
    <path
       style="fill:#362aff;fill-opacity:1;stroke:none;stroke-width:0.26499999;stroke-miterlimit:4;stroke-dasharray:none;stroke-opacity:1"
       id="path7512-4"
       sodipodi:type="arc"
       sodipodi:cx="91.90789"
       sodipodi:cy="142.42763"
       sodipodi:rx="2.0888157"
       sodipodi:ry="2.0888157"
       sodipodi:start="1.6210164"
       sodipodi:end="1.6199745"
       d="m 91.803034,144.51381 a 2.0888157,2.0888157 0 0 1 -1.981353,-2.1905 2.0888157,2.0888157 0 0 1 2.189979,-1.98192 2.0888157,2.0888157 0 0 1 1.982494,2.18946 2.0888157,2.0888157 0 0 1 -2.188946,1.98307 l 0.102682,-2.08629 z" />
    <path
       style="fill:#362aff;fill-opacity:1;stroke:none;stroke-width:0.26499999;stroke-miterlimit:4;stroke-dasharray:none;stroke-opacity:1"
       id="path7512-6-8"
       sodipodi:type="arc"
       sodipodi:cx="116.97369"
       sodipodi:cy="118.75439"
       sodipodi:rx="2.0888157"
       sodipodi:ry="2.0888157"
       sodipodi:start="1.6210164"
       sodipodi:end="1.6199745"
       d="m 116.86883,120.84057 a 2.0888157,2.0888157 0 0 1 -1.98135,-2.1905 2.0888157,2.0888157 0 0 1 2.18998,-1.98192 2.0888157,2.0888157 0 0 1 1.98249,2.18946 2.0888157,2.0888157 0 0 1 -2.18895,1.98307 l 0.10269,-2.08629 z" />
    <path
       style="fill:#362aff;fill-opacity:1;stroke:none;stroke-width:0.26499999;stroke-miterlimit:4;stroke-dasharray:none;stroke-opacity:1"
       id="path7512-6-7"
       sodipodi:type="arc"
       sodipodi:cx="151.091"
       sodipodi:cy="108.31031"
       sodipodi:rx="2.0888157"
       sodipodi:ry="2.0888157"
       sodipodi:start="1.6210164"
       sodipodi:end="1.6199745"
       d="m 150.98615,110.39649 a 2.0888157,2.0888157 0 0 1 -1.98136,-2.19049 2.0888157,2.0888157 0 0 1 2.18998,-1.98193 2.0888157,2.0888157 0 0 1 1.9825,2.18947 2.0888157,2.0888157 0 0 1 -2.18895,1.98306 l 0.10268,-2.08629 z" />
    <path
       style="fill:#362aff;fill-opacity:1;stroke:none;stroke-width:0.26499999;stroke-miterlimit:4;stroke-dasharray:none;stroke-opacity:1"
       id="path7512-6-1"
       sodipodi:type="arc"
       sodipodi:cx="133.33607"
       sodipodi:cy="117.36184"
       sodipodi:rx="2.0888157"
       sodipodi:ry="2.0888157"
       sodipodi:start="1.6210164"
       sodipodi:end="1.6199745"
       d="m 133.23122,119.44802 a 2.0888157,2.0888157 0 0 1 -1.98135,-2.19049 2.0888157,2.0888157 0 0 1 2.18997,-1.98193 2.0888157,2.0888157 0 0 1 1.9825,2.18947 2.0888157,2.0888157 0 0 1 -2.18895,1.98306 l 0.10268,-2.08629 z" />
    <path
       style="fill:#362aff;fill-opacity:1;stroke:none;stroke-width:0.26499999;stroke-miterlimit:4;stroke-dasharray:none;stroke-opacity:1"
       id="path7512-6-9"
       sodipodi:type="arc"
       sodipodi:cx="106.18147"
       sodipodi:cy="134.07237"
       sodipodi:rx="2.0888157"
       sodipodi:ry="2.0888157"
       sodipodi:start="1.6210164"
       sodipodi:end="1.6199745"
       d="m 106.07662,136.15855 a 2.0888157,2.0888157 0 0 1 -1.98136,-2.19049 2.0888157,2.0888157 0 0 1 2.18998,-1.98192 2.0888157,2.0888157 0 0 1 1.9825,2.18946 2.0888157,2.0888157 0 0 1 -2.18895,1.98306 l 0.10268,-2.08629 z" />
    <path
       style="fill:#362aff;fill-opacity:1;stroke:none;stroke-width:0.26499999;stroke-miterlimit:4;stroke-dasharray:none;stroke-opacity:1"
       id="path7512-6-97"
       sodipodi:type="arc"
       sodipodi:cx="37.598682"
       sodipodi:cy="177.58937"
       sodipodi:rx="2.0888157"
       sodipodi:ry="2.0888157"
       sodipodi:start="1.6210164"
       sodipodi:end="1.6199745"
       d="m 37.493826,179.67555 a 2.0888157,2.0888157 0 0 1 -1.981353,-2.19049 2.0888157,2.0888157 0 0 1 2.189979,-1.98193 2.0888157,2.0888157 0 0 1 1.982494,2.18947 2.0888157,2.0888157 0 0 1 -2.188946,1.98306 l 0.102682,-2.08629 z" />
    <path
       style="fill:#362aff;fill-opacity:1;stroke:none;stroke-width:0.26499999;stroke-miterlimit:4;stroke-dasharray:none;stroke-opacity:1"
       id="path7512-6-4"
       sodipodi:type="arc"
       sodipodi:cx="66.145836"
       sodipodi:cy="152.52357"
       sodipodi:rx="2.0888157"
       sodipodi:ry="2.0888157"
       sodipodi:start="1.6210164"
       sodipodi:end="1.6199745"
       d="m 66.040979,154.60976 a 2.0888157,2.0888157 0 0 1 -1.981353,-2.1905 2.0888157,2.0888157 0 0 1 2.189979,-1.98192 2.0888157,2.0888157 0 0 1 1.982494,2.18946 2.0888157,2.0888157 0 0 1 -2.188946,1.98307 l 0.102683,-2.0863 z" />
    <path
       style="fill:#362aff;fill-opacity:1;stroke:none;stroke-width:0.26499999;stroke-miterlimit:4;stroke-dasharray:none;stroke-opacity:1"
       id="path7512-6-0"
       sodipodi:type="arc"
       sodipodi:cx="134.38048"
       sodipodi:cy="105.52522"
       sodipodi:rx="2.0888157"
       sodipodi:ry="2.0888157"
       sodipodi:start="1.6210164"
       sodipodi:end="1.6199745"
       d="m 134.27562,107.6114 a 2.0888157,2.0888157 0 0 1 -1.98135,-2.19049 2.0888157,2.0888157 0 0 1 2.18998,-1.98192 2.0888157,2.0888157 0 0 1 1.98249,2.18946 2.0888157,2.0888157 0 0 1 -2.18894,1.98306 l 0.10268,-2.08629 z" />
    <path
       style="fill:#362aff;fill-opacity:1;stroke:none;stroke-width:0.26499999;stroke-miterlimit:4;stroke-dasharray:none;stroke-opacity:1"
       id="path7512-6-08"
       sodipodi:type="arc"
       sodipodi:cx="121.84759"
       sodipodi:cy="130.93915"
       sodipodi:rx="2.0888157"
       sodipodi:ry="2.0888157"
       sodipodi:start="1.6210164"
       sodipodi:end="1.6199745"
       d="m 121.74273,133.02533 a 2.0888157,2.0888157 0 0 1 -1.98135,-2.1905 2.0888157,2.0888157 0 0 1 2.18998,-1.98192 2.0888157,2.0888157 0 0 1 1.98249,2.18946 2.0888157,2.0888157 0 0 1 -2.18895,1.98307 l 0.10269,-2.08629 z" />
    <path
       style="fill:#362aff;fill-opacity:1;stroke:none;stroke-width:0.26499999;stroke-miterlimit:4;stroke-dasharray:none;stroke-opacity:1"
       id="path7512-6-5"
       sodipodi:type="arc"
       sodipodi:cx="89.47094"
       sodipodi:cy="126.76151"
       sodipodi:rx="2.0888157"
       sodipodi:ry="2.0888157"
       sodipodi:start="1.6210164"
       sodipodi:end="1.6199745"
       d="m 89.366083,128.84769 a 2.0888157,2.0888157 0 0 1 -1.981353,-2.19049 2.0888157,2.0888157 0 0 1 2.189979,-1.98192 2.0888157,2.0888157 0 0 1 1.982494,2.18946 2.0888157,2.0888157 0 0 1 -2.188946,1.98306 l 0.102683,-2.08629 z" />
    <path
       style="fill:#362aff;fill-opacity:1;stroke:none;stroke-width:0.26499999;stroke-miterlimit:4;stroke-dasharray:none;stroke-opacity:1"
       id="path7512-6-3"
       sodipodi:type="arc"
       sodipodi:cx="169.89035"
       sodipodi:cy="101.34759"
       sodipodi:rx="2.0888157"
       sodipodi:ry="2.0888157"
       sodipodi:start="1.6210164"
       sodipodi:end="1.6199745"
       d="m 169.78549,103.43377 a 2.0888157,2.0888157 0 0 1 -1.98135,-2.1905 2.0888157,2.0888157 0 0 1 2.18998,-1.981919 2.0888157,2.0888157 0 0 1 1.98249,2.189459 2.0888157,2.0888157 0 0 1 -2.18894,1.98307 l 0.10268,-2.08629 z" />
    <path
       style="fill:#362aff;fill-opacity:1;stroke:none;stroke-width:0.26499999;stroke-miterlimit:4;stroke-dasharray:none;stroke-opacity:1"
       id="path7512-6-07"
       sodipodi:type="arc"
       sodipodi:cx="156.31305"
       sodipodi:cy="95.081139"
       sodipodi:rx="2.0888157"
       sodipodi:ry="2.0888157"
       sodipodi:start="1.6210164"
       sodipodi:end="1.6199745"
       d="m 156.20819,97.167321 a 2.0888157,2.0888157 0 0 1 -1.98135,-2.190495 2.0888157,2.0888157 0 0 1 2.18998,-1.981924 2.0888157,2.0888157 0 0 1 1.98249,2.189463 2.0888157,2.0888157 0 0 1 -2.18894,1.983064 l 0.10268,-2.08629 z" />
    <path
       style="fill:#362aff;fill-opacity:1;stroke:none;stroke-width:0.26499999;stroke-miterlimit:4;stroke-dasharray:none;stroke-opacity:1"
       id="path7512-6-32"
       sodipodi:type="arc"
       sodipodi:cx="78.678726"
       sodipodi:cy="153.91612"
       sodipodi:rx="2.0888157"
       sodipodi:ry="2.0888157"
       sodipodi:start="1.6210164"
       sodipodi:end="1.6199745"
       d="m 78.57387,156.0023 a 2.0888157,2.0888157 0 0 1 -1.981353,-2.19049 2.0888157,2.0888157 0 0 1 2.189979,-1.98192 2.0888157,2.0888157 0 0 1 1.982494,2.18946 2.0888157,2.0888157 0 0 1 -2.188947,1.98306 l 0.102683,-2.08629 z" />
    <path
       style="fill:#362aff;fill-opacity:1;stroke:none;stroke-width:0.26499999;stroke-miterlimit:4;stroke-dasharray:none;stroke-opacity:1"
       id="path7512-6-84"
       sodipodi:type="arc"
       sodipodi:cx="107.22588"
       sodipodi:cy="107.61404"
       sodipodi:rx="2.0888157"
       sodipodi:ry="2.0888157"
       sodipodi:start="1.6210164"
       sodipodi:end="1.6199745"
       d="m 107.12103,109.70022 a 2.0888157,2.0888157 0 0 1 -1.98136,-2.1905 2.0888157,2.0888157 0 0 1 2.18998,-1.98192 2.0888157,2.0888157 0 0 1 1.9825,2.18946 2.0888157,2.0888157 0 0 1 -2.18895,1.98307 l 0.10268,-2.08629 z" />
    <path
       style="fill:#362aff;fill-opacity:1;stroke:none;stroke-width:0.26499999;stroke-miterlimit:4;stroke-dasharray:none;stroke-opacity:1"
       id="path7512-6-85"
       sodipodi:type="arc"
       sodipodi:cx="148.30592"
       sodipodi:cy="147.9978"
       sodipodi:rx="2.0888157"
       sodipodi:ry="2.0888157"
       sodipodi:start="1.6210164"
       sodipodi:end="1.6199745"
       d="m 148.20107,150.08398 a 2.0888157,2.0888157 0 0 1 -1.98136,-2.19049 2.0888157,2.0888157 0 0 1 2.18998,-1.98192 2.0888157,2.0888157 0 0 1 1.9825,2.18946 2.0888157,2.0888157 0 0 1 -2.18895,1.98306 l 0.10268,-2.08629 z" />
    <path
       style="fill:#362aff;fill-opacity:1;stroke:none;stroke-width:0.26499999;stroke-miterlimit:4;stroke-dasharray:none;stroke-opacity:1"
       id="path7512-6-35"
       sodipodi:type="arc"
       sodipodi:cx="51.872257"
       sodipodi:cy="140.68695"
       sodipodi:rx="2.0888157"
       sodipodi:ry="2.0888157"
       sodipodi:start="1.6210164"
       sodipodi:end="1.6199745"
       d="m 51.767401,142.77313 a 2.0888157,2.0888157 0 0 1 -1.981353,-2.19049 2.0888157,2.0888157 0 0 1 2.189979,-1.98193 2.0888157,2.0888157 0 0 1 1.982494,2.18947 2.0888157,2.0888157 0 0 1 -2.188947,1.98306 l 0.102683,-2.08629 z" />
    <path
       style="fill:#362aff;fill-opacity:1;stroke:none;stroke-width:0.26499999;stroke-miterlimit:4;stroke-dasharray:none;stroke-opacity:1"
       id="path7512-6-73"
       sodipodi:type="arc"
       sodipodi:cx="138.55812"
       sodipodi:cy="117.70998"
       sodipodi:rx="2.0888157"
       sodipodi:ry="2.0888157"
       sodipodi:start="1.6210164"
       sodipodi:end="1.6199745"
       d="m 138.45326,119.79616 a 2.0888157,2.0888157 0 0 1 -1.98135,-2.1905 2.0888157,2.0888157 0 0 1 2.18998,-1.98192 2.0888157,2.0888157 0 0 1 1.98249,2.18946 2.0888157,2.0888157 0 0 1 -2.18894,1.98307 l 0.10268,-2.08629 z" />
    <path
       style="fill:#362aff;fill-opacity:1;stroke:none;stroke-width:0.26499999;stroke-miterlimit:4;stroke-dasharray:none;stroke-opacity:1"
       id="path7512-6-56"
       sodipodi:type="arc"
       sodipodi:cx="24.021383"
       sodipodi:cy="225.63214"
       sodipodi:rx="2.0888157"
       sodipodi:ry="2.0888157"
       sodipodi:start="1.6210164"
       sodipodi:end="1.6199745"
       d="m 23.916527,227.71832 a 2.0888157,2.0888157 0 0 1 -1.981353,-2.19049 2.0888157,2.0888157 0 0 1 2.189979,-1.98193 2.0888157,2.0888157 0 0 1 1.982494,2.18947 2.0888157,2.0888157 0 0 1 -2.188946,1.98306 l 0.102682,-2.08629 z" />
    <text
       xml:space="preserve"
       style="font-style:normal;font-weight:normal;font-size:10.58333302px;line-height:1.25;font-family:sans-serif;letter-spacing:0px;word-spacing:0px;fill:#000000;fill-opacity:1;stroke:none;stroke-width:0.26458332"
       x="30.635963"
       y="227.3728"
       id="text7689"><tspan
         sodipodi:role="line"
         id="tspan7687"
         x="30.635963"
         y="227.3728"
         style="font-style:normal;font-variant:normal;font-weight:normal;font-stretch:normal;font-size:6.3499999px;font-family:sans-serif;-inkscape-font-specification:'sans-serif, Normal';font-variant-ligatures:normal;font-variant-caps:normal;font-variant-numeric:normal;font-feature-settings:normal;text-align:start;writing-mode:lr-tb;text-anchor:start;stroke-width:0.26458332">Datensatz</tspan></text>
    <text
       xml:space="preserve"
       style="font-style:normal;font-weight:normal;font-size:10.58333302px;line-height:1.25;font-family:sans-serif;letter-spacing:0px;word-spacing:0px;fill:#000000;fill-opacity:1;stroke:none;stroke-width:0.26458332"
       x="29.939688"
       y="237.81688"
       id="text7693"><tspan
         sodipodi:role="line"
         id="tspan7691"
         x="29.939688"
         y="237.81688"
         style="font-style:normal;font-variant:normal;font-weight:normal;font-stretch:normal;font-size:6.3499999px;font-family:sans-serif;-inkscape-font-specification:'sans-serif, Normal';font-variant-ligatures:normal;font-variant-caps:normal;font-variant-numeric:normal;font-feature-settings:normal;text-align:start;writing-mode:lr-tb;text-anchor:start;stroke-width:0.26458332">Ergebnis des Regressionsmdells</tspan></text>
    <path
       style="fill:none;stroke:#ec0000;stroke-width:0.26458332px;stroke-linecap:butt;stroke-linejoin:miter;stroke-opacity:1"
       d="m 20.888158,238.51315 c 6.614583,-3.82949 5.918311,-4.17763 5.918311,-4.17763"
       id="path7695"
       inkscape:connector-curvature="0" />
  </g>
</svg>
