<?xml version="1.0" encoding="UTF-8" standalone="no"?>
<!-- Created with Inkscape (http://www.inkscape.org/) -->

<svg
   xmlns:dc="http://purl.org/dc/elements/1.1/"
   xmlns:cc="http://creativecommons.org/ns#"
   xmlns:rdf="http://www.w3.org/1999/02/22-rdf-syntax-ns#"
   xmlns:svg="http://www.w3.org/2000/svg"
   xmlns="http://www.w3.org/2000/svg"
   xmlns:sodipodi="http://sodipodi.sourceforge.net/DTD/sodipodi-0.dtd"
   xmlns:inkscape="http://www.inkscape.org/namespaces/inkscape"
   width="210mm"
   height="227mm"
   viewBox="0 0 210 227"
   version="1.1"
   id="svg8"
   inkscape:version="0.92.2 (5c3e80d, 2017-08-06)"
   sodipodi:docname="Regression.svg"
   inkscape:export-filename="C:\Users\Laura\Documents\GitHub\LaTexSeminar\bilder\Regression.png"
   inkscape:export-xdpi="96"
   inkscape:export-ydpi="96">
  <defs
     id="defs2" />
  <sodipodi:namedview
     id="base"
     pagecolor="#ffffff"
     bordercolor="#666666"
     borderopacity="1.0"
     inkscape:pageopacity="0.0"
     inkscape:pageshadow="2"
     inkscape:zoom="0.76"
     inkscape:cx="99.901575"
     inkscape:cy="383.74187"
     inkscape:document-units="mm"
     inkscape:current-layer="layer1"
     showgrid="false"
     inkscape:window-width="1920"
     inkscape:window-height="986"
     inkscape:window-x="-11"
     inkscape:window-y="-11"
     inkscape:window-maximized="1" />
  <metadata
     id="metadata5">
    <rdf:RDF>
      <cc:Work
         rdf:about="">
        <dc:format>image/svg+xml</dc:format>
        <dc:type
           rdf:resource="http://purl.org/dc/dcmitype/StillImage" />
        <dc:title></dc:title>
      </cc:Work>
    </rdf:RDF>
  </metadata>
  <g
     inkscape:label="Ebene 1"
     inkscape:groupmode="layer"
     id="layer1"
     transform="translate(0,-70)">
    <path
       style="fill:none;stroke:#000000;stroke-width:0.31544277px;stroke-linecap:butt;stroke-linejoin:miter;stroke-opacity:1"
       d="m 13.905122,86.582244 c 0.935644,158.871226 0,158.871226 0,158.871226 H 204.77664"
       id="path10"
       inkscape:connector-curvature="0" />
    <path
       style="fill:none;stroke:#000000;stroke-width:0.31544277px;stroke-linecap:butt;stroke-linejoin:miter;stroke-opacity:1"
       d="M 13.905122,86.582244 Z"
       id="path16"
       inkscape:connector-curvature="0" />
    <path
       style="fill:none;stroke:#000000;stroke-width:0.26458332px;stroke-linecap:butt;stroke-linejoin:miter;stroke-opacity:1"
       d="m 23.434524,65.67857 v 0 0 0 0"
       id="path18"
       inkscape:connector-curvature="0" />
    <path
       style="fill:none;stroke:#000000;stroke-width:0.26458332px;stroke-linecap:butt;stroke-linejoin:miter;stroke-opacity:1"
       d="m 23.434524,65.67857 v 0 0"
       id="path20"
       inkscape:connector-curvature="0" />
    <path
       style="fill:none;stroke:#000000;stroke-width:0.31544277px;stroke-linecap:butt;stroke-linejoin:miter;stroke-opacity:1"
       d="M 13.905122,86.582244 Z"
       id="path22"
       inkscape:connector-curvature="0" />
    <flowRoot
       xml:space="preserve"
       id="flowRoot7472"
       style="font-style:normal;font-weight:normal;font-size:40px;line-height:1.25;font-family:sans-serif;letter-spacing:0px;word-spacing:0px;fill:#000000;fill-opacity:1;stroke:none"
       transform="scale(0.26458333)"><flowRegion
         id="flowRegion7474"><rect
           id="rect7476"
           width="18.421053"
           height="155.26315"
           x="32.894737"
           y="434.36179" /></flowRegion><flowPara
         id="flowPara7478">Eis</flowPara></flowRoot>    <text
       xml:space="preserve"
       style="font-style:normal;font-weight:normal;font-size:12.61771107px;line-height:1.25;font-family:sans-serif;letter-spacing:0px;word-spacing:0px;fill:#000000;fill-opacity:1;stroke:none;stroke-width:0.31544277"
       x="-213.53467"
       y="9.3794003"
       id="text7482"
       transform="matrix(3.5754349e-4,-0.96325564,1.0381459,3.3175087e-4,0,0)"><tspan
         sodipodi:role="line"
         id="tspan7480"
         x="-213.53467"
         y="9.3794003"
         style="font-style:normal;font-variant:normal;font-weight:normal;font-stretch:normal;font-size:7.57062721px;font-family:sans-serif;-inkscape-font-specification:'sans-serif, Normal';font-variant-ligatures:normal;font-variant-caps:normal;font-variant-numeric:normal;font-feature-settings:normal;text-align:start;writing-mode:lr-tb;text-anchor:start;stroke-width:0.31544277">Eisverkäufe pro Minute</tspan></text>
    <flowRoot
       xml:space="preserve"
       id="flowRoot7488"
       style="font-style:normal;font-weight:normal;font-size:40px;line-height:1.25;font-family:sans-serif;letter-spacing:0px;word-spacing:0px;fill:#000000;fill-opacity:1;stroke:none"
       transform="scale(0.26458333)"><flowRegion
         id="flowRegion7490"><rect
           id="rect7492"
           width="503.94736"
           height="40.789474"
           x="131.57895"
           y="779.09863" /></flowRegion><flowPara
         id="flowPara7494">Temperarur</flowPara></flowRoot>    <text
       xml:space="preserve"
       style="font-style:normal;font-weight:normal;font-size:12.61771107px;line-height:1.25;font-family:sans-serif;letter-spacing:0px;word-spacing:0px;fill:#000000;fill-opacity:1;stroke:none;stroke-width:0.31544277"
       x="79.25769"
       y="264.39841"
       id="text7498"
       transform="scale(1.0381459,0.96325574)"><tspan
         sodipodi:role="line"
         id="tspan7496"
         x="79.25769"
         y="264.39841"
         style="font-style:normal;font-variant:normal;font-weight:normal;font-stretch:normal;font-size:7.57062721px;font-family:sans-serif;-inkscape-font-specification:'sans-serif, Normal';font-variant-ligatures:normal;font-variant-caps:normal;font-variant-numeric:normal;font-feature-settings:normal;text-align:start;writing-mode:lr-tb;text-anchor:start;stroke-width:0.31544277">Temperatur</tspan></text>
    <path
       style="fill:none;stroke:#d62424;stroke-width:0.31593955;stroke-linecap:butt;stroke-linejoin:miter;stroke-miterlimit:4;stroke-dasharray:none;stroke-opacity:1"
       d="M 14.631477,219.9002 C 196.89752,114.35158 197.7593,113.95178 197.7593,113.95178"
       id="path7500"
       inkscape:connector-curvature="0" />
    <path
       style="fill:#362aff;fill-opacity:1;stroke:none;stroke-width:0.31593955;stroke-miterlimit:4;stroke-dasharray:none;stroke-opacity:1"
       id="path7512"
       sodipodi:type="arc"
       sodipodi:cx="26.696369"
       sodipodi:cy="205.10739"
       sodipodi:rx="2.5853338"
       sodipodi:ry="2.3988321"
       sodipodi:start="1.6210164"
       sodipodi:end="1.6199745"
       d="m 26.566588,207.5032 a 2.5853338,2.3988321 0 0 1 -2.452327,-2.5156 2.5853338,2.3988321 0 0 1 2.710544,-2.27608 2.5853338,2.3988321 0 0 1 2.453739,2.51442 2.5853338,2.3988321 0 0 1 -2.709266,2.27738 l 0.127091,-2.39593 z" />
    <path
       style="fill:#362aff;fill-opacity:1;stroke:none;stroke-width:0.31593955;stroke-miterlimit:4;stroke-dasharray:none;stroke-opacity:1"
       id="path7512-6"
       sodipodi:type="arc"
       sodipodi:cx="58.582157"
       sodipodi:cy="207.90604"
       sodipodi:rx="2.5853338"
       sodipodi:ry="2.3988321"
       sodipodi:start="1.6210164"
       sodipodi:end="1.6199745"
       d="m 58.452376,210.30184 a 2.5853338,2.3988321 0 0 1 -2.452327,-2.5156 2.5853338,2.3988321 0 0 1 2.710544,-2.27607 2.5853338,2.3988321 0 0 1 2.453739,2.51441 2.5853338,2.3988321 0 0 1 -2.709266,2.27739 l 0.127091,-2.39593 z" />
    <path
       style="fill:#362aff;fill-opacity:1;stroke:none;stroke-width:0.31593955;stroke-miterlimit:4;stroke-dasharray:none;stroke-opacity:1"
       id="path7512-7"
       sodipodi:type="arc"
       sodipodi:cx="51.687931"
       sodipodi:cy="191.11421"
       sodipodi:rx="2.5853338"
       sodipodi:ry="2.3988321"
       sodipodi:start="1.6210164"
       sodipodi:end="1.6199745"
       d="m 51.55815,193.51002 a 2.5853338,2.3988321 0 0 1 -2.452327,-2.5156 2.5853338,2.3988321 0 0 1 2.710544,-2.27608 2.5853338,2.3988321 0 0 1 2.453739,2.51442 2.5853338,2.3988321 0 0 1 -2.709266,2.27738 l 0.127091,-2.39593 z" />
    <path
       style="fill:#362aff;fill-opacity:1;stroke:none;stroke-width:0.31593955;stroke-miterlimit:4;stroke-dasharray:none;stroke-opacity:1"
       id="path7512-1"
       sodipodi:type="arc"
       sodipodi:cx="75.817719"
       sodipodi:cy="175.12201"
       sodipodi:rx="2.5853338"
       sodipodi:ry="2.3988321"
       sodipodi:start="1.6210164"
       sodipodi:end="1.6199745"
       d="m 75.687937,177.51782 a 2.5853338,2.3988321 0 0 1 -2.452327,-2.51561 2.5853338,2.3988321 0 0 1 2.710544,-2.27607 2.5853338,2.3988321 0 0 1 2.453739,2.51442 2.5853338,2.3988321 0 0 1 -2.709265,2.27738 l 0.127091,-2.39593 z" />
    <path
       style="fill:#362aff;fill-opacity:1;stroke:none;stroke-width:0.31593955;stroke-miterlimit:4;stroke-dasharray:none;stroke-opacity:1"
       id="path7512-4"
       sodipodi:type="arc"
       sodipodi:cx="98.654823"
       sodipodi:cy="174.72218"
       sodipodi:rx="2.5853338"
       sodipodi:ry="2.3988321"
       sodipodi:start="1.6210164"
       sodipodi:end="1.6199745"
       d="m 98.525042,177.11799 a 2.5853338,2.3988321 0 0 1 -2.452327,-2.5156 2.5853338,2.3988321 0 0 1 2.710544,-2.27608 2.5853338,2.3988321 0 0 1 2.453741,2.51442 2.5853338,2.3988321 0 0 1 -2.709267,2.27739 l 0.12709,-2.39594 z" />
    <path
       style="fill:#362aff;fill-opacity:1;stroke:none;stroke-width:0.31593955;stroke-miterlimit:4;stroke-dasharray:none;stroke-opacity:1"
       id="path7512-6-8"
       sodipodi:type="arc"
       sodipodi:cx="129.67885"
       sodipodi:cy="147.53543"
       sodipodi:rx="2.5853338"
       sodipodi:ry="2.3988321"
       sodipodi:start="1.6210164"
       sodipodi:end="1.6199745"
       d="m 129.54907,149.93124 a 2.5853338,2.3988321 0 0 1 -2.45233,-2.5156 2.5853338,2.3988321 0 0 1 2.71054,-2.27608 2.5853338,2.3988321 0 0 1 2.45374,2.51442 2.5853338,2.3988321 0 0 1 -2.70926,2.27738 l 0.12709,-2.39593 z" />
    <path
       style="fill:#362aff;fill-opacity:1;stroke:none;stroke-width:0.31593955;stroke-miterlimit:4;stroke-dasharray:none;stroke-opacity:1"
       id="path7512-6-7"
       sodipodi:type="arc"
       sodipodi:cx="171.90598"
       sodipodi:cy="135.54128"
       sodipodi:rx="2.5853338"
       sodipodi:ry="2.3988321"
       sodipodi:start="1.6210164"
       sodipodi:end="1.6199745"
       d="m 171.77619,137.93708 a 2.5853338,2.3988321 0 0 1 -2.45232,-2.5156 2.5853338,2.3988321 0 0 1 2.71054,-2.27608 2.5853338,2.3988321 0 0 1 2.45374,2.51442 2.5853338,2.3988321 0 0 1 -2.70927,2.27739 l 0.1271,-2.39593 z" />
    <path
       style="fill:#362aff;fill-opacity:1;stroke:none;stroke-width:0.31593955;stroke-miterlimit:4;stroke-dasharray:none;stroke-opacity:1"
       id="path7512-6-1"
       sodipodi:type="arc"
       sodipodi:cx="149.93063"
       sodipodi:cy="145.93622"
       sodipodi:rx="2.5853338"
       sodipodi:ry="2.3988321"
       sodipodi:start="1.6210164"
       sodipodi:end="1.6199745"
       d="m 149.80085,148.33203 a 2.5853338,2.3988321 0 0 1 -2.45232,-2.51561 2.5853338,2.3988321 0 0 1 2.71054,-2.27607 2.5853338,2.3988321 0 0 1 2.45374,2.51441 2.5853338,2.3988321 0 0 1 -2.70927,2.27739 l 0.12709,-2.39593 z" />
    <path
       style="fill:#362aff;fill-opacity:1;stroke:none;stroke-width:0.31593955;stroke-miterlimit:4;stroke-dasharray:none;stroke-opacity:1"
       id="path7512-6-9"
       sodipodi:type="arc"
       sodipodi:cx="116.3213"
       sodipodi:cy="165.12689"
       sodipodi:rx="2.5853338"
       sodipodi:ry="2.3988321"
       sodipodi:start="1.6210164"
       sodipodi:end="1.6199745"
       d="m 116.19152,167.5227 a 2.5853338,2.3988321 0 0 1 -2.45233,-2.5156 2.5853338,2.3988321 0 0 1 2.71054,-2.27608 2.5853338,2.3988321 0 0 1 2.45374,2.51442 2.5853338,2.3988321 0 0 1 -2.70926,2.27738 l 0.12709,-2.39593 z" />
    <path
       style="fill:#362aff;fill-opacity:1;stroke:none;stroke-width:0.31593955;stroke-miterlimit:4;stroke-dasharray:none;stroke-opacity:1"
       id="path7512-6-97"
       sodipodi:type="arc"
       sodipodi:cx="31.436148"
       sodipodi:cy="215.10254"
       sodipodi:rx="2.5853338"
       sodipodi:ry="2.3988321"
       sodipodi:start="1.6210164"
       sodipodi:end="1.6199745"
       d="m 31.306367,217.49835 a 2.5853338,2.3988321 0 0 1 -2.452327,-2.51561 2.5853338,2.3988321 0 0 1 2.710544,-2.27607 2.5853338,2.3988321 0 0 1 2.453739,2.51442 2.5853338,2.3988321 0 0 1 -2.709266,2.27738 l 0.127091,-2.39593 z" />
    <path
       style="fill:#362aff;fill-opacity:1;stroke:none;stroke-width:0.31593955;stroke-miterlimit:4;stroke-dasharray:none;stroke-opacity:1"
       id="path7512-6-4"
       sodipodi:type="arc"
       sodipodi:cx="66.769051"
       sodipodi:cy="186.31656"
       sodipodi:rx="2.5853338"
       sodipodi:ry="2.3988321"
       sodipodi:start="1.6210164"
       sodipodi:end="1.6199745"
       d="m 66.63927,188.71237 a 2.5853338,2.3988321 0 0 1 -2.452327,-2.51561 2.5853338,2.3988321 0 0 1 2.710544,-2.27607 2.5853338,2.3988321 0 0 1 2.453739,2.51442 2.5853338,2.3988321 0 0 1 -2.709266,2.27738 l 0.127091,-2.39593 z" />
    <path
       style="fill:#362aff;fill-opacity:1;stroke:none;stroke-width:0.31593955;stroke-miterlimit:4;stroke-dasharray:none;stroke-opacity:1"
       id="path7512-6-0"
       sodipodi:type="arc"
       sodipodi:cx="151.2233"
       sodipodi:cy="132.34283"
       sodipodi:rx="2.5853338"
       sodipodi:ry="2.3988321"
       sodipodi:start="1.6210164"
       sodipodi:end="1.6199745"
       d="m 151.09352,134.73864 a 2.5853338,2.3988321 0 0 1 -2.45233,-2.5156 2.5853338,2.3988321 0 0 1 2.71054,-2.27608 2.5853338,2.3988321 0 0 1 2.45374,2.51442 2.5853338,2.3988321 0 0 1 -2.70926,2.27739 l 0.12709,-2.39594 z" />
    <path
       style="fill:#362aff;fill-opacity:1;stroke:none;stroke-width:0.31593955;stroke-miterlimit:4;stroke-dasharray:none;stroke-opacity:1"
       id="path7512-6-08"
       sodipodi:type="arc"
       sodipodi:cx="135.71129"
       sodipodi:cy="161.52864"
       sodipodi:rx="2.5853338"
       sodipodi:ry="2.3988321"
       sodipodi:start="1.6210164"
       sodipodi:end="1.6199745"
       d="m 135.58151,163.92445 a 2.5853338,2.3988321 0 0 1 -2.45233,-2.5156 2.5853338,2.3988321 0 0 1 2.71054,-2.27608 2.5853338,2.3988321 0 0 1 2.45374,2.51442 2.5853338,2.3988321 0 0 1 -2.70926,2.27738 l 0.12709,-2.39593 z" />
    <path
       style="fill:#362aff;fill-opacity:1;stroke:none;stroke-width:0.31593955;stroke-miterlimit:4;stroke-dasharray:none;stroke-opacity:1"
       id="path7512-6-5"
       sodipodi:type="arc"
       sodipodi:cx="95.638603"
       sodipodi:cy="156.73096"
       sodipodi:rx="2.5853338"
       sodipodi:ry="2.3988321"
       sodipodi:start="1.6210164"
       sodipodi:end="1.6199745"
       d="m 95.508822,159.12676 a 2.5853338,2.3988321 0 0 1 -2.452327,-2.5156 2.5853338,2.3988321 0 0 1 2.710544,-2.27607 2.5853338,2.3988321 0 0 1 2.453739,2.51441 2.5853338,2.3988321 0 0 1 -2.709266,2.27739 l 0.127091,-2.39593 z" />
    <path
       style="fill:#362aff;fill-opacity:1;stroke:none;stroke-width:0.31593955;stroke-miterlimit:4;stroke-dasharray:none;stroke-opacity:1"
       id="path7512-6-3"
       sodipodi:type="arc"
       sodipodi:cx="195.17398"
       sodipodi:cy="127.54516"
       sodipodi:rx="2.5853338"
       sodipodi:ry="2.3988321"
       sodipodi:start="1.6210164"
       sodipodi:end="1.6199745"
       d="m 195.0442,129.94097 a 2.5853338,2.3988321 0 0 1 -2.45233,-2.51561 2.5853338,2.3988321 0 0 1 2.71055,-2.27607 2.5853338,2.3988321 0 0 1 2.45374,2.51442 2.5853338,2.3988321 0 0 1 -2.70927,2.27738 l 0.12709,-2.39593 z" />
    <path
       style="fill:#362aff;fill-opacity:1;stroke:none;stroke-width:0.31593955;stroke-miterlimit:4;stroke-dasharray:none;stroke-opacity:1"
       id="path7512-6-07"
       sodipodi:type="arc"
       sodipodi:cx="178.36931"
       sodipodi:cy="120.34866"
       sodipodi:rx="2.5853338"
       sodipodi:ry="2.3988321"
       sodipodi:start="1.6210164"
       sodipodi:end="1.6199745"
       d="m 178.23953,122.74447 a 2.5853338,2.3988321 0 0 1 -2.45233,-2.5156 2.5853338,2.3988321 0 0 1 2.71054,-2.27608 2.5853338,2.3988321 0 0 1 2.45374,2.51442 2.5853338,2.3988321 0 0 1 -2.70926,2.27739 l 0.12709,-2.39594 z" />
    <path
       style="fill:#362aff;fill-opacity:1;stroke:none;stroke-width:0.31593955;stroke-miterlimit:4;stroke-dasharray:none;stroke-opacity:1"
       id="path7512-6-32"
       sodipodi:type="arc"
       sodipodi:cx="82.281052"
       sodipodi:cy="187.91579"
       sodipodi:rx="2.5853338"
       sodipodi:ry="2.3988321"
       sodipodi:start="1.6210164"
       sodipodi:end="1.6199745"
       d="m 82.151271,190.31159 a 2.5853338,2.3988321 0 0 1 -2.452327,-2.5156 2.5853338,2.3988321 0 0 1 2.710544,-2.27607 2.5853338,2.3988321 0 0 1 2.453739,2.51441 2.5853338,2.3988321 0 0 1 -2.709266,2.27739 l 0.127091,-2.39593 z" />
    <path
       style="fill:#362aff;fill-opacity:1;stroke:none;stroke-width:0.31593955;stroke-miterlimit:4;stroke-dasharray:none;stroke-opacity:1"
       id="path7512-6-84"
       sodipodi:type="arc"
       sodipodi:cx="117.61395"
       sodipodi:cy="134.74167"
       sodipodi:rx="2.5853338"
       sodipodi:ry="2.3988321"
       sodipodi:start="1.6210164"
       sodipodi:end="1.6199745"
       d="m 117.48417,137.13748 a 2.5853338,2.3988321 0 0 1 -2.45233,-2.51561 2.5853338,2.3988321 0 0 1 2.71055,-2.27607 2.5853338,2.3988321 0 0 1 2.45374,2.51442 2.5853338,2.3988321 0 0 1 -2.70927,2.27738 l 0.12709,-2.39593 z" />
    <path
       style="fill:#362aff;fill-opacity:1;stroke:none;stroke-width:0.31593955;stroke-miterlimit:4;stroke-dasharray:none;stroke-opacity:1"
       id="path7512-6-85"
       sodipodi:type="arc"
       sodipodi:cx="168.45886"
       sodipodi:cy="181.11908"
       sodipodi:rx="2.5853338"
       sodipodi:ry="2.3988321"
       sodipodi:start="1.6210164"
       sodipodi:end="1.6199745"
       d="m 168.32908,183.51489 a 2.5853338,2.3988321 0 0 1 -2.45233,-2.51561 2.5853338,2.3988321 0 0 1 2.71055,-2.27607 2.5853338,2.3988321 0 0 1 2.45374,2.51442 2.5853338,2.3988321 0 0 1 -2.70927,2.27738 l 0.12709,-2.39593 z" />
    <path
       style="fill:#362aff;fill-opacity:1;stroke:none;stroke-width:0.31593955;stroke-miterlimit:4;stroke-dasharray:none;stroke-opacity:1"
       id="path7512-6-35"
       sodipodi:type="arc"
       sodipodi:cx="49.102596"
       sodipodi:cy="172.72318"
       sodipodi:rx="2.5853338"
       sodipodi:ry="2.3988321"
       sodipodi:start="1.6210164"
       sodipodi:end="1.6199745"
       d="m 48.972815,175.11898 a 2.5853338,2.3988321 0 0 1 -2.452327,-2.5156 2.5853338,2.3988321 0 0 1 2.710544,-2.27608 2.5853338,2.3988321 0 0 1 2.453739,2.51442 2.5853338,2.3988321 0 0 1 -2.709265,2.27739 l 0.12709,-2.39593 z" />
    <path
       style="fill:#362aff;fill-opacity:1;stroke:none;stroke-width:0.31593955;stroke-miterlimit:4;stroke-dasharray:none;stroke-opacity:1"
       id="path7512-6-73"
       sodipodi:type="arc"
       sodipodi:cx="156.39398"
       sodipodi:cy="146.33603"
       sodipodi:rx="2.5853338"
       sodipodi:ry="2.3988321"
       sodipodi:start="1.6210164"
       sodipodi:end="1.6199745"
       d="m 156.2642,148.73184 a 2.5853338,2.3988321 0 0 1 -2.45233,-2.51561 2.5853338,2.3988321 0 0 1 2.71055,-2.27607 2.5853338,2.3988321 0 0 1 2.45374,2.51442 2.5853338,2.3988321 0 0 1 -2.70927,2.27738 l 0.12709,-2.39593 z" />
    <path
       style="fill:#362aff;fill-opacity:1;stroke:none;stroke-width:0.31593955;stroke-miterlimit:4;stroke-dasharray:none;stroke-opacity:1"
       id="path7512-6-56"
       sodipodi:type="arc"
       sodipodi:cx="14.631479"
       sodipodi:cy="270.2757"
       sodipodi:rx="2.5853338"
       sodipodi:ry="2.3988321"
       sodipodi:start="1.6210164"
       sodipodi:end="1.6199745"
       d="m 14.501698,272.6715 a 2.5853338,2.3988321 0 0 1 -2.452327,-2.5156 2.5853338,2.3988321 0 0 1 2.710544,-2.27607 2.5853338,2.3988321 0 0 1 2.453739,2.51441 2.5853338,2.3988321 0 0 1 -2.709265,2.27739 l 0.12709,-2.39593 z" />
    <text
       xml:space="preserve"
       style="font-style:normal;font-weight:normal;font-size:12.61771107px;line-height:1.25;font-family:sans-serif;letter-spacing:0px;word-spacing:0px;fill:#000000;fill-opacity:1;stroke:none;stroke-width:0.31544277"
       x="21.979923"
       y="282.66089"
       id="text7689"
       transform="scale(1.0381459,0.96325574)"><tspan
         sodipodi:role="line"
         id="tspan7687"
         x="21.979923"
         y="282.66089"
         style="font-style:normal;font-variant:normal;font-weight:normal;font-stretch:normal;font-size:7.57062721px;font-family:sans-serif;-inkscape-font-specification:'sans-serif, Normal';font-variant-ligatures:normal;font-variant-caps:normal;font-variant-numeric:normal;font-feature-settings:normal;text-align:start;writing-mode:lr-tb;text-anchor:start;stroke-width:0.31544277">Datensatz</tspan></text>
    <text
       xml:space="preserve"
       style="font-style:normal;font-weight:normal;font-size:12.61771107px;line-height:1.25;font-family:sans-serif;letter-spacing:0px;word-spacing:0px;fill:#000000;fill-opacity:1;stroke:none;stroke-width:0.31544277"
       x="21.149805"
       y="295.11255"
       id="text7693"
       transform="scale(1.0381459,0.96325574)"><tspan
         sodipodi:role="line"
         id="tspan7691"
         x="21.149805"
         y="295.11255"
         style="font-style:normal;font-variant:normal;font-weight:normal;font-stretch:normal;font-size:7.57062721px;font-family:sans-serif;-inkscape-font-specification:'sans-serif, Normal';font-variant-ligatures:normal;font-variant-caps:normal;font-variant-numeric:normal;font-feature-settings:normal;text-align:start;writing-mode:lr-tb;text-anchor:start;stroke-width:0.31544277">Ergebnis des Regressionsmdells</tspan></text>
    <path
       style="fill:none;stroke:#ec0000;stroke-width:0.31544277px;stroke-linecap:butt;stroke-linejoin:miter;stroke-opacity:1"
       d="m 10.753477,285.06847 c 8.18689,-4.39786 7.325112,-4.79766 7.325112,-4.79766"
       id="path7695"
       inkscape:connector-curvature="0" />
    <path
       sodipodi:type="star"
       style="fill:#000000;fill-opacity:1;stroke:none;stroke-width:0.26458332;stroke-miterlimit:4;stroke-dasharray:2.11666653, 1.05833327;stroke-dashoffset:0;stroke-opacity:1"
       id="path9479"
       sodipodi:sides="3"
       sodipodi:cx="13.865805"
       sodipodi:cy="88.919449"
       sodipodi:r1="2.3375344"
       sodipodi:r2="1.1687672"
       sodipodi:arg1="0.5404195"
       sodipodi:arg2="1.5876171"
       inkscape:flatsided="false"
       inkscape:rounded="0"
       inkscape:randomized="0"
       d="m 15.870224,90.1221 -2.024078,-0.03405 -2.024078,-0.03405 1.041527,-1.735878 1.041527,-1.735878 0.982551,1.769928 z"
       inkscape:transform-center-x="-11.468827"
       inkscape:transform-center-y="5.0028991" />
    <path
       sodipodi:type="star"
       style="fill:#000000;fill-opacity:1;stroke:none;stroke-width:0.26458332;stroke-miterlimit:4;stroke-dasharray:2.11666655, 1.05833328;stroke-dashoffset:0;stroke-opacity:1"
       id="path9479-6"
       sodipodi:sides="3"
       sodipodi:cx="174.43578"
       sodipodi:cy="180.5936"
       sodipodi:r1="2.3375344"
       sodipodi:r2="1.1687672"
       sodipodi:arg1="0.5404195"
       sodipodi:arg2="1.5876171"
       inkscape:flatsided="false"
       inkscape:rounded="0"
       inkscape:randomized="0"
       d="m 176.44019,181.79625 -2.02407,-0.034 -2.02408,-0.0341 1.04153,-1.73588 1.04152,-1.73588 0.98255,1.76993 z"
       inkscape:transform-center-x="5.0029015"
       inkscape:transform-center-y="11.468825"
       transform="rotate(90,156.02733,227.00571)" />
  </g>
</svg>
