<?xml version="1.0" encoding="UTF-8" standalone="no"?>
<!-- Created with Inkscape (http://www.inkscape.org/) -->

<svg
   xmlns:dc="http://purl.org/dc/elements/1.1/"
   xmlns:cc="http://creativecommons.org/ns#"
   xmlns:rdf="http://www.w3.org/1999/02/22-rdf-syntax-ns#"
   xmlns:svg="http://www.w3.org/2000/svg"
   xmlns="http://www.w3.org/2000/svg"
   xmlns:sodipodi="http://sodipodi.sourceforge.net/DTD/sodipodi-0.dtd"
   xmlns:inkscape="http://www.inkscape.org/namespaces/inkscape"
   width="210mm"
   height="297mm"
   viewBox="0 0 210 297"
   version="1.1"
   id="svg8"
   inkscape:version="0.92.2 (5c3e80d, 2017-08-06)"
   sodipodi:docname="SVM.svg">
  <defs
     id="defs2" />
  <sodipodi:namedview
     id="base"
     pagecolor="#ffffff"
     bordercolor="#666666"
     borderopacity="1.0"
     inkscape:pageopacity="0.0"
     inkscape:pageshadow="2"
     inkscape:zoom="0.66245342"
     inkscape:cx="544.18182"
     inkscape:cy="641.38683"
     inkscape:document-units="mm"
     inkscape:current-layer="layer1"
     showgrid="false"
     inkscape:window-width="1920"
     inkscape:window-height="986"
     inkscape:window-x="-11"
     inkscape:window-y="-11"
     inkscape:window-maximized="1" />
  <metadata
     id="metadata5">
    <rdf:RDF>
      <cc:Work
         rdf:about="">
        <dc:format>image/svg+xml</dc:format>
        <dc:type
           rdf:resource="http://purl.org/dc/dcmitype/StillImage" />
        <dc:title></dc:title>
      </cc:Work>
    </rdf:RDF>
  </metadata>
  <g
     inkscape:label="Ebene 1"
     inkscape:groupmode="layer"
     id="layer1">
    <path
       style="fill:none;stroke:#000000;stroke-width:0.82044435px;stroke-linecap:butt;stroke-linejoin:miter;stroke-opacity:1"
       d="m 7.4289027,4.981148 v 174.168522 0 L 202.64647,178.51633 v 0"
       id="path817"
       inkscape:connector-curvature="0" />
    <path
       sodipodi:type="star"
       style="fill:#000264;fill-opacity:1;stroke:#000002;stroke-width:0.26499999;stroke-miterlimit:4;stroke-dasharray:none;stroke-opacity:1"
       id="path822"
       sodipodi:sides="3"
       sodipodi:cx="4.8939548"
       sodipodi:cy="5.4905233"
       sodipodi:r1="1.0639032"
       sodipodi:r2="0.53195161"
       sodipodi:arg1="-1.5707963"
       sodipodi:arg2="-0.52359878"
       inkscape:flatsided="true"
       inkscape:rounded="0"
       inkscape:randomized="0"
       d="m 4.8939548,4.4266201 0.9213671,1.5958549 -1.8427344,-1e-7 z"
       inkscape:transform-center-y="-0.79167564"
       transform="matrix(3.2304903,0,0,2.9764931,-8.3809708,-8.1946561)" />
    <path
       sodipodi:type="star"
       style="fill:#000264;fill-opacity:1;stroke:#000002;stroke-width:0.26499999;stroke-miterlimit:4;stroke-dasharray:none;stroke-opacity:1"
       id="path822-4"
       sodipodi:sides="3"
       sodipodi:cx="-46.173401"
       sodipodi:cy="-34.335354"
       sodipodi:r1="1.0639032"
       sodipodi:r2="0.53195161"
       sodipodi:arg1="-1.5707963"
       sodipodi:arg2="-0.52359878"
       inkscape:flatsided="true"
       inkscape:rounded="0"
       inkscape:randomized="0"
       d="m -46.173401,-35.399257 0.921367,1.595855 -1.842734,0 z"
       transform="matrix(0,2.9764931,-3.2304903,0,88.289514,315.95114)"
       inkscape:transform-center-x="-0.85923246"
       inkscape:transform-center-y="-3.4826425e-006" />
    <path
       style="fill:none;stroke:#000000;stroke-width:0.82044435;stroke-linecap:butt;stroke-linejoin:miter;stroke-miterlimit:4;stroke-dasharray:6.5635546, 3.2817773;stroke-dashoffset:0;stroke-opacity:1"
       d="M 7.4289027,45.514912 C 146.96822,177.88299 146.96822,177.88299 146.96822,177.88299"
       id="path839"
       inkscape:connector-curvature="0" />
    <path
       style="fill:none;stroke:#000000;stroke-width:0.82044435px;stroke-linecap:butt;stroke-linejoin:miter;stroke-opacity:1"
       d="M 7.4289027,68.948496 124.28449,179.78301"
       id="path856"
       inkscape:connector-curvature="0" />
    <path
       style="fill:none;stroke:#000000;stroke-width:0.8217364;stroke-linecap:butt;stroke-linejoin:miter;stroke-miterlimit:4;stroke-dasharray:6.5738913, 3.28694565;stroke-dashoffset:0;stroke-opacity:1"
       d="M 7.4289027,92.382078 98.851217,179.14967 H 98.16383"
       id="path858"
       inkscape:connector-curvature="0" />
    <path
       style="fill:#006403;fill-opacity:1;stroke:none;stroke-width:0.82044435;stroke-miterlimit:4;stroke-dasharray:6.56355451, 3.28177727;stroke-dashoffset:0;stroke-opacity:1"
       id="path2310"
       sodipodi:type="arc"
       sodipodi:cx="25.644625"
       sodipodi:cy="169.01624"
       sodipodi:rx="5.8427792"
       sodipodi:ry="5.7000608"
       sodipodi:start="1.6210164"
       sodipodi:end="1.6031512"
       d="m 25.351323,174.70911 a 5.8427792,5.7000608 0 0 1 -5.543363,-5.95358 5.8427792,5.7000608 0 0 1 6.07783,-5.4345 5.8427792,5.7000608 0 0 1 5.597654,5.90504 5.8427792,5.7000608 0 0 1 -6.027829,5.48724 l 0.18901,-5.69707 z" />
    <path
       style="fill:#006403;fill-opacity:1;stroke:none;stroke-width:0.82044435;stroke-miterlimit:4;stroke-dasharray:6.56355457, 3.2817773;stroke-dashoffset:0;stroke-opacity:1"
       id="path2310-6"
       sodipodi:type="arc"
       sodipodi:cx="16.364918"
       sodipodi:cy="150.01602"
       sodipodi:rx="5.8427792"
       sodipodi:ry="5.7000608"
       sodipodi:start="1.6210164"
       sodipodi:end="1.6031512"
       d="m 16.071616,155.7089 a 5.8427792,5.7000608 0 0 1 -5.543363,-5.95359 5.8427792,5.7000608 0 0 1 6.07783,-5.43449 5.8427792,5.7000608 0 0 1 5.597654,5.90504 5.8427792,5.7000608 0 0 1 -6.027829,5.48724 l 0.18901,-5.69708 z" />
    <path
       style="fill:#006403;fill-opacity:1;stroke:none;stroke-width:0.82044435;stroke-miterlimit:4;stroke-dasharray:6.56355457, 3.2817773;stroke-dashoffset:0;stroke-opacity:1"
       id="path2310-8"
       sodipodi:type="arc"
       sodipodi:cx="65.169312"
       sodipodi:cy="150.01602"
       sodipodi:rx="5.8427792"
       sodipodi:ry="5.7000608"
       sodipodi:start="1.6210164"
       sodipodi:end="1.6031512"
       d="m 64.87601,155.7089 a 5.8427792,5.7000608 0 0 1 -5.543363,-5.95359 5.8427792,5.7000608 0 0 1 6.07783,-5.43449 5.8427792,5.7000608 0 0 1 5.597653,5.90504 5.8427792,5.7000608 0 0 1 -6.027828,5.48724 l 0.18901,-5.69708 z" />
    <path
       style="fill:#006403;fill-opacity:1;stroke:none;stroke-width:0.82044435;stroke-miterlimit:4;stroke-dasharray:6.56355457, 3.2817773;stroke-dashoffset:0;stroke-opacity:1"
       id="path2310-7"
       sodipodi:type="arc"
       sodipodi:cx="25.988321"
       sodipodi:cy="134.18253"
       sodipodi:rx="5.8427792"
       sodipodi:ry="5.7000608"
       sodipodi:start="1.6210164"
       sodipodi:end="1.6031512"
       d="m 25.69502,139.8754 a 5.8427792,5.7000608 0 0 1 -5.543363,-5.95358 5.8427792,5.7000608 0 0 1 6.077829,-5.4345 5.8427792,5.7000608 0 0 1 5.597654,5.90504 5.8427792,5.7000608 0 0 1 -6.027828,5.48724 l 0.189009,-5.69707 z" />
    <path
       style="fill:#006403;fill-opacity:1;stroke:none;stroke-width:0.82044435;stroke-miterlimit:4;stroke-dasharray:6.56355457, 3.2817773;stroke-dashoffset:0;stroke-opacity:1"
       id="path2310-73"
       sodipodi:type="arc"
       sodipodi:cx="32.174793"
       sodipodi:cy="150.64937"
       sodipodi:rx="5.8427792"
       sodipodi:ry="5.7000608"
       sodipodi:start="1.6210164"
       sodipodi:end="1.6031512"
       d="m 31.881492,156.34224 a 5.8427792,5.7000608 0 0 1 -5.543363,-5.95358 5.8427792,5.7000608 0 0 1 6.077829,-5.43449 5.8427792,5.7000608 0 0 1 5.597654,5.90503 5.8427792,5.7000608 0 0 1 -6.027828,5.48725 l 0.189009,-5.69708 z" />
    <path
       style="fill:#006403;fill-opacity:1;stroke:none;stroke-width:0.82044435;stroke-miterlimit:4;stroke-dasharray:6.56355457, 3.2817773;stroke-dashoffset:0;stroke-opacity:1"
       id="path2310-69"
       sodipodi:type="arc"
       sodipodi:cx="61.044994"
       sodipodi:cy="168.38289"
       sodipodi:rx="5.8427792"
       sodipodi:ry="5.7000608"
       sodipodi:start="1.6210164"
       sodipodi:end="1.6031512"
       d="m 60.751693,174.07576 a 5.8427792,5.7000608 0 0 1 -5.543363,-5.95358 5.8427792,5.7000608 0 0 1 6.077829,-5.43449 5.8427792,5.7000608 0 0 1 5.597654,5.90503 5.8427792,5.7000608 0 0 1 -6.027828,5.48725 l 0.189009,-5.69708 z" />
    <path
       style="fill:#ef1226;fill-opacity:1;stroke:none;stroke-width:0.82044435;stroke-miterlimit:4;stroke-dasharray:6.56355463, 3.28177733;stroke-dashoffset:0;stroke-opacity:1"
       id="path2310-73-4"
       sodipodi:type="arc"
       sodipodi:cx="78.91703"
       sodipodi:cy="76.548584"
       sodipodi:rx="5.8427792"
       sodipodi:ry="5.7000608"
       sodipodi:start="1.6210164"
       sodipodi:end="1.6031512"
       d="m 78.623729,82.241458 a 5.8427792,5.7000608 0 0 1 -5.543363,-5.953582 5.8427792,5.7000608 0 0 1 6.077829,-5.434495 5.8427792,5.7000608 0 0 1 5.597654,5.905038 5.8427792,5.7000608 0 0 1 -6.027828,5.487243 l 0.189009,-5.697078 z" />
    <path
       style="fill:#ef1226;fill-opacity:1;stroke:none;stroke-width:0.82044435;stroke-miterlimit:4;stroke-dasharray:6.56355469, 3.28177736;stroke-dashoffset:0;stroke-opacity:1"
       id="path2310-73-4-4"
       sodipodi:type="arc"
       sodipodi:cx="102.97552"
       sodipodi:cy="104.41554"
       sodipodi:rx="5.8427792"
       sodipodi:ry="5.7000608"
       sodipodi:start="1.6210164"
       sodipodi:end="1.6031512"
       d="m 102.68222,110.10842 a 5.8427792,5.7000608 0 0 1 -5.543367,-5.95359 5.8427792,5.7000608 0 0 1 6.077827,-5.434491 5.8427792,5.7000608 0 0 1 5.59766,5.905041 5.8427792,5.7000608 0 0 1 -6.02783,5.48724 l 0.18901,-5.69708 z" />
    <path
       style="fill:#ef1226;fill-opacity:1;stroke:none;stroke-width:0.82044435;stroke-miterlimit:4;stroke-dasharray:6.56355469, 3.28177736;stroke-dashoffset:0;stroke-opacity:1"
       id="path2310-73-4-7"
       sodipodi:type="arc"
       sodipodi:cx="99.538597"
       sodipodi:cy="67.681816"
       sodipodi:rx="5.8427792"
       sodipodi:ry="5.7000608"
       sodipodi:start="1.6210164"
       sodipodi:end="1.6031512"
       d="m 99.245296,73.374691 a 5.8427792,5.7000608 0 0 1 -5.543363,-5.953583 5.8427792,5.7000608 0 0 1 6.077829,-5.434495 5.8427792,5.7000608 0 0 1 5.597658,5.905039 5.8427792,5.7000608 0 0 1 -6.027832,5.487242 l 0.189009,-5.697078 z" />
    <path
       style="fill:#ef1226;fill-opacity:1;stroke:none;stroke-width:0.82044435;stroke-miterlimit:4;stroke-dasharray:6.56355469, 3.28177736;stroke-dashoffset:0;stroke-opacity:1"
       id="path2310-73-4-5"
       sodipodi:type="arc"
       sodipodi:cx="122.22233"
       sodipodi:cy="72.748543"
       sodipodi:rx="5.8427792"
       sodipodi:ry="5.7000608"
       sodipodi:start="1.6210164"
       sodipodi:end="1.6031512"
       d="m 121.92903,78.441417 a 5.8427792,5.7000608 0 0 1 -5.54337,-5.953583 5.8427792,5.7000608 0 0 1 6.07783,-5.434494 5.8427792,5.7000608 0 0 1 5.59766,5.905038 5.8427792,5.7000608 0 0 1 -6.02783,5.487242 l 0.18901,-5.697077 z" />
    <path
       style="fill:#ef1226;fill-opacity:1;stroke:none;stroke-width:0.82044435;stroke-miterlimit:4;stroke-dasharray:6.56355469, 3.28177736;stroke-dashoffset:0;stroke-opacity:1"
       id="path2310-73-4-6"
       sodipodi:type="arc"
       sodipodi:cx="144.90605"
       sodipodi:cy="105.04888"
       sodipodi:rx="5.8427792"
       sodipodi:ry="5.7000608"
       sodipodi:start="1.6210164"
       sodipodi:end="1.6031512"
       d="m 144.61275,110.74176 a 5.8427792,5.7000608 0 0 1 -5.54336,-5.95359 5.8427792,5.7000608 0 0 1 6.07783,-5.434492 5.8427792,5.7000608 0 0 1 5.59765,5.905042 5.8427792,5.7000608 0 0 1 -6.02783,5.48724 l 0.18901,-5.69708 z" />
    <path
       style="fill:#ef1226;fill-opacity:1;stroke:none;stroke-width:0.82044435;stroke-miterlimit:4;stroke-dasharray:6.56355469, 3.28177736;stroke-dashoffset:0;stroke-opacity:1"
       id="path2310-73-4-8"
       sodipodi:type="arc"
       sodipodi:cx="82.353951"
       sodipodi:cy="113.91565"
       sodipodi:rx="5.8427792"
       sodipodi:ry="5.7000608"
       sodipodi:start="1.6210164"
       sodipodi:end="1.6031512"
       d="m 82.060649,119.60852 a 5.8427792,5.7000608 0 0 1 -5.543363,-5.95358 5.8427792,5.7000608 0 0 1 6.07783,-5.43449 5.8427792,5.7000608 0 0 1 5.597653,5.90503 5.8427792,5.7000608 0 0 1 -6.027828,5.48725 l 0.18901,-5.69708 z" />
    <path
       style="fill:#ef1226;fill-opacity:1;stroke:none;stroke-width:0.82044435;stroke-miterlimit:4;stroke-dasharray:6.56355469, 3.28177736;stroke-dashoffset:0;stroke-opacity:1"
       id="path2310-73-4-44"
       sodipodi:type="arc"
       sodipodi:cx="119.47279"
       sodipodi:cy="120.24904"
       sodipodi:rx="5.8427792"
       sodipodi:ry="5.7000608"
       sodipodi:start="1.6210164"
       sodipodi:end="1.6031512"
       d="m 119.17949,125.94191 a 5.8427792,5.7000608 0 0 1 -5.54336,-5.95358 5.8427792,5.7000608 0 0 1 6.07783,-5.43449 5.8427792,5.7000608 0 0 1 5.59765,5.90503 5.8427792,5.7000608 0 0 1 -6.02783,5.48725 l 0.18901,-5.69708 z" />
    <path
       style="fill:#ef1226;fill-opacity:1;stroke:none;stroke-width:0.82044435;stroke-miterlimit:4;stroke-dasharray:6.56355469, 3.28177736;stroke-dashoffset:0;stroke-opacity:1"
       id="path2310-73-4-75"
       sodipodi:type="arc"
       sodipodi:cx="119.47279"
       sodipodi:cy="120.24904"
       sodipodi:rx="5.8427792"
       sodipodi:ry="5.7000608"
       sodipodi:start="1.6210164"
       sodipodi:end="1.6031512"
       d="m 119.17949,125.94191 a 5.8427792,5.7000608 0 0 1 -5.54336,-5.95358 5.8427792,5.7000608 0 0 1 6.07783,-5.43449 5.8427792,5.7000608 0 0 1 5.59765,5.90503 5.8427792,5.7000608 0 0 1 -6.02783,5.48725 l 0.18901,-5.69708 z" />
  </g>
</svg>
