<?xml version="1.0" encoding="UTF-8" standalone="no"?>
<!-- Created with Inkscape (http://www.inkscape.org/) -->

<svg
   xmlns:dc="http://purl.org/dc/elements/1.1/"
   xmlns:cc="http://creativecommons.org/ns#"
   xmlns:rdf="http://www.w3.org/1999/02/22-rdf-syntax-ns#"
   xmlns:svg="http://www.w3.org/2000/svg"
   xmlns="http://www.w3.org/2000/svg"
   xmlns:sodipodi="http://sodipodi.sourceforge.net/DTD/sodipodi-0.dtd"
   xmlns:inkscape="http://www.inkscape.org/namespaces/inkscape"
   width="210mm"
   height="215mm"
   viewBox="0 0 210 215"
   version="1.1"
   id="svg8"
   inkscape:version="0.92.2 (5c3e80d, 2017-08-06)"
   sodipodi:docname="SVM.svg">
  <defs
     id="defs2" />
  <sodipodi:namedview
     id="base"
     pagecolor="#ffffff"
     bordercolor="#666666"
     borderopacity="1.0"
     inkscape:pageopacity="0.0"
     inkscape:pageshadow="2"
     inkscape:zoom="0.66245342"
     inkscape:cx="77.73393"
     inkscape:cy="581.00523"
     inkscape:document-units="mm"
     inkscape:current-layer="layer1"
     showgrid="false"
     inkscape:window-width="1920"
     inkscape:window-height="986"
     inkscape:window-x="-11"
     inkscape:window-y="-11"
     inkscape:window-maximized="1" />
  <metadata
     id="metadata5">
    <rdf:RDF>
      <cc:Work
         rdf:about="">
        <dc:format>image/svg+xml</dc:format>
        <dc:type
           rdf:resource="http://purl.org/dc/dcmitype/StillImage" />
        <dc:title></dc:title>
      </cc:Work>
    </rdf:RDF>
  </metadata>
  <g
     inkscape:label="Ebene 1"
     inkscape:groupmode="layer"
     id="layer1"
     transform="translate(0,-82)">
    <path
       style="fill:none;stroke:#000000;stroke-width:0.82044435px;stroke-linecap:butt;stroke-linejoin:miter;stroke-opacity:1"
       d="m 8.2277011,108.02613 v 174.16852 0 L 203.44527,281.56131 v 0"
       id="path817"
       inkscape:connector-curvature="0" />
    <path
       sodipodi:type="star"
       style="fill:#000264;fill-opacity:1;stroke:#000002;stroke-width:0.26499999;stroke-miterlimit:4;stroke-dasharray:none;stroke-opacity:1"
       id="path822"
       sodipodi:sides="3"
       sodipodi:cx="4.8939548"
       sodipodi:cy="5.4905233"
       sodipodi:r1="1.0639032"
       sodipodi:r2="0.53195161"
       sodipodi:arg1="-1.5707963"
       sodipodi:arg2="-0.52359878"
       inkscape:flatsided="true"
       inkscape:rounded="0"
       inkscape:randomized="0"
       d="m 4.8939548,4.4266201 0.9213671,1.5958549 -1.8427344,-1e-7 z"
       inkscape:transform-center-y="-0.79167564"
       transform="matrix(3.2304903,0,0,2.9764931,-7.5821724,94.850325)" />
    <path
       sodipodi:type="star"
       style="fill:#000264;fill-opacity:1;stroke:#000002;stroke-width:0.26499999;stroke-miterlimit:4;stroke-dasharray:none;stroke-opacity:1"
       id="path822-4"
       sodipodi:sides="3"
       sodipodi:cx="-46.173401"
       sodipodi:cy="-34.335354"
       sodipodi:r1="1.0639032"
       sodipodi:r2="0.53195161"
       sodipodi:arg1="-1.5707963"
       sodipodi:arg2="-0.52359878"
       inkscape:flatsided="true"
       inkscape:rounded="0"
       inkscape:randomized="0"
       d="m -46.173401,-35.399257 0.921367,1.595855 -1.842734,0 z"
       transform="matrix(0,2.9764931,-3.2304903,0,89.088312,418.99612)"
       inkscape:transform-center-x="-0.85923246"
       inkscape:transform-center-y="-3.4826425e-006" />
    <path
       style="fill:none;stroke:#000000;stroke-width:0.82044435;stroke-linecap:butt;stroke-linejoin:miter;stroke-miterlimit:4;stroke-dasharray:6.5635546, 3.2817773;stroke-dashoffset:0;stroke-opacity:1"
       d="M 8.2277011,148.55989 C 147.76702,280.92797 147.76702,280.92797 147.76702,280.92797"
       id="path839"
       inkscape:connector-curvature="0" />
    <path
       style="fill:none;stroke:#000000;stroke-width:0.82044435px;stroke-linecap:butt;stroke-linejoin:miter;stroke-opacity:1"
       d="M 8.2277011,171.99347 125.08329,282.82799"
       id="path856"
       inkscape:connector-curvature="0" />
    <path
       style="fill:none;stroke:#000000;stroke-width:0.8217364;stroke-linecap:butt;stroke-linejoin:miter;stroke-miterlimit:4;stroke-dasharray:6.5738913, 3.28694565;stroke-dashoffset:0;stroke-opacity:1"
       d="M 8.2277011,195.42706 99.650015,282.19465 H 98.962628"
       id="path858"
       inkscape:connector-curvature="0" />
    <path
       style="fill:#006403;fill-opacity:1;stroke:none;stroke-width:0.82044435;stroke-miterlimit:4;stroke-dasharray:6.56355451, 3.28177727;stroke-dashoffset:0;stroke-opacity:1"
       id="path2310"
       sodipodi:type="arc"
       sodipodi:cx="26.443422"
       sodipodi:cy="272.06122"
       sodipodi:rx="5.8427792"
       sodipodi:ry="5.7000608"
       sodipodi:start="1.6210164"
       sodipodi:end="1.6031512"
       d="m 26.150121,277.75409 a 5.8427792,5.7000608 0 0 1 -5.543363,-5.95358 5.8427792,5.7000608 0 0 1 6.077829,-5.43449 5.8427792,5.7000608 0 0 1 5.597654,5.90503 5.8427792,5.7000608 0 0 1 -6.027828,5.48725 l 0.189009,-5.69708 z" />
    <path
       style="fill:#006403;fill-opacity:1;stroke:none;stroke-width:0.82044435;stroke-miterlimit:4;stroke-dasharray:6.56355457, 3.2817773;stroke-dashoffset:0;stroke-opacity:1"
       id="path2310-6"
       sodipodi:type="arc"
       sodipodi:cx="17.163715"
       sodipodi:cy="253.061"
       sodipodi:rx="5.8427792"
       sodipodi:ry="5.7000608"
       sodipodi:start="1.6210164"
       sodipodi:end="1.6031512"
       d="m 16.870414,258.75388 a 5.8427792,5.7000608 0 0 1 -5.543363,-5.95358 5.8427792,5.7000608 0 0 1 6.077829,-5.4345 5.8427792,5.7000608 0 0 1 5.597654,5.90504 5.8427792,5.7000608 0 0 1 -6.027828,5.48724 l 0.189009,-5.69708 z" />
    <path
       style="fill:#006403;fill-opacity:1;stroke:none;stroke-width:0.82044435;stroke-miterlimit:4;stroke-dasharray:6.56355457, 3.2817773;stroke-dashoffset:0;stroke-opacity:1"
       id="path2310-8"
       sodipodi:type="arc"
       sodipodi:cx="65.968109"
       sodipodi:cy="253.061"
       sodipodi:rx="5.8427792"
       sodipodi:ry="5.7000608"
       sodipodi:start="1.6210164"
       sodipodi:end="1.6031512"
       d="m 65.674808,258.75388 a 5.8427792,5.7000608 0 0 1 -5.543363,-5.95358 5.8427792,5.7000608 0 0 1 6.077829,-5.4345 5.8427792,5.7000608 0 0 1 5.597654,5.90504 5.8427792,5.7000608 0 0 1 -6.027828,5.48724 l 0.189009,-5.69708 z" />
    <path
       style="fill:#006403;fill-opacity:1;stroke:none;stroke-width:0.82044435;stroke-miterlimit:4;stroke-dasharray:6.56355457, 3.2817773;stroke-dashoffset:0;stroke-opacity:1"
       id="path2310-7"
       sodipodi:type="arc"
       sodipodi:cx="26.787119"
       sodipodi:cy="237.22751"
       sodipodi:rx="5.8427792"
       sodipodi:ry="5.7000608"
       sodipodi:start="1.6210164"
       sodipodi:end="1.6031512"
       d="m 26.493817,242.92038 a 5.8427792,5.7000608 0 0 1 -5.543363,-5.95358 5.8427792,5.7000608 0 0 1 6.07783,-5.43449 5.8427792,5.7000608 0 0 1 5.597654,5.90503 5.8427792,5.7000608 0 0 1 -6.027828,5.48725 l 0.189009,-5.69708 z" />
    <path
       style="fill:#006403;fill-opacity:1;stroke:none;stroke-width:0.82044435;stroke-miterlimit:4;stroke-dasharray:6.56355457, 3.2817773;stroke-dashoffset:0;stroke-opacity:1"
       id="path2310-73"
       sodipodi:type="arc"
       sodipodi:cx="32.973591"
       sodipodi:cy="253.69435"
       sodipodi:rx="5.8427792"
       sodipodi:ry="5.7000608"
       sodipodi:start="1.6210164"
       sodipodi:end="1.6031512"
       d="m 32.680289,259.38723 a 5.8427792,5.7000608 0 0 1 -5.543363,-5.95359 5.8427792,5.7000608 0 0 1 6.07783,-5.43449 5.8427792,5.7000608 0 0 1 5.597654,5.90504 5.8427792,5.7000608 0 0 1 -6.027829,5.48724 l 0.18901,-5.69708 z" />
    <path
       style="fill:#006403;fill-opacity:1;stroke:none;stroke-width:0.82044435;stroke-miterlimit:4;stroke-dasharray:6.56355457, 3.2817773;stroke-dashoffset:0;stroke-opacity:1"
       id="path2310-69"
       sodipodi:type="arc"
       sodipodi:cx="61.843792"
       sodipodi:cy="271.42789"
       sodipodi:rx="5.8427792"
       sodipodi:ry="5.7000608"
       sodipodi:start="1.6210164"
       sodipodi:end="1.6031512"
       d="m 61.55049,277.12076 a 5.8427792,5.7000608 0 0 1 -5.543363,-5.95358 5.8427792,5.7000608 0 0 1 6.07783,-5.4345 5.8427792,5.7000608 0 0 1 5.597654,5.90504 5.8427792,5.7000608 0 0 1 -6.027828,5.48724 l 0.189009,-5.69707 z" />
    <path
       style="fill:#ef1226;fill-opacity:1;stroke:none;stroke-width:0.82044435;stroke-miterlimit:4;stroke-dasharray:6.56355463, 3.28177733;stroke-dashoffset:0;stroke-opacity:1"
       id="path2310-73-4"
       sodipodi:type="arc"
       sodipodi:cx="79.715828"
       sodipodi:cy="179.59357"
       sodipodi:rx="5.8427792"
       sodipodi:ry="5.7000608"
       sodipodi:start="1.6210164"
       sodipodi:end="1.6031512"
       d="m 79.422526,185.28644 a 5.8427792,5.7000608 0 0 1 -5.543363,-5.95358 5.8427792,5.7000608 0 0 1 6.07783,-5.4345 5.8427792,5.7000608 0 0 1 5.597654,5.90504 5.8427792,5.7000608 0 0 1 -6.027828,5.48724 l 0.189009,-5.69707 z" />
    <path
       style="fill:#ef1226;fill-opacity:1;stroke:none;stroke-width:0.82044435;stroke-miterlimit:4;stroke-dasharray:6.56355469, 3.28177736;stroke-dashoffset:0;stroke-opacity:1"
       id="path2310-73-4-4"
       sodipodi:type="arc"
       sodipodi:cx="103.77432"
       sodipodi:cy="207.46053"
       sodipodi:rx="5.8427792"
       sodipodi:ry="5.7000608"
       sodipodi:start="1.6210164"
       sodipodi:end="1.6031512"
       d="m 103.48102,213.1534 a 5.8427792,5.7000608 0 0 1 -5.543362,-5.95358 5.8427792,5.7000608 0 0 1 6.077832,-5.4345 5.8427792,5.7000608 0 0 1 5.59765,5.90504 5.8427792,5.7000608 0 0 1 -6.02783,5.48724 l 0.18901,-5.69707 z" />
    <path
       style="fill:#ef1226;fill-opacity:1;stroke:none;stroke-width:0.82044435;stroke-miterlimit:4;stroke-dasharray:6.56355469, 3.28177736;stroke-dashoffset:0;stroke-opacity:1"
       id="path2310-73-4-7"
       sodipodi:type="arc"
       sodipodi:cx="100.33739"
       sodipodi:cy="170.72679"
       sodipodi:rx="5.8427792"
       sodipodi:ry="5.7000608"
       sodipodi:start="1.6210164"
       sodipodi:end="1.6031512"
       d="m 100.04409,176.41967 a 5.8427792,5.7000608 0 0 1 -5.543367,-5.95359 5.8427792,5.7000608 0 0 1 6.077827,-5.43449 5.8427792,5.7000608 0 0 1 5.59766,5.90504 5.8427792,5.7000608 0 0 1 -6.02783,5.48724 l 0.18901,-5.69708 z" />
    <path
       style="fill:#ef1226;fill-opacity:1;stroke:none;stroke-width:0.82044435;stroke-miterlimit:4;stroke-dasharray:6.56355469, 3.28177736;stroke-dashoffset:0;stroke-opacity:1"
       id="path2310-73-4-5"
       sodipodi:type="arc"
       sodipodi:cx="123.02113"
       sodipodi:cy="175.79352"
       sodipodi:rx="5.8427792"
       sodipodi:ry="5.7000608"
       sodipodi:start="1.6210164"
       sodipodi:end="1.6031512"
       d="m 122.72783,181.48639 a 5.8427792,5.7000608 0 0 1 -5.54336,-5.95358 5.8427792,5.7000608 0 0 1 6.07783,-5.4345 5.8427792,5.7000608 0 0 1 5.59765,5.90504 5.8427792,5.7000608 0 0 1 -6.02783,5.48725 l 0.18901,-5.69708 z" />
    <path
       style="fill:#ef1226;fill-opacity:1;stroke:none;stroke-width:0.82044435;stroke-miterlimit:4;stroke-dasharray:6.56355469, 3.28177736;stroke-dashoffset:0;stroke-opacity:1"
       id="path2310-73-4-6"
       sodipodi:type="arc"
       sodipodi:cx="145.70485"
       sodipodi:cy="208.09386"
       sodipodi:rx="5.8427792"
       sodipodi:ry="5.7000608"
       sodipodi:start="1.6210164"
       sodipodi:end="1.6031512"
       d="m 145.41155,213.78673 a 5.8427792,5.7000608 0 0 1 -5.54337,-5.95358 5.8427792,5.7000608 0 0 1 6.07783,-5.4345 5.8427792,5.7000608 0 0 1 5.59766,5.90504 5.8427792,5.7000608 0 0 1 -6.02783,5.48724 l 0.18901,-5.69707 z" />
    <path
       style="fill:#ef1226;fill-opacity:1;stroke:none;stroke-width:0.82044435;stroke-miterlimit:4;stroke-dasharray:6.56355469, 3.28177736;stroke-dashoffset:0;stroke-opacity:1"
       id="path2310-73-4-8"
       sodipodi:type="arc"
       sodipodi:cx="83.152748"
       sodipodi:cy="216.96063"
       sodipodi:rx="5.8427792"
       sodipodi:ry="5.7000608"
       sodipodi:start="1.6210164"
       sodipodi:end="1.6031512"
       d="m 82.859447,222.65351 a 5.8427792,5.7000608 0 0 1 -5.543363,-5.95359 5.8427792,5.7000608 0 0 1 6.077829,-5.43449 5.8427792,5.7000608 0 0 1 5.597654,5.90504 5.8427792,5.7000608 0 0 1 -6.027828,5.48724 l 0.189009,-5.69708 z" />
    <path
       style="fill:#ef1226;fill-opacity:1;stroke:none;stroke-width:0.82044435;stroke-miterlimit:4;stroke-dasharray:6.56355469, 3.28177736;stroke-dashoffset:0;stroke-opacity:1"
       id="path2310-73-4-44"
       sodipodi:type="arc"
       sodipodi:cx="120.27159"
       sodipodi:cy="223.29402"
       sodipodi:rx="5.8427792"
       sodipodi:ry="5.7000608"
       sodipodi:start="1.6210164"
       sodipodi:end="1.6031512"
       d="m 119.97829,228.9869 a 5.8427792,5.7000608 0 0 1 -5.54336,-5.95359 5.8427792,5.7000608 0 0 1 6.07783,-5.43449 5.8427792,5.7000608 0 0 1 5.59765,5.90504 5.8427792,5.7000608 0 0 1 -6.02783,5.48724 l 0.18901,-5.69708 z" />
    <path
       style="fill:#ef1226;fill-opacity:1;stroke:none;stroke-width:0.82044435;stroke-miterlimit:4;stroke-dasharray:6.56355469, 3.28177736;stroke-dashoffset:0;stroke-opacity:1"
       id="path2310-73-4-75"
       sodipodi:type="arc"
       sodipodi:cx="120.27159"
       sodipodi:cy="223.29402"
       sodipodi:rx="5.8427792"
       sodipodi:ry="5.7000608"
       sodipodi:start="1.6210164"
       sodipodi:end="1.6031512"
       d="m 119.97829,228.9869 a 5.8427792,5.7000608 0 0 1 -5.54336,-5.95359 5.8427792,5.7000608 0 0 1 6.07783,-5.43449 5.8427792,5.7000608 0 0 1 5.59765,5.90504 5.8427792,5.7000608 0 0 1 -6.02783,5.48724 l 0.18901,-5.69708 z" />
  </g>
</svg>
